<?xml version="1.0" encoding="UTF-8"?>
<svg xmlns="http://www.w3.org/2000/svg"
     viewBox="-25 -25 50 50" width="400" height="400">
<rect x="-25" y="-25" width="50" height="50" fill="white"/>
<path d="M 19.657,17.222 L 19.806,16.806 L 19.914,16.378 L 19.978,15.941 L 20.000,15.500 L 20.000,4.000 L 9.750,4.000 L 9.750,6.000 L 7.750,6.000 L 7.750,-6.000 L 9.750,-6.000 L 9.750,-0.000 L 9.750,-4.000 L 20.000,-4.000 L 20.000,-15.500 L 19.978,-15.941 L 19.914,-16.378 L 19.806,-16.806 L 19.657,-17.222 L 19.469,-17.621 L 19.242,-18.000 L 18.979,-18.355 L 18.682,-18.682 L 18.355,-18.979 L 18.000,-19.242 L 17.621,-19.469 L 17.222,-19.657 L 16.806,-19.806 L 16.378,-19.914 L 15.941,-19.978 L 15.500,-20.000 L 4.000,-20.000 L 4.000,-9.750 L 6.000,-9.750 L 6.000,-7.750 L -6.000,-7.750 L -6.000,-9.750 L -4.000,-9.750 L -4.000,-20.000 L -15.500,-20.000 L -15.941,-19.978 L -16.378,-19.914 L -16.806,-19.806 L -17.222,-19.657 L -17.621,-19.469 L -18.000,-19.242 L -18.355,-18.979 L -18.682,-18.682 L -18.979,-18.355 L -19.242,-18.000 L -19.469,-17.621 L -19.657,-17.222 L -19.806,-16.806 L -19.914,-16.378 L -19.978,-15.941 L -20.000,-15.500 L -20.000,-4.000 L -9.750,-4.000 L -9.750,-6.000 L -7.750,-6.000 L -7.750,6.000 L -9.750,6.000 L -9.750,4.000 L -20.000,4.000 L -20.000,15.500 L -19.978,15.941 L -19.914,16.378 L -19.806,16.806 L -19.657,17.222 L -19.469,17.621 L -19.242,18.000 L -18.979,18.355 L -18.682,18.682 L -18.355,18.979 L -18.000,19.242 L -17.621,19.469 L -17.222,19.657 L -16.806,19.806 L -16.378,19.914 L -15.941,19.978 L -15.500,20.000 L -4.000,20.000 L -4.000,9.750 L -6.000,9.750 L -6.000,7.750 L 6.000,7.750 L 6.000,9.750 L 4.000,9.750 L 4.000,20.000 L 15.500,20.000 L 15.941,19.978 L 16.378,19.914 L 16.806,19.806 L 17.222,19.657 L 17.621,19.469 L 18.000,19.242 L 18.355,18.979 L 18.682,18.682 L 18.979,18.355 L 19.242,18.000 L 19.469,17.621 L 19.657,17.222 Z" fill="none" stroke="black" stroke-width="0.3"/>
<path d="M 2.999,1.603 L 2.827,1.889 L 2.628,2.157 L 2.404,2.404 L 2.157,2.628 L 1.889,2.827 L 1.603,2.999 L 1.301,3.141 L 0.987,3.254 L 0.663,3.335 L 0.333,3.384 L 0.000,3.400 L -0.333,3.384 L -0.663,3.335 L -0.987,3.254 L -1.301,3.141 L -1.603,2.999 L -1.889,2.827 L -2.157,2.628 L -2.404,2.404 L -2.628,2.157 L -2.827,1.889 L -2.999,1.603 L -3.141,1.301 L -3.254,0.987 L -3.335,0.663 L -3.384,0.333 L -3.400,0.000 L -3.384,-0.333 L -3.335,-0.663 L -3.254,-0.987 L -3.141,-1.301 L -2.999,-1.603 L -2.827,-1.889 L -2.628,-2.157 L -2.404,-2.404 L -2.157,-2.628 L -1.889,-2.827 L -1.603,-2.999 L -1.301,-3.141 L -0.987,-3.254 L -0.663,-3.335 L -0.333,-3.384 L -0.000,-3.400 L 0.333,-3.384 L 0.663,-3.335 L 0.987,-3.254 L 1.301,-3.141 L 1.603,-2.999 L 1.889,-2.827 L 2.157,-2.628 L 2.404,-2.404 L 2.628,-2.157 L 2.827,-1.889 L 2.999,-1.603 L 3.141,-1.301 L 3.254,-0.987 L 3.335,-0.663 L 3.384,-0.333 L 3.400,0.000 L 3.384,0.333 L 3.335,0.663 L 3.254,0.987 L 3.141,1.301 L 2.999,1.603 Z" fill="none" stroke="black" stroke-width="0.3"/>
<path d="M 11.500,11.500 L 18.000,11.500 L 18.000,18.000 L 11.500,18.000 L 11.500,11.500 Z" fill="none" stroke="black" stroke-width="0.3"/>
<path d="M 11.500,-11.500 L 11.500,-18.000 L 18.000,-18.000 L 18.000,-11.500 L 11.500,-11.500 Z" fill="none" stroke="black" stroke-width="0.3"/>
<path d="M -11.500,18.000 L -18.000,18.000 L -18.000,11.500 L -11.500,11.500 L -11.500,18.000 Z" fill="none" stroke="black" stroke-width="0.3"/>
<path d="M -11.500,-18.000 L -11.500,-11.500 L -18.000,-11.500 L -18.000,-18.000 L -11.500,-18.000 Z" fill="none" stroke="black" stroke-width="0.3"/>
<text x="0" y="23" font-size="2" text-anchor="middle" fill="#555">SolidPython2 - parametric (shapely)</text>
</svg>