<?xml version="1.0" encoding="UTF-8"?>
<svg xmlns="http://www.w3.org/2000/svg" viewBox="-25 -25 50 50" width="400" height="400">
  <path d="M -7.500,-3.951 L -7.500,-4.000 L -15.500,-7.000 L -15.510,-4.000 L -18.000,-4.000 L -18.196,-4.010 L -18.390,-4.038 L -18.581,-4.086 L -18.765,-4.152 L -18.943,-4.236 L -19.111,-4.337 L -19.269,-4.454 L -19.414,-4.586 L -19.546,-4.731 L -19.663,-4.889 L -19.764,-5.057 L -19.848,-5.235 L -19.914,-5.419 L -19.962,-5.610 L -19.990,-5.804 L -20.000,-6.000 L -20.000,-15.451 L -19.998,-15.549 L -19.983,-15.843 L -19.964,-16.038 L -19.928,-16.281 L -19.890,-16.473 L -19.830,-16.711 L -19.773,-16.899 L -19.691,-17.130 L -19.615,-17.311 L -19.511,-17.532 L -19.418,-17.706 L -19.292,-17.916 L -19.183,-18.079 L -19.037,-18.276 L -18.913,-18.428 L -18.748,-18.609 L -18.609,-18.748 L -18.428,-18.913 L -18.276,-19.037 L -18.079,-19.183 L -17.916,-19.292 L -17.706,-19.418 L -17.532,-19.511 L -17.311,-19.615 L -17.130,-19.691 L -16.899,-19.773 L -16.711,-19.830 L -16.473,-19.890 L -16.281,-19.928 L -16.038,-19.964 L -15.843,-19.983 L -15.549,-19.998 L -15.451,-20.000 L -6.000,-20.000 L -5.804,-19.990 L -5.610,-19.962 L -5.419,-19.914 L -5.235,-19.848 L -5.057,-19.764 L -4.889,-19.663 L -4.731,-19.546 L -4.586,-19.414 L -4.454,-19.269 L -4.337,-19.111 L -4.236,-18.943 L -4.152,-18.765 L -4.086,-18.581 L -4.038,-18.390 L -4.010,-18.196 L -4.000,-18.000 L -4.000,-15.510 L -7.000,-15.500 L -4.000,-7.500 L -3.951,-7.500 L 3.951,-7.500 L 4.000,-7.500 L 7.000,-15.500 L 4.000,-15.510 L 4.000,-18.000 L 4.010,-18.196 L 4.038,-18.390 L 4.086,-18.581 L 4.152,-18.765 L 4.236,-18.943 L 4.337,-19.111 L 4.454,-19.269 L 4.586,-19.414 L 4.731,-19.546 L 4.889,-19.663 L 5.057,-19.764 L 5.235,-19.848 L 5.419,-19.914 L 5.610,-19.962 L 5.804,-19.990 L 6.000,-20.000 L 15.451,-20.000 L 15.549,-19.998 L 15.843,-19.983 L 16.038,-19.964 L 16.281,-19.928 L 16.473,-19.890 L 16.711,-19.830 L 16.899,-19.773 L 17.130,-19.691 L 17.311,-19.615 L 17.532,-19.511 L 17.706,-19.418 L 17.916,-19.292 L 18.079,-19.183 L 18.276,-19.037 L 18.428,-18.913 L 18.609,-18.748 L 18.748,-18.609 L 18.913,-18.428 L 19.037,-18.276 L 19.183,-18.079 L 19.292,-17.916 L 19.418,-17.706 L 19.511,-17.532 L 19.615,-17.311 L 19.691,-17.130 L 19.773,-16.899 L 19.830,-16.711 L 19.890,-16.473 L 19.928,-16.281 L 19.964,-16.038 L 19.983,-15.843 L 19.998,-15.549 L 20.000,-15.451 L 20.000,-6.000 L 19.990,-5.804 L 19.962,-5.610 L 19.914,-5.419 L 19.848,-5.235 L 19.764,-5.057 L 19.663,-4.889 L 19.546,-4.731 L 19.414,-4.586 L 19.269,-4.454 L 19.111,-4.337 L 18.943,-4.236 L 18.765,-4.152 L 18.581,-4.086 L 18.390,-4.038 L 18.196,-4.010 L 18.000,-4.000 L 15.510,-4.000 L 15.500,-7.000 L 7.500,-4.000 L 7.500,-3.951 L 7.500,3.951 L 7.500,4.000 L 15.500,7.000 L 15.510,4.000 L 18.000,4.000 L 18.196,4.010 L 18.390,4.038 L 18.581,4.086 L 18.765,4.152 L 18.943,4.236 L 19.111,4.337 L 19.269,4.454 L 19.414,4.586 L 19.546,4.731 L 19.663,4.889 L 19.764,5.057 L 19.848,5.235 L 19.914,5.419 L 19.962,5.610 L 19.990,5.804 L 20.000,6.000 L 20.000,15.451 L 19.998,15.549 L 19.983,15.843 L 19.964,16.038 L 19.928,16.281 L 19.890,16.473 L 19.830,16.711 L 19.773,16.899 L 19.691,17.130 L 19.615,17.311 L 19.511,17.532 L 19.418,17.706 L 19.292,17.916 L 19.183,18.079 L 19.037,18.276 L 18.913,18.428 L 18.748,18.609 L 18.609,18.748 L 18.428,18.913 L 18.276,19.037 L 18.079,19.183 L 17.916,19.292 L 17.706,19.418 L 17.532,19.511 L 17.311,19.615 L 17.130,19.691 L 16.899,19.773 L 16.711,19.830 L 16.473,19.890 L 16.281,19.928 L 16.038,19.964 L 15.843,19.983 L 15.549,19.998 L 15.451,20.000 L 6.000,20.000 L 5.804,19.990 L 5.610,19.962 L 5.419,19.914 L 5.235,19.848 L 5.057,19.764 L 4.889,19.663 L 4.731,19.546 L 4.586,19.414 L 4.454,19.269 L 4.337,19.111 L 4.236,18.943 L 4.152,18.765 L 4.086,18.581 L 4.038,18.390 L 4.010,18.196 L 4.000,18.000 L 4.000,15.510 L 7.000,15.500 L 4.000,7.500 L 3.951,7.500 L -3.951,7.500 L -4.000,7.500 L -7.000,15.500 L -4.000,15.510 L -4.000,18.000 L -4.010,18.196 L -4.038,18.390 L -4.086,18.581 L -4.152,18.765 L -4.236,18.943 L -4.337,19.111 L -4.454,19.269 L -4.586,19.414 L -4.731,19.546 L -4.889,19.663 L -5.057,19.764 L -5.235,19.848 L -5.419,19.914 L -5.610,19.962 L -5.804,19.990 L -6.000,20.000 L -15.451,20.000 L -15.549,19.998 L -15.843,19.983 L -16.038,19.964 L -16.281,19.928 L -16.473,19.890 L -16.711,19.830 L -16.899,19.773 L -17.130,19.691 L -17.311,19.615 L -17.532,19.511 L -17.706,19.418 L -17.916,19.292 L -18.079,19.183 L -18.276,19.037 L -18.428,18.913 L -18.609,18.748 L -18.748,18.609 L -18.913,18.428 L -19.037,18.276 L -19.183,18.079 L -19.292,17.916 L -19.418,17.706 L -19.511,17.532 L -19.615,17.311 L -19.691,17.130 L -19.773,16.899 L -19.830,16.711 L -19.890,16.473 L -19.928,16.281 L -19.964,16.038 L -19.983,15.843 L -19.998,15.549 L -20.000,15.451 L -20.000,6.000 L -19.990,5.804 L -19.962,5.610 L -19.914,5.419 L -19.848,5.235 L -19.764,5.057 L -19.663,4.889 L -19.546,4.731 L -19.414,4.586 L -19.269,4.454 L -19.111,4.337 L -18.943,4.236 L -18.765,4.152 L -18.581,4.086 L -18.390,4.038 L -18.196,4.010 L -18.000,4.000 L -15.510,4.000 L -15.500,7.000 L -7.500,4.000 L -7.500,3.951 L -7.500,-3.951 Z M 3.399,-0.096 L 3.396,-0.155 L 3.395,-0.179 L 3.392,-0.238 L 3.390,-0.262 L 3.385,-0.321 L 3.382,-0.345 L 3.376,-0.404 L 3.373,-0.428 L 3.365,-0.487 L 3.361,-0.511 L 3.352,-0.569 L 3.348,-0.593 L 3.337,-0.651 L 3.332,-0.675 L 3.320,-0.733 L 3.315,-0.757 L 3.301,-0.814 L 3.295,-0.838 L 3.280,-0.895 L 3.273,-0.919 L 3.257,-0.975 L 3.250,-0.999 L 3.232,-1.055 L 3.224,-1.078 L 3.205,-1.134 L 3.197,-1.157 L 3.176,-1.212 L 3.168,-1.235 L 3.146,-1.290 L 3.136,-1.312 L 3.113,-1.367 L 3.103,-1.389 L 3.079,-1.443 L 3.068,-1.465 L 3.042,-1.518 L 3.031,-1.540 L 3.004,-1.592 L 2.993,-1.614 L 2.964,-1.665 L 2.952,-1.686 L 2.922,-1.737 L 2.910,-1.758 L 2.879,-1.809 L 2.866,-1.829 L 2.834,-1.879 L 2.820,-1.899 L 2.787,-1.948 L 2.773,-1.968 L 2.738,-2.015 L 2.723,-2.035 L 2.688,-2.082 L 2.673,-2.101 L 2.636,-2.147 L 2.620,-2.166 L 2.582,-2.211 L 2.566,-2.230 L 2.527,-2.274 L 2.511,-2.292 L 2.471,-2.335 L 2.454,-2.353 L 2.413,-2.395 L 2.395,-2.413 L 2.353,-2.454 L 2.335,-2.471 L 2.292,-2.511 L 2.274,-2.527 L 2.230,-2.566 L 2.211,-2.582 L 2.166,-2.620 L 2.147,-2.636 L 2.101,-2.673 L 2.082,-2.688 L 2.035,-2.723 L 2.015,-2.738 L 1.968,-2.773 L 1.948,-2.787 L 1.899,-2.820 L 1.879,-2.834 L 1.829,-2.866 L 1.809,-2.879 L 1.758,-2.910 L 1.737,-2.922 L 1.686,-2.952 L 1.665,-2.964 L 1.614,-2.993 L 1.592,-3.004 L 1.540,-3.031 L 1.518,-3.042 L 1.465,-3.068 L 1.443,-3.079 L 1.389,-3.103 L 1.367,-3.113 L 1.312,-3.136 L 1.290,-3.146 L 1.235,-3.168 L 1.212,-3.176 L 1.157,-3.197 L 1.134,-3.205 L 1.078,-3.224 L 1.055,-3.232 L 0.999,-3.250 L 0.975,-3.257 L 0.919,-3.273 L 0.895,-3.280 L 0.838,-3.295 L 0.814,-3.301 L 0.757,-3.315 L 0.733,-3.320 L 0.675,-3.332 L 0.651,-3.337 L 0.593,-3.348 L 0.569,-3.352 L 0.511,-3.361 L 0.487,-3.365 L 0.428,-3.373 L 0.404,-3.376 L 0.345,-3.382 L 0.321,-3.385 L 0.262,-3.390 L 0.238,-3.392 L 0.179,-3.395 L 0.155,-3.396 L 0.096,-3.399 L 0.071,-3.399 L 0.012,-3.400 L -0.012,-3.400 L -0.071,-3.399 L -0.096,-3.399 L -0.155,-3.396 L -0.179,-3.395 L -0.238,-3.392 L -0.262,-3.390 L -0.321,-3.385 L -0.345,-3.382 L -0.404,-3.376 L -0.428,-3.373 L -0.487,-3.365 L -0.511,-3.361 L -0.569,-3.352 L -0.593,-3.348 L -0.651,-3.337 L -0.675,-3.332 L -0.733,-3.320 L -0.757,-3.315 L -0.814,-3.301 L -0.838,-3.295 L -0.895,-3.280 L -0.919,-3.273 L -0.975,-3.257 L -0.999,-3.250 L -1.055,-3.232 L -1.078,-3.224 L -1.134,-3.205 L -1.157,-3.197 L -1.212,-3.176 L -1.235,-3.168 L -1.290,-3.146 L -1.312,-3.136 L -1.367,-3.113 L -1.389,-3.103 L -1.443,-3.079 L -1.465,-3.068 L -1.518,-3.042 L -1.540,-3.031 L -1.592,-3.004 L -1.614,-2.993 L -1.665,-2.964 L -1.686,-2.952 L -1.737,-2.922 L -1.758,-2.910 L -1.809,-2.879 L -1.829,-2.866 L -1.879,-2.834 L -1.899,-2.820 L -1.948,-2.787 L -1.968,-2.773 L -2.015,-2.738 L -2.035,-2.723 L -2.082,-2.688 L -2.101,-2.673 L -2.147,-2.636 L -2.166,-2.620 L -2.211,-2.582 L -2.230,-2.566 L -2.274,-2.527 L -2.292,-2.511 L -2.335,-2.471 L -2.353,-2.454 L -2.395,-2.413 L -2.413,-2.395 L -2.454,-2.353 L -2.471,-2.335 L -2.511,-2.292 L -2.527,-2.274 L -2.566,-2.230 L -2.582,-2.211 L -2.620,-2.166 L -2.636,-2.147 L -2.673,-2.101 L -2.688,-2.082 L -2.723,-2.035 L -2.738,-2.015 L -2.773,-1.968 L -2.787,-1.948 L -2.820,-1.899 L -2.834,-1.879 L -2.866,-1.829 L -2.879,-1.809 L -2.910,-1.758 L -2.922,-1.737 L -2.952,-1.686 L -2.964,-1.665 L -2.993,-1.614 L -3.004,-1.592 L -3.031,-1.540 L -3.042,-1.518 L -3.068,-1.465 L -3.079,-1.443 L -3.103,-1.389 L -3.113,-1.367 L -3.136,-1.312 L -3.146,-1.290 L -3.168,-1.235 L -3.176,-1.212 L -3.197,-1.157 L -3.205,-1.134 L -3.224,-1.078 L -3.232,-1.055 L -3.250,-0.999 L -3.257,-0.975 L -3.273,-0.919 L -3.280,-0.895 L -3.295,-0.838 L -3.301,-0.814 L -3.315,-0.757 L -3.320,-0.733 L -3.332,-0.675 L -3.337,-0.651 L -3.348,-0.593 L -3.352,-0.569 L -3.361,-0.511 L -3.365,-0.487 L -3.373,-0.428 L -3.376,-0.404 L -3.382,-0.345 L -3.385,-0.321 L -3.390,-0.262 L -3.392,-0.238 L -3.395,-0.179 L -3.396,-0.155 L -3.399,-0.096 L -3.399,-0.071 L -3.400,-0.012 L -3.400,0.012 L -3.399,0.071 L -3.399,0.096 L -3.396,0.155 L -3.395,0.179 L -3.392,0.238 L -3.390,0.262 L -3.385,0.321 L -3.382,0.345 L -3.376,0.404 L -3.373,0.428 L -3.365,0.487 L -3.361,0.511 L -3.352,0.569 L -3.348,0.593 L -3.337,0.651 L -3.332,0.675 L -3.320,0.733 L -3.315,0.757 L -3.301,0.814 L -3.295,0.838 L -3.280,0.895 L -3.273,0.919 L -3.257,0.975 L -3.250,0.999 L -3.232,1.055 L -3.224,1.078 L -3.205,1.134 L -3.197,1.157 L -3.176,1.212 L -3.168,1.235 L -3.146,1.290 L -3.136,1.312 L -3.113,1.367 L -3.103,1.389 L -3.079,1.443 L -3.068,1.465 L -3.042,1.518 L -3.031,1.540 L -3.004,1.592 L -2.993,1.614 L -2.964,1.665 L -2.952,1.686 L -2.922,1.737 L -2.910,1.758 L -2.879,1.809 L -2.866,1.829 L -2.834,1.879 L -2.820,1.899 L -2.787,1.948 L -2.773,1.968 L -2.738,2.015 L -2.723,2.035 L -2.688,2.082 L -2.673,2.101 L -2.636,2.147 L -2.620,2.166 L -2.582,2.211 L -2.566,2.230 L -2.527,2.274 L -2.511,2.292 L -2.471,2.335 L -2.454,2.353 L -2.413,2.395 L -2.395,2.413 L -2.353,2.454 L -2.335,2.471 L -2.292,2.511 L -2.274,2.527 L -2.230,2.566 L -2.211,2.582 L -2.166,2.620 L -2.147,2.636 L -2.101,2.673 L -2.082,2.688 L -2.035,2.723 L -2.015,2.738 L -1.968,2.773 L -1.948,2.787 L -1.899,2.820 L -1.879,2.834 L -1.829,2.866 L -1.809,2.879 L -1.758,2.910 L -1.737,2.922 L -1.686,2.952 L -1.665,2.964 L -1.614,2.993 L -1.592,3.004 L -1.540,3.031 L -1.518,3.042 L -1.465,3.068 L -1.443,3.079 L -1.389,3.103 L -1.367,3.113 L -1.312,3.136 L -1.290,3.146 L -1.235,3.168 L -1.212,3.176 L -1.157,3.197 L -1.134,3.205 L -1.078,3.224 L -1.055,3.232 L -0.999,3.250 L -0.975,3.257 L -0.919,3.273 L -0.895,3.280 L -0.838,3.295 L -0.814,3.301 L -0.757,3.315 L -0.733,3.320 L -0.675,3.332 L -0.651,3.337 L -0.593,3.348 L -0.569,3.352 L -0.511,3.361 L -0.487,3.365 L -0.428,3.373 L -0.404,3.376 L -0.345,3.382 L -0.321,3.385 L -0.262,3.390 L -0.238,3.392 L -0.179,3.395 L -0.155,3.396 L -0.096,3.399 L -0.071,3.399 L -0.012,3.400 L 0.012,3.400 L 0.071,3.399 L 0.096,3.399 L 0.155,3.396 L 0.179,3.395 L 0.238,3.392 L 0.262,3.390 L 0.321,3.385 L 0.345,3.382 L 0.404,3.376 L 0.428,3.373 L 0.487,3.365 L 0.511,3.361 L 0.569,3.352 L 0.593,3.348 L 0.651,3.337 L 0.675,3.332 L 0.733,3.320 L 0.757,3.315 L 0.814,3.301 L 0.838,3.295 L 0.895,3.280 L 0.919,3.273 L 0.975,3.257 L 0.999,3.250 L 1.055,3.232 L 1.078,3.224 L 1.134,3.205 L 1.157,3.197 L 1.212,3.176 L 1.235,3.168 L 1.290,3.146 L 1.312,3.136 L 1.367,3.113 L 1.389,3.103 L 1.443,3.079 L 1.465,3.068 L 1.518,3.042 L 1.540,3.031 L 1.592,3.004 L 1.614,2.993 L 1.665,2.964 L 1.686,2.952 L 1.737,2.922 L 1.758,2.910 L 1.809,2.879 L 1.829,2.866 L 1.879,2.834 L 1.899,2.820 L 1.948,2.787 L 1.968,2.773 L 2.015,2.738 L 2.035,2.723 L 2.082,2.688 L 2.101,2.673 L 2.147,2.636 L 2.166,2.620 L 2.211,2.582 L 2.230,2.566 L 2.274,2.527 L 2.292,2.511 L 2.335,2.471 L 2.353,2.454 L 2.395,2.413 L 2.413,2.395 L 2.454,2.353 L 2.471,2.335 L 2.511,2.292 L 2.527,2.274 L 2.566,2.230 L 2.582,2.211 L 2.620,2.166 L 2.636,2.147 L 2.673,2.101 L 2.688,2.082 L 2.723,2.035 L 2.738,2.015 L 2.773,1.968 L 2.787,1.948 L 2.820,1.899 L 2.834,1.879 L 2.866,1.829 L 2.879,1.809 L 2.910,1.758 L 2.922,1.737 L 2.952,1.686 L 2.964,1.665 L 2.993,1.614 L 3.004,1.592 L 3.031,1.540 L 3.042,1.518 L 3.068,1.465 L 3.079,1.443 L 3.103,1.389 L 3.113,1.367 L 3.136,1.312 L 3.146,1.290 L 3.168,1.235 L 3.176,1.212 L 3.197,1.157 L 3.205,1.134 L 3.224,1.078 L 3.232,1.055 L 3.250,0.999 L 3.257,0.975 L 3.273,0.919 L 3.280,0.895 L 3.295,0.838 L 3.301,0.814 L 3.315,0.757 L 3.320,0.733 L 3.332,0.675 L 3.337,0.651 L 3.348,0.593 L 3.352,0.569 L 3.361,0.511 L 3.365,0.487 L 3.373,0.428 L 3.376,0.404 L 3.382,0.345 L 3.385,0.321 L 3.390,0.262 L 3.392,0.238 L 3.395,0.179 L 3.396,0.155 L 3.399,0.096 L 3.399,0.071 L 3.400,0.012 L 3.400,-0.012 L 3.399,-0.071 L 3.399,-0.096 Z" fill="none" stroke="red" stroke-width="0.2" fill-rule="evenodd"/>
  <circle cx="4.00" cy="-7.50" r="0.3" fill="blue"/>
  <text x="4.70" y="-8.20" font-size="1.1" font-family="sans-serif" fill="blue">A</text>
  <circle cx="4.00" cy="-20.00" r="0.3" fill="blue"/>
  <text x="4.70" y="-20.70" font-size="1.1" font-family="sans-serif" fill="blue">B</text>
  <circle cx="4.00" cy="-15.50" r="0.3" fill="blue"/>
  <text x="4.70" y="-16.20" font-size="1.1" font-family="sans-serif" fill="blue">C</text>
  <circle cx="7.00" cy="-15.50" r="0.3" fill="blue"/>
  <text x="7.70" y="-16.20" font-size="1.1" font-family="sans-serif" fill="blue">E</text>
</svg>