<?xml version="1.0" encoding="UTF-8"?>
<svg xmlns="http://www.w3.org/2000/svg" viewBox="-25 -25 50 50" width="400" height="400">
  <rect x="-25" y="-25" width="50" height="50" fill="white"/>
  <path d="M -15.6968,-4.4043 L -15.7117,-4.3848 L -15.7270,-4.3656 L -15.7428,-4.3468 L -15.7590,-4.3284 L -15.7758,-4.3105 L -15.7929,-4.2929 L -15.8105,-4.2758 L -15.8284,-4.2590 L -15.8468,-4.2428 L -15.8656,-4.2270 L -15.8848,-4.2117 L -15.9043,-4.1968 L -15.9242,-4.1824 L -15.9444,-4.1685 L -15.9650,-4.1551 L -15.9859,-4.1423 L -16.0071,-4.1299 L -16.0286,-4.1181 L -16.0504,-4.1068 L -16.0724,-4.0960 L -16.0948,-4.0858 L -16.1173,-4.0761 L -16.1401,-4.0670 L -16.1631,-4.0585 L -16.1863,-4.0505 L -16.2097,-4.0431 L -16.2333,-4.0362 L -16.2570,-4.0300 L -16.2809,-4.0243 L -16.3049,-4.0192 L -16.3290,-4.0147 L -16.3533,-4.0108 L -16.3776,-4.0075 L -16.4020,-4.0048 L -16.4264,-4.0027 L -16.4509,-4.0012 L -16.4755,-4.0003 L -16.5000,-4.0000 L -18.0000,-4.0000 L -18.1960,-4.0096 L -18.3902,-4.0384 L -18.5806,-4.0861 L -18.7654,-4.1522 L -18.9428,-4.2362 L -19.1111,-4.3371 L -19.2688,-4.4540 L -19.4142,-4.5858 L -19.5460,-4.7312 L -19.6629,-4.8889 L -19.7638,-5.0572 L -19.8478,-5.2346 L -19.9139,-5.4194 L -19.9616,-5.6098 L -19.9904,-5.8040 L -20.0000,-6.0000 L -20.0000,-15.4509 L -19.9976,-15.5490 L -19.9832,-15.8429 L -19.9639,-16.0383 L -19.9280,-16.2807 L -19.8897,-16.4732 L -19.8301,-16.7110 L -19.7731,-16.8988 L -19.6906,-17.1296 L -19.6154,-17.3109 L -19.5107,-17.5325 L -19.4181,-17.7056 L -19.2921,-17.9158 L -19.1831,-18.0790 L -19.0371,-18.2759 L -18.9126,-18.4276 L -18.7480,-18.6092 L -18.6092,-18.7480 L -18.4276,-18.9126 L -18.2759,-19.0371 L -18.0790,-19.1831 L -17.9158,-19.2921 L -17.7056,-19.4181 L -17.5325,-19.5107 L -17.3109,-19.6154 L -17.1296,-19.6906 L -16.8988,-19.7731 L -16.7110,-19.8301 L -16.4732,-19.8897 L -16.2807,-19.9280 L -16.0383,-19.9639 L -15.8429,-19.9832 L -15.5490,-19.9976 L -15.4509,-20.0000 L -6.0000,-20.0000 L -5.8040,-19.9904 L -5.6098,-19.9616 L -5.4194,-19.9139 L -5.2346,-19.8478 L -5.0572,-19.7638 L -4.8889,-19.6629 L -4.7312,-19.5460 L -4.5858,-19.4142 L -4.4540,-19.2688 L -4.3371,-19.1111 L -4.2362,-18.9428 L -4.1522,-18.7654 L -4.0861,-18.5806 L -4.0384,-18.3902 L -4.0096,-18.1960 L -4.0000,-18.0000 L -4.0000,-16.5000 L -4.0003,-16.4755 L -4.0012,-16.4509 L -4.0027,-16.4264 L -4.0048,-16.4020 L -4.0075,-16.3776 L -4.0108,-16.3533 L -4.0147,-16.3290 L -4.0192,-16.3049 L -4.0243,-16.2809 L -4.0300,-16.2570 L -4.0362,-16.2333 L -4.0431,-16.2097 L -4.0505,-16.1863 L -4.0585,-16.1631 L -4.0670,-16.1401 L -4.0761,-16.1173 L -4.0858,-16.0948 L -4.0960,-16.0724 L -4.1068,-16.0504 L -4.1181,-16.0286 L -4.1299,-16.0071 L -4.1423,-15.9859 L -4.1551,-15.9650 L -4.1685,-15.9444 L -4.1824,-15.9242 L -4.1968,-15.9043 L -4.2117,-15.8848 L -4.2270,-15.8656 L -4.2428,-15.8468 L -4.2590,-15.8284 L -4.2758,-15.8105 L -4.2929,-15.7929 L -4.3105,-15.7758 L -4.3284,-15.7590 L -4.3468,-15.7428 L -4.3656,-15.7270 L -4.3848,-15.7117 L -4.4043,-15.6968 L -4.4242,-15.6824 L -4.4444,-15.6685 L -4.4650,-15.6551 L -4.4859,-15.6423 L -4.5071,-15.6299 L -4.5286,-15.6181 L -4.5504,-15.6068 L -4.5724,-15.5960 L -4.5948,-15.5858 L -4.6173,-15.5761 L -4.6401,-15.5670 L -4.6631,-15.5585 L -4.6863,-15.5505 L -4.7097,-15.5431 L -4.7333,-15.5362 L -4.7570,-15.5300 L -4.7809,-15.5243 L -4.8049,-15.5192 L -4.8290,-15.5147 L -4.8533,-15.5108 L -4.8776,-15.5075 L -4.8817,-15.5071 L -7.0000,-15.5000 L -4.0000,-7.5000 L -3.9509,-7.5000 L 3.9509,-7.5000 L 4.0000,-7.5000 L 7.0000,-15.5000 L 4.8817,-15.5071 L 4.8776,-15.5075 L 4.8533,-15.5108 L 4.8290,-15.5147 L 4.8049,-15.5192 L 4.7809,-15.5243 L 4.7570,-15.5300 L 4.7333,-15.5362 L 4.7097,-15.5431 L 4.6863,-15.5505 L 4.6631,-15.5585 L 4.6401,-15.5670 L 4.6173,-15.5761 L 4.5948,-15.5858 L 4.5724,-15.5960 L 4.5504,-15.6068 L 4.5286,-15.6181 L 4.5071,-15.6299 L 4.4859,-15.6423 L 4.4650,-15.6551 L 4.4444,-15.6685 L 4.4242,-15.6824 L 4.4043,-15.6968 L 4.3848,-15.7117 L 4.3656,-15.7270 L 4.3468,-15.7428 L 4.3284,-15.7590 L 4.3105,-15.7758 L 4.2929,-15.7929 L 4.2758,-15.8105 L 4.2590,-15.8284 L 4.2428,-15.8468 L 4.2270,-15.8656 L 4.2117,-15.8848 L 4.1968,-15.9043 L 4.1824,-15.9242 L 4.1685,-15.9444 L 4.1551,-15.9650 L 4.1423,-15.9859 L 4.1299,-16.0071 L 4.1181,-16.0286 L 4.1068,-16.0504 L 4.0960,-16.0724 L 4.0858,-16.0948 L 4.0761,-16.1173 L 4.0670,-16.1401 L 4.0585,-16.1631 L 4.0505,-16.1863 L 4.0431,-16.2097 L 4.0362,-16.2333 L 4.0300,-16.2570 L 4.0243,-16.2809 L 4.0192,-16.3049 L 4.0147,-16.3290 L 4.0108,-16.3533 L 4.0075,-16.3776 L 4.0048,-16.4020 L 4.0027,-16.4264 L 4.0012,-16.4509 L 4.0003,-16.4755 L 4.0000,-16.5000 L 4.0000,-18.0000 L 4.0096,-18.1960 L 4.0384,-18.3902 L 4.0861,-18.5806 L 4.1522,-18.7654 L 4.2362,-18.9428 L 4.3371,-19.1111 L 4.4540,-19.2688 L 4.5858,-19.4142 L 4.7312,-19.5460 L 4.8889,-19.6629 L 5.0572,-19.7638 L 5.2346,-19.8478 L 5.4194,-19.9139 L 5.6098,-19.9616 L 5.8040,-19.9904 L 6.0000,-20.0000 L 15.4509,-20.0000 L 15.5490,-19.9976 L 15.8429,-19.9832 L 16.0383,-19.9639 L 16.2807,-19.9280 L 16.4732,-19.8897 L 16.7110,-19.8301 L 16.8988,-19.7731 L 17.1296,-19.6906 L 17.3109,-19.6154 L 17.5325,-19.5107 L 17.7056,-19.4181 L 17.9158,-19.2921 L 18.0790,-19.1831 L 18.2759,-19.0371 L 18.4276,-18.9126 L 18.6092,-18.7480 L 18.7480,-18.6092 L 18.9126,-18.4276 L 19.0371,-18.2759 L 19.1831,-18.0790 L 19.2921,-17.9158 L 19.4181,-17.7056 L 19.5107,-17.5325 L 19.6154,-17.3109 L 19.6906,-17.1296 L 19.7731,-16.8988 L 19.8301,-16.7110 L 19.8897,-16.4732 L 19.9280,-16.2807 L 19.9639,-16.0383 L 19.9832,-15.8429 L 19.9976,-15.5490 L 20.0000,-15.4509 L 20.0000,-6.0000 L 19.9904,-5.8040 L 19.9616,-5.6098 L 19.9139,-5.4194 L 19.8478,-5.2346 L 19.7638,-5.0572 L 19.6629,-4.8889 L 19.5460,-4.7312 L 19.4142,-4.5858 L 19.2688,-4.4540 L 19.1111,-4.3371 L 18.9428,-4.2362 L 18.7654,-4.1522 L 18.5806,-4.0861 L 18.3902,-4.0384 L 18.1960,-4.0096 L 18.0000,-4.0000 L 16.5000,-4.0000 L 16.4755,-4.0003 L 16.4509,-4.0012 L 16.4264,-4.0027 L 16.4020,-4.0048 L 16.3776,-4.0075 L 16.3533,-4.0108 L 16.3290,-4.0147 L 16.3049,-4.0192 L 16.2809,-4.0243 L 16.2570,-4.0300 L 16.2333,-4.0362 L 16.2097,-4.0431 L 16.1863,-4.0505 L 16.1631,-4.0585 L 16.1401,-4.0670 L 16.1173,-4.0761 L 16.0948,-4.0858 L 16.0724,-4.0960 L 16.0504,-4.1068 L 16.0286,-4.1181 L 16.0071,-4.1299 L 15.9859,-4.1423 L 15.9650,-4.1551 L 15.9444,-4.1685 L 15.9242,-4.1824 L 15.9043,-4.1968 L 15.8848,-4.2117 L 15.8656,-4.2270 L 15.8468,-4.2428 L 15.8284,-4.2590 L 15.8105,-4.2758 L 15.7929,-4.2929 L 15.7758,-4.3105 L 15.7590,-4.3284 L 15.7428,-4.3468 L 15.7270,-4.3656 L 15.7117,-4.3848 L 15.6968,-4.4043 L 15.6824,-4.4242 L 15.6685,-4.4444 L 15.6551,-4.4650 L 15.6423,-4.4859 L 15.6299,-4.5071 L 15.6181,-4.5286 L 15.6068,-4.5504 L 15.5960,-4.5724 L 15.5858,-4.5948 L 15.5761,-4.6173 L 15.5670,-4.6401 L 15.5585,-4.6631 L 15.5505,-4.6863 L 15.5431,-4.7097 L 15.5362,-4.7333 L 15.5300,-4.7570 L 15.5243,-4.7809 L 15.5192,-4.8049 L 15.5147,-4.8290 L 15.5108,-4.8533 L 15.5075,-4.8776 L 15.5071,-4.8817 L 15.5000,-7.0000 L 7.5000,-4.0000 L 7.5000,-3.9509 L 7.5000,3.9509 L 7.5000,4.0000 L 15.5000,7.0000 L 15.5071,4.8817 L 15.5075,4.8776 L 15.5108,4.8533 L 15.5147,4.8290 L 15.5192,4.8049 L 15.5243,4.7809 L 15.5300,4.7570 L 15.5362,4.7333 L 15.5431,4.7097 L 15.5505,4.6863 L 15.5585,4.6631 L 15.5670,4.6401 L 15.5761,4.6173 L 15.5858,4.5948 L 15.5960,4.5724 L 15.6068,4.5504 L 15.6181,4.5286 L 15.6299,4.5071 L 15.6423,4.4859 L 15.6551,4.4650 L 15.6685,4.4444 L 15.6824,4.4242 L 15.6968,4.4043 L 15.7117,4.3848 L 15.7270,4.3656 L 15.7428,4.3468 L 15.7590,4.3284 L 15.7758,4.3105 L 15.7929,4.2929 L 15.8105,4.2758 L 15.8284,4.2590 L 15.8468,4.2428 L 15.8656,4.2270 L 15.8848,4.2117 L 15.9043,4.1968 L 15.9242,4.1824 L 15.9444,4.1685 L 15.9650,4.1551 L 15.9859,4.1423 L 16.0071,4.1299 L 16.0286,4.1181 L 16.0504,4.1068 L 16.0724,4.0960 L 16.0948,4.0858 L 16.1173,4.0761 L 16.1401,4.0670 L 16.1631,4.0585 L 16.1863,4.0505 L 16.2097,4.0431 L 16.2333,4.0362 L 16.2570,4.0300 L 16.2809,4.0243 L 16.3049,4.0192 L 16.3290,4.0147 L 16.3533,4.0108 L 16.3776,4.0075 L 16.4020,4.0048 L 16.4264,4.0027 L 16.4509,4.0012 L 16.4755,4.0003 L 16.5000,4.0000 L 18.0000,4.0000 L 18.1960,4.0096 L 18.3902,4.0384 L 18.5806,4.0861 L 18.7654,4.1522 L 18.9428,4.2362 L 19.1111,4.3371 L 19.2688,4.4540 L 19.4142,4.5858 L 19.5460,4.7312 L 19.6629,4.8889 L 19.7638,5.0572 L 19.8478,5.2346 L 19.9139,5.4194 L 19.9616,5.6098 L 19.9904,5.8040 L 20.0000,6.0000 L 20.0000,15.4509 L 19.9976,15.5490 L 19.9832,15.8429 L 19.9639,16.0383 L 19.9280,16.2807 L 19.8897,16.4732 L 19.8301,16.7110 L 19.7731,16.8988 L 19.6906,17.1296 L 19.6154,17.3109 L 19.5107,17.5325 L 19.4181,17.7056 L 19.2921,17.9158 L 19.1831,18.0790 L 19.0371,18.2759 L 18.9126,18.4276 L 18.7480,18.6092 L 18.6092,18.7480 L 18.4276,18.9126 L 18.2759,19.0371 L 18.0790,19.1831 L 17.9158,19.2921 L 17.7056,19.4181 L 17.5325,19.5107 L 17.3109,19.6154 L 17.1296,19.6906 L 16.8988,19.7731 L 16.7110,19.8301 L 16.4732,19.8897 L 16.2807,19.9280 L 16.0383,19.9639 L 15.8429,19.9832 L 15.5490,19.9976 L 15.4509,20.0000 L 6.0000,20.0000 L 5.8040,19.9904 L 5.6098,19.9616 L 5.4194,19.9139 L 5.2346,19.8478 L 5.0572,19.7638 L 4.8889,19.6629 L 4.7312,19.5460 L 4.5858,19.4142 L 4.4540,19.2688 L 4.3371,19.1111 L 4.2362,18.9428 L 4.1522,18.7654 L 4.0861,18.5806 L 4.0384,18.3902 L 4.0096,18.1960 L 4.0000,18.0000 L 4.0000,16.5000 L 4.0003,16.4755 L 4.0012,16.4509 L 4.0027,16.4264 L 4.0048,16.4020 L 4.0075,16.3776 L 4.0108,16.3533 L 4.0147,16.3290 L 4.0192,16.3049 L 4.0243,16.2809 L 4.0300,16.2570 L 4.0362,16.2333 L 4.0431,16.2097 L 4.0505,16.1863 L 4.0585,16.1631 L 4.0670,16.1401 L 4.0761,16.1173 L 4.0858,16.0948 L 4.0960,16.0724 L 4.1068,16.0504 L 4.1181,16.0286 L 4.1299,16.0071 L 4.1423,15.9859 L 4.1551,15.9650 L 4.1685,15.9444 L 4.1824,15.9242 L 4.1968,15.9043 L 4.2117,15.8848 L 4.2270,15.8656 L 4.2428,15.8468 L 4.2590,15.8284 L 4.2758,15.8105 L 4.2929,15.7929 L 4.3105,15.7758 L 4.3284,15.7590 L 4.3468,15.7428 L 4.3656,15.7270 L 4.3848,15.7117 L 4.4043,15.6968 L 4.4242,15.6824 L 4.4444,15.6685 L 4.4650,15.6551 L 4.4859,15.6423 L 4.5071,15.6299 L 4.5286,15.6181 L 4.5504,15.6068 L 4.5724,15.5960 L 4.5948,15.5858 L 4.6173,15.5761 L 4.6401,15.5670 L 4.6631,15.5585 L 4.6863,15.5505 L 4.7097,15.5431 L 4.7333,15.5362 L 4.7570,15.5300 L 4.7809,15.5243 L 4.8049,15.5192 L 4.8290,15.5147 L 4.8533,15.5108 L 4.8776,15.5075 L 4.8817,15.5071 L 7.0000,15.5000 L 4.0000,7.5000 L 3.9509,7.5000 L -3.9509,7.5000 L -4.0000,7.5000 L -7.0000,15.5000 L -4.8817,15.5071 L -4.8776,15.5075 L -4.8533,15.5108 L -4.8290,15.5147 L -4.8049,15.5192 L -4.7809,15.5243 L -4.7570,15.5300 L -4.7333,15.5362 L -4.7097,15.5431 L -4.6863,15.5505 L -4.6631,15.5585 L -4.6401,15.5670 L -4.6173,15.5761 L -4.5948,15.5858 L -4.5724,15.5960 L -4.5504,15.6068 L -4.5286,15.6181 L -4.5071,15.6299 L -4.4859,15.6423 L -4.4650,15.6551 L -4.4444,15.6685 L -4.4242,15.6824 L -4.4043,15.6968 L -4.3848,15.7117 L -4.3656,15.7270 L -4.3468,15.7428 L -4.3284,15.7590 L -4.3105,15.7758 L -4.2929,15.7929 L -4.2758,15.8105 L -4.2590,15.8284 L -4.2428,15.8468 L -4.2270,15.8656 L -4.2117,15.8848 L -4.1968,15.9043 L -4.1824,15.9242 L -4.1685,15.9444 L -4.1551,15.9650 L -4.1423,15.9859 L -4.1299,16.0071 L -4.1181,16.0286 L -4.1068,16.0504 L -4.0960,16.0724 L -4.0858,16.0948 L -4.0761,16.1173 L -4.0670,16.1401 L -4.0585,16.1631 L -4.0505,16.1863 L -4.0431,16.2097 L -4.0362,16.2333 L -4.0300,16.2570 L -4.0243,16.2809 L -4.0192,16.3049 L -4.0147,16.3290 L -4.0108,16.3533 L -4.0075,16.3776 L -4.0048,16.4020 L -4.0027,16.4264 L -4.0012,16.4509 L -4.0003,16.4755 L -4.0000,16.5000 L -4.0000,18.0000 L -4.0096,18.1960 L -4.0384,18.3902 L -4.0861,18.5806 L -4.1522,18.7654 L -4.2362,18.9428 L -4.3371,19.1111 L -4.4540,19.2688 L -4.5858,19.4142 L -4.7312,19.5460 L -4.8889,19.6629 L -5.0572,19.7638 L -5.2346,19.8478 L -5.4194,19.9139 L -5.6098,19.9616 L -5.8040,19.9904 L -6.0000,20.0000 L -15.4509,20.0000 L -15.5490,19.9976 L -15.8429,19.9832 L -16.0383,19.9639 L -16.2807,19.9280 L -16.4732,19.8897 L -16.7110,19.8301 L -16.8988,19.7731 L -17.1296,19.6906 L -17.3109,19.6154 L -17.5325,19.5107 L -17.7056,19.4181 L -17.9158,19.2921 L -18.0790,19.1831 L -18.2759,19.0371 L -18.4276,18.9126 L -18.6092,18.7480 L -18.7480,18.6092 L -18.9126,18.4276 L -19.0371,18.2759 L -19.1831,18.0790 L -19.2921,17.9158 L -19.4181,17.7056 L -19.5107,17.5325 L -19.6154,17.3109 L -19.6906,17.1296 L -19.7731,16.8988 L -19.8301,16.7110 L -19.8897,16.4732 L -19.9280,16.2807 L -19.9639,16.0383 L -19.9832,15.8429 L -19.9976,15.5490 L -20.0000,15.4509 L -20.0000,6.0000 L -19.9904,5.8040 L -19.9616,5.6098 L -19.9139,5.4194 L -19.8478,5.2346 L -19.7638,5.0572 L -19.6629,4.8889 L -19.5460,4.7312 L -19.4142,4.5858 L -19.2688,4.4540 L -19.1111,4.3371 L -18.9428,4.2362 L -18.7654,4.1522 L -18.5806,4.0861 L -18.3902,4.0384 L -18.1960,4.0096 L -18.0000,4.0000 L -16.5000,4.0000 L -16.4755,4.0003 L -16.4509,4.0012 L -16.4264,4.0027 L -16.4020,4.0048 L -16.3776,4.0075 L -16.3533,4.0108 L -16.3290,4.0147 L -16.3049,4.0192 L -16.2809,4.0243 L -16.2570,4.0300 L -16.2333,4.0362 L -16.2097,4.0431 L -16.1863,4.0505 L -16.1631,4.0585 L -16.1401,4.0670 L -16.1173,4.0761 L -16.0948,4.0858 L -16.0724,4.0960 L -16.0504,4.1068 L -16.0286,4.1181 L -16.0071,4.1299 L -15.9859,4.1423 L -15.9650,4.1551 L -15.9444,4.1685 L -15.9242,4.1824 L -15.9043,4.1968 L -15.8848,4.2117 L -15.8656,4.2270 L -15.8468,4.2428 L -15.8284,4.2590 L -15.8105,4.2758 L -15.7929,4.2929 L -15.7758,4.3105 L -15.7590,4.3284 L -15.7428,4.3468 L -15.7270,4.3656 L -15.7117,4.3848 L -15.6968,4.4043 L -15.6824,4.4242 L -15.6685,4.4444 L -15.6551,4.4650 L -15.6423,4.4859 L -15.6299,4.5071 L -15.6181,4.5286 L -15.6068,4.5504 L -15.5960,4.5724 L -15.5858,4.5948 L -15.5761,4.6173 L -15.5670,4.6401 L -15.5585,4.6631 L -15.5505,4.6863 L -15.5431,4.7097 L -15.5362,4.7333 L -15.5300,4.7570 L -15.5243,4.7809 L -15.5192,4.8049 L -15.5147,4.8290 L -15.5108,4.8533 L -15.5075,4.8776 L -15.5071,4.8817 L -15.5000,7.0000 L -7.5000,4.0000 L -7.5000,3.9509 L -7.5000,-3.9509 L -7.5000,-4.0000 L -15.5000,-7.0000 L -15.5071,-4.8817 L -15.5075,-4.8776 L -15.5108,-4.8533 L -15.5147,-4.8290 L -15.5192,-4.8049 L -15.5243,-4.7809 L -15.5300,-4.7570 L -15.5362,-4.7333 L -15.5431,-4.7097 L -15.5505,-4.6863 L -15.5585,-4.6631 L -15.5670,-4.6401 L -15.5761,-4.6173 L -15.5858,-4.5948 L -15.5960,-4.5724 L -15.6068,-4.5504 L -15.6181,-4.5286 L -15.6299,-4.5071 L -15.6423,-4.4859 L -15.6551,-4.4650 L -15.6685,-4.4444 L -15.6824,-4.4242 L -15.6968,-4.4043 Z M -7.5000,-15.5000 L -7.4877,-15.4998 L -7.4755,-15.4994 L -7.4632,-15.4986 L -7.4510,-15.4976 L -7.4388,-15.4962 L -7.4266,-15.4946 L -7.4145,-15.4926 L -7.4025,-15.4904 L -7.3904,-15.4879 L -7.3785,-15.4850 L -7.3666,-15.4819 L -7.3549,-15.4785 L -7.3432,-15.4748 L -7.3316,-15.4708 L -7.3201,-15.4665 L -7.3087,-15.4619 L -7.2974,-15.4571 L -7.2862,-15.4520 L -7.2752,-15.4466 L -7.2643,-15.4410 L -7.2536,-15.4350 L -7.2429,-15.4289 L -7.2325,-15.4224 L -7.2222,-15.4157 L -7.2121,-15.4088 L -7.2022,-15.4016 L -7.1924,-15.3942 L -7.1828,-15.3865 L -7.1734,-15.3786 L -7.1642,-15.3705 L -7.1552,-15.3621 L -7.1464,-15.3536 L -7.1379,-15.3448 L -7.1295,-15.3358 L -7.1214,-15.3266 L -7.1135,-15.3172 L -7.1058,-15.3076 L -7.0984,-15.2978 L -7.0912,-15.2879 L -7.0843,-15.2778 L -7.0776,-15.2675 L -7.0711,-15.2571 L -7.0650,-15.2464 L -7.0590,-15.2357 L -7.0534,-15.2248 L -7.0480,-15.2138 L -7.0429,-15.2026 L -7.0381,-15.1913 L -7.0335,-15.1799 L -7.0292,-15.1684 L -7.0252,-15.1568 L -7.0215,-15.1451 L -7.0181,-15.1334 L -7.0150,-15.1215 L -7.0121,-15.1096 L -7.0096,-15.0975 L -7.0074,-15.0855 L -7.0054,-15.0734 L -7.0038,-15.0612 L -7.0024,-15.0490 L -7.0014,-15.0368 L -7.0006,-15.0245 L -7.0002,-15.0123 L -7.0000,-15.0000 L -7.0000,-15.5000 L -7.5000,-15.5000 Z M 7.0000,-15.0000 L 7.0002,-15.0123 L 7.0006,-15.0245 L 7.0014,-15.0368 L 7.0024,-15.0490 L 7.0038,-15.0612 L 7.0054,-15.0734 L 7.0074,-15.0855 L 7.0096,-15.0975 L 7.0121,-15.1096 L 7.0150,-15.1215 L 7.0181,-15.1334 L 7.0215,-15.1451 L 7.0252,-15.1568 L 7.0292,-15.1684 L 7.0335,-15.1799 L 7.0381,-15.1913 L 7.0429,-15.2026 L 7.0480,-15.2138 L 7.0534,-15.2248 L 7.0590,-15.2357 L 7.0650,-15.2464 L 7.0711,-15.2571 L 7.0776,-15.2675 L 7.0843,-15.2778 L 7.0912,-15.2879 L 7.0984,-15.2978 L 7.1058,-15.3076 L 7.1135,-15.3172 L 7.1214,-15.3266 L 7.1295,-15.3358 L 7.1379,-15.3448 L 7.1464,-15.3536 L 7.1552,-15.3621 L 7.1642,-15.3705 L 7.1734,-15.3786 L 7.1828,-15.3865 L 7.1924,-15.3942 L 7.2022,-15.4016 L 7.2121,-15.4088 L 7.2222,-15.4157 L 7.2325,-15.4224 L 7.2429,-15.4289 L 7.2536,-15.4350 L 7.2643,-15.4410 L 7.2752,-15.4466 L 7.2862,-15.4520 L 7.2974,-15.4571 L 7.3087,-15.4619 L 7.3201,-15.4665 L 7.3316,-15.4708 L 7.3432,-15.4748 L 7.3549,-15.4785 L 7.3666,-15.4819 L 7.3785,-15.4850 L 7.3904,-15.4879 L 7.4025,-15.4904 L 7.4145,-15.4926 L 7.4266,-15.4946 L 7.4388,-15.4962 L 7.4510,-15.4976 L 7.4632,-15.4986 L 7.4755,-15.4994 L 7.4877,-15.4998 L 7.5000,-15.5000 L 7.0000,-15.5000 L 7.0000,-15.0000 Z M 15.5000,-7.5000 L 15.4998,-7.4877 L 15.4994,-7.4755 L 15.4986,-7.4632 L 15.4976,-7.4510 L 15.4962,-7.4388 L 15.4946,-7.4266 L 15.4926,-7.4145 L 15.4904,-7.4025 L 15.4879,-7.3904 L 15.4850,-7.3785 L 15.4819,-7.3666 L 15.4785,-7.3549 L 15.4748,-7.3432 L 15.4708,-7.3316 L 15.4665,-7.3201 L 15.4619,-7.3087 L 15.4571,-7.2974 L 15.4520,-7.2862 L 15.4466,-7.2752 L 15.4410,-7.2643 L 15.4350,-7.2536 L 15.4289,-7.2429 L 15.4224,-7.2325 L 15.4157,-7.2222 L 15.4088,-7.2121 L 15.4016,-7.2022 L 15.3942,-7.1924 L 15.3865,-7.1828 L 15.3786,-7.1734 L 15.3705,-7.1642 L 15.3621,-7.1552 L 15.3536,-7.1464 L 15.3448,-7.1379 L 15.3358,-7.1295 L 15.3266,-7.1214 L 15.3172,-7.1135 L 15.3076,-7.1058 L 15.2978,-7.0984 L 15.2879,-7.0912 L 15.2778,-7.0843 L 15.2675,-7.0776 L 15.2571,-7.0711 L 15.2464,-7.0650 L 15.2357,-7.0590 L 15.2248,-7.0534 L 15.2138,-7.0480 L 15.2026,-7.0429 L 15.1913,-7.0381 L 15.1799,-7.0335 L 15.1684,-7.0292 L 15.1568,-7.0252 L 15.1451,-7.0215 L 15.1334,-7.0181 L 15.1215,-7.0150 L 15.1096,-7.0121 L 15.0975,-7.0096 L 15.0855,-7.0074 L 15.0734,-7.0054 L 15.0612,-7.0038 L 15.0490,-7.0024 L 15.0368,-7.0014 L 15.0245,-7.0006 L 15.0123,-7.0002 L 15.0000,-7.0000 L 15.5000,-7.0000 L 15.5000,-7.5000 Z M 15.0000,7.0000 L 15.0123,7.0002 L 15.0245,7.0006 L 15.0368,7.0014 L 15.0490,7.0024 L 15.0612,7.0038 L 15.0734,7.0054 L 15.0855,7.0074 L 15.0975,7.0096 L 15.1096,7.0121 L 15.1215,7.0150 L 15.1334,7.0181 L 15.1451,7.0215 L 15.1568,7.0252 L 15.1684,7.0292 L 15.1799,7.0335 L 15.1913,7.0381 L 15.2026,7.0429 L 15.2138,7.0480 L 15.2248,7.0534 L 15.2357,7.0590 L 15.2464,7.0650 L 15.2571,7.0711 L 15.2675,7.0776 L 15.2778,7.0843 L 15.2879,7.0912 L 15.2978,7.0984 L 15.3076,7.1058 L 15.3172,7.1135 L 15.3266,7.1214 L 15.3358,7.1295 L 15.3448,7.1379 L 15.3536,7.1464 L 15.3621,7.1552 L 15.3705,7.1642 L 15.3786,7.1734 L 15.3865,7.1828 L 15.3942,7.1924 L 15.4016,7.2022 L 15.4088,7.2121 L 15.4157,7.2222 L 15.4224,7.2325 L 15.4289,7.2429 L 15.4350,7.2536 L 15.4410,7.2643 L 15.4466,7.2752 L 15.4520,7.2862 L 15.4571,7.2974 L 15.4619,7.3087 L 15.4665,7.3201 L 15.4708,7.3316 L 15.4748,7.3432 L 15.4785,7.3549 L 15.4819,7.3666 L 15.4850,7.3785 L 15.4879,7.3904 L 15.4904,7.4025 L 15.4926,7.4145 L 15.4946,7.4266 L 15.4962,7.4388 L 15.4976,7.4510 L 15.4986,7.4632 L 15.4994,7.4755 L 15.4998,7.4877 L 15.5000,7.5000 L 15.5000,7.0000 L 15.0000,7.0000 Z M 7.5000,15.5000 L 7.4877,15.4998 L 7.4755,15.4994 L 7.4632,15.4986 L 7.4510,15.4976 L 7.4388,15.4962 L 7.4266,15.4946 L 7.4145,15.4926 L 7.4025,15.4904 L 7.3904,15.4879 L 7.3785,15.4850 L 7.3666,15.4819 L 7.3549,15.4785 L 7.3432,15.4748 L 7.3316,15.4708 L 7.3201,15.4665 L 7.3087,15.4619 L 7.2974,15.4571 L 7.2862,15.4520 L 7.2752,15.4466 L 7.2643,15.4410 L 7.2536,15.4350 L 7.2429,15.4289 L 7.2325,15.4224 L 7.2222,15.4157 L 7.2121,15.4088 L 7.2022,15.4016 L 7.1924,15.3942 L 7.1828,15.3865 L 7.1734,15.3786 L 7.1642,15.3705 L 7.1552,15.3621 L 7.1464,15.3536 L 7.1379,15.3448 L 7.1295,15.3358 L 7.1214,15.3266 L 7.1135,15.3172 L 7.1058,15.3076 L 7.0984,15.2978 L 7.0912,15.2879 L 7.0843,15.2778 L 7.0776,15.2675 L 7.0711,15.2571 L 7.0650,15.2464 L 7.0590,15.2357 L 7.0534,15.2248 L 7.0480,15.2138 L 7.0429,15.2026 L 7.0381,15.1913 L 7.0335,15.1799 L 7.0292,15.1684 L 7.0252,15.1568 L 7.0215,15.1451 L 7.0181,15.1334 L 7.0150,15.1215 L 7.0121,15.1096 L 7.0096,15.0975 L 7.0074,15.0855 L 7.0054,15.0734 L 7.0038,15.0612 L 7.0024,15.0490 L 7.0014,15.0368 L 7.0006,15.0245 L 7.0002,15.0123 L 7.0000,15.0000 L 7.0000,15.5000 L 7.5000,15.5000 Z M -7.0000,15.0000 L -7.0002,15.0123 L -7.0006,15.0245 L -7.0014,15.0368 L -7.0024,15.0490 L -7.0038,15.0612 L -7.0054,15.0734 L -7.0074,15.0855 L -7.0096,15.0975 L -7.0121,15.1096 L -7.0150,15.1215 L -7.0181,15.1334 L -7.0215,15.1451 L -7.0252,15.1568 L -7.0292,15.1684 L -7.0335,15.1799 L -7.0381,15.1913 L -7.0429,15.2026 L -7.0480,15.2138 L -7.0534,15.2248 L -7.0590,15.2357 L -7.0650,15.2464 L -7.0711,15.2571 L -7.0776,15.2675 L -7.0843,15.2778 L -7.0912,15.2879 L -7.0984,15.2978 L -7.1058,15.3076 L -7.1135,15.3172 L -7.1214,15.3266 L -7.1295,15.3358 L -7.1379,15.3448 L -7.1464,15.3536 L -7.1552,15.3621 L -7.1642,15.3705 L -7.1734,15.3786 L -7.1828,15.3865 L -7.1924,15.3942 L -7.2022,15.4016 L -7.2121,15.4088 L -7.2222,15.4157 L -7.2325,15.4224 L -7.2429,15.4289 L -7.2536,15.4350 L -7.2643,15.4410 L -7.2752,15.4466 L -7.2862,15.4520 L -7.2974,15.4571 L -7.3087,15.4619 L -7.3201,15.4665 L -7.3316,15.4708 L -7.3432,15.4748 L -7.3549,15.4785 L -7.3666,15.4819 L -7.3785,15.4850 L -7.3904,15.4879 L -7.4025,15.4904 L -7.4145,15.4926 L -7.4266,15.4946 L -7.4388,15.4962 L -7.4510,15.4976 L -7.4632,15.4986 L -7.4755,15.4994 L -7.4877,15.4998 L -7.5000,15.5000 L -7.0000,15.5000 L -7.0000,15.0000 Z M -15.5000,7.5000 L -15.4998,7.4877 L -15.4994,7.4755 L -15.4986,7.4632 L -15.4976,7.4510 L -15.4962,7.4388 L -15.4946,7.4266 L -15.4926,7.4145 L -15.4904,7.4025 L -15.4879,7.3904 L -15.4850,7.3785 L -15.4819,7.3666 L -15.4785,7.3549 L -15.4748,7.3432 L -15.4708,7.3316 L -15.4665,7.3201 L -15.4619,7.3087 L -15.4571,7.2974 L -15.4520,7.2862 L -15.4466,7.2752 L -15.4410,7.2643 L -15.4350,7.2536 L -15.4289,7.2429 L -15.4224,7.2325 L -15.4157,7.2222 L -15.4088,7.2121 L -15.4016,7.2022 L -15.3942,7.1924 L -15.3865,7.1828 L -15.3786,7.1734 L -15.3705,7.1642 L -15.3621,7.1552 L -15.3536,7.1464 L -15.3448,7.1379 L -15.3358,7.1295 L -15.3266,7.1214 L -15.3172,7.1135 L -15.3076,7.1058 L -15.2978,7.0984 L -15.2879,7.0912 L -15.2778,7.0843 L -15.2675,7.0776 L -15.2571,7.0711 L -15.2464,7.0650 L -15.2357,7.0590 L -15.2248,7.0534 L -15.2138,7.0480 L -15.2026,7.0429 L -15.1913,7.0381 L -15.1799,7.0335 L -15.1684,7.0292 L -15.1568,7.0252 L -15.1451,7.0215 L -15.1334,7.0181 L -15.1215,7.0150 L -15.1096,7.0121 L -15.0975,7.0096 L -15.0855,7.0074 L -15.0734,7.0054 L -15.0612,7.0038 L -15.0490,7.0024 L -15.0368,7.0014 L -15.0245,7.0006 L -15.0123,7.0002 L -15.0000,7.0000 L -15.5000,7.0000 L -15.5000,7.5000 Z M -15.0000,-7.0000 L -15.0123,-7.0002 L -15.0245,-7.0006 L -15.0368,-7.0014 L -15.0490,-7.0024 L -15.0612,-7.0038 L -15.0734,-7.0054 L -15.0855,-7.0074 L -15.0975,-7.0096 L -15.1096,-7.0121 L -15.1215,-7.0150 L -15.1334,-7.0181 L -15.1451,-7.0215 L -15.1568,-7.0252 L -15.1684,-7.0292 L -15.1799,-7.0335 L -15.1913,-7.0381 L -15.2026,-7.0429 L -15.2138,-7.0480 L -15.2248,-7.0534 L -15.2357,-7.0590 L -15.2464,-7.0650 L -15.2571,-7.0711 L -15.2675,-7.0776 L -15.2778,-7.0843 L -15.2879,-7.0912 L -15.2978,-7.0984 L -15.3076,-7.1058 L -15.3172,-7.1135 L -15.3266,-7.1214 L -15.3358,-7.1295 L -15.3448,-7.1379 L -15.3536,-7.1464 L -15.3621,-7.1552 L -15.3705,-7.1642 L -15.3786,-7.1734 L -15.3865,-7.1828 L -15.3942,-7.1924 L -15.4016,-7.2022 L -15.4088,-7.2121 L -15.4157,-7.2222 L -15.4224,-7.2325 L -15.4289,-7.2429 L -15.4350,-7.2536 L -15.4410,-7.2643 L -15.4466,-7.2752 L -15.4520,-7.2862 L -15.4571,-7.2974 L -15.4619,-7.3087 L -15.4665,-7.3201 L -15.4708,-7.3316 L -15.4748,-7.3432 L -15.4785,-7.3549 L -15.4819,-7.3666 L -15.4850,-7.3785 L -15.4879,-7.3904 L -15.4904,-7.4025 L -15.4926,-7.4145 L -15.4946,-7.4266 L -15.4962,-7.4388 L -15.4976,-7.4510 L -15.4986,-7.4632 L -15.4994,-7.4755 L -15.4998,-7.4877 L -15.5000,-7.5000 L -15.5000,-7.0000 L -15.0000,-7.0000 Z M 3.2052,-1.1338 L 3.1970,-1.1569 L 3.1765,-1.2121 L 3.1676,-1.2350 L 3.1457,-1.2897 L 3.1364,-1.3124 L 3.1131,-1.3665 L 3.1032,-1.3890 L 3.0787,-1.4425 L 3.0682,-1.4647 L 3.0423,-1.5176 L 3.0313,-1.5396 L 3.0042,-1.5919 L 2.9926,-1.6135 L 2.9642,-1.6651 L 2.9521,-1.6865 L 2.9225,-1.7373 L 2.9098,-1.7584 L 2.8789,-1.8085 L 2.8658,-1.8293 L 2.8337,-1.8787 L 2.8201,-1.8991 L 2.7867,-1.9476 L 2.7726,-1.9677 L 2.7381,-2.0154 L 2.7235,-2.0351 L 2.6878,-2.0820 L 2.6727,-2.1014 L 2.6359,-2.1474 L 2.6203,-2.1663 L 2.5824,-2.2114 L 2.5664,-2.2300 L 2.5274,-2.2741 L 2.5109,-2.2923 L 2.4708,-2.3354 L 2.4539,-2.3532 L 2.4127,-2.3954 L 2.3954,-2.4127 L 2.3532,-2.4539 L 2.3354,-2.4708 L 2.2923,-2.5109 L 2.2741,-2.5274 L 2.2300,-2.5664 L 2.2114,-2.5824 L 2.1663,-2.6203 L 2.1474,-2.6359 L 2.1014,-2.6727 L 2.0820,-2.6878 L 2.0351,-2.7235 L 2.0154,-2.7381 L 1.9677,-2.7726 L 1.9476,-2.7867 L 1.8991,-2.8201 L 1.8787,-2.8337 L 1.8293,-2.8658 L 1.8085,-2.8789 L 1.7584,-2.9098 L 1.7373,-2.9225 L 1.6865,-2.9521 L 1.6651,-2.9642 L 1.6135,-2.9926 L 1.5919,-3.0042 L 1.5396,-3.0313 L 1.5176,-3.0423 L 1.4647,-3.0682 L 1.4425,-3.0787 L 1.3890,-3.1032 L 1.3665,-3.1131 L 1.3124,-3.1364 L 1.2897,-3.1457 L 1.2350,-3.1676 L 1.2121,-3.1765 L 1.1569,-3.1970 L 1.1338,-3.2052 L 1.0781,-3.2244 L 1.0548,-3.2321 L 0.9987,-3.2499 L 0.9752,-3.2570 L 0.9186,-3.2734 L 0.8950,-3.2800 L 0.8380,-3.2950 L 0.8142,-3.3009 L 0.7569,-3.3146 L 0.7329,-3.3199 L 0.6753,-3.3321 L 0.6512,-3.3369 L 0.5933,-3.3477 L 0.5692,-3.3519 L 0.5110,-3.3613 L 0.4867,-3.3649 L 0.4284,-3.3728 L 0.4040,-3.3758 L 0.3455,-3.3823 L 0.3210,-3.3847 L 0.2623,-3.3897 L 0.2379,-3.3915 L 0.1791,-3.3952 L 0.1546,-3.3964 L 0.0957,-3.3985 L 0.0712,-3.3991 L 0.0123,-3.3998 L -0.0123,-3.3998 L -0.0712,-3.3991 L -0.0957,-3.3985 L -0.1546,-3.3964 L -0.1791,-3.3952 L -0.2379,-3.3915 L -0.2623,-3.3897 L -0.3210,-3.3847 L -0.3455,-3.3823 L -0.4040,-3.3758 L -0.4284,-3.3728 L -0.4867,-3.3649 L -0.5110,-3.3613 L -0.5692,-3.3519 L -0.5933,-3.3477 L -0.6512,-3.3369 L -0.6753,-3.3321 L -0.7329,-3.3199 L -0.7569,-3.3146 L -0.8142,-3.3009 L -0.8380,-3.2950 L -0.8950,-3.2800 L -0.9186,-3.2734 L -0.9752,-3.2570 L -0.9987,-3.2499 L -1.0548,-3.2321 L -1.0781,-3.2244 L -1.1338,-3.2052 L -1.1569,-3.1970 L -1.2121,-3.1765 L -1.2350,-3.1676 L -1.2897,-3.1457 L -1.3124,-3.1364 L -1.3665,-3.1131 L -1.3890,-3.1032 L -1.4425,-3.0787 L -1.4647,-3.0682 L -1.5176,-3.0423 L -1.5396,-3.0313 L -1.5919,-3.0042 L -1.6135,-2.9926 L -1.6651,-2.9642 L -1.6865,-2.9521 L -1.7373,-2.9225 L -1.7584,-2.9098 L -1.8085,-2.8789 L -1.8293,-2.8658 L -1.8787,-2.8337 L -1.8991,-2.8201 L -1.9476,-2.7867 L -1.9677,-2.7726 L -2.0154,-2.7381 L -2.0351,-2.7235 L -2.0820,-2.6878 L -2.1014,-2.6727 L -2.1474,-2.6359 L -2.1663,-2.6203 L -2.2114,-2.5824 L -2.2300,-2.5664 L -2.2741,-2.5274 L -2.2923,-2.5109 L -2.3354,-2.4708 L -2.3532,-2.4539 L -2.3954,-2.4127 L -2.4127,-2.3954 L -2.4539,-2.3532 L -2.4708,-2.3354 L -2.5109,-2.2923 L -2.5274,-2.2741 L -2.5664,-2.2300 L -2.5824,-2.2114 L -2.6203,-2.1663 L -2.6359,-2.1474 L -2.6727,-2.1014 L -2.6878,-2.0820 L -2.7235,-2.0351 L -2.7381,-2.0154 L -2.7726,-1.9677 L -2.7867,-1.9476 L -2.8201,-1.8991 L -2.8337,-1.8787 L -2.8658,-1.8293 L -2.8789,-1.8085 L -2.9098,-1.7584 L -2.9225,-1.7373 L -2.9521,-1.6865 L -2.9642,-1.6651 L -2.9926,-1.6135 L -3.0042,-1.5919 L -3.0313,-1.5396 L -3.0423,-1.5176 L -3.0682,-1.4647 L -3.0787,-1.4425 L -3.1032,-1.3890 L -3.1131,-1.3665 L -3.1364,-1.3124 L -3.1457,-1.2897 L -3.1676,-1.2350 L -3.1765,-1.2121 L -3.1970,-1.1569 L -3.2052,-1.1338 L -3.2244,-1.0781 L -3.2321,-1.0548 L -3.2499,-0.9987 L -3.2570,-0.9752 L -3.2734,-0.9186 L -3.2800,-0.8950 L -3.2950,-0.8380 L -3.3009,-0.8142 L -3.3146,-0.7569 L -3.3199,-0.7329 L -3.3321,-0.6753 L -3.3369,-0.6512 L -3.3477,-0.5933 L -3.3519,-0.5692 L -3.3613,-0.5110 L -3.3649,-0.4867 L -3.3728,-0.4284 L -3.3758,-0.4040 L -3.3823,-0.3455 L -3.3847,-0.3210 L -3.3897,-0.2623 L -3.3915,-0.2379 L -3.3952,-0.1791 L -3.3964,-0.1546 L -3.3985,-0.0957 L -3.3991,-0.0712 L -3.3998,-0.0123 L -3.3998,0.0123 L -3.3991,0.0712 L -3.3985,0.0957 L -3.3964,0.1546 L -3.3952,0.1791 L -3.3915,0.2379 L -3.3897,0.2623 L -3.3847,0.3210 L -3.3823,0.3455 L -3.3758,0.4040 L -3.3728,0.4284 L -3.3649,0.4867 L -3.3613,0.5110 L -3.3519,0.5692 L -3.3477,0.5933 L -3.3369,0.6512 L -3.3321,0.6753 L -3.3199,0.7329 L -3.3146,0.7569 L -3.3009,0.8142 L -3.2950,0.8380 L -3.2800,0.8950 L -3.2734,0.9186 L -3.2570,0.9752 L -3.2499,0.9987 L -3.2321,1.0548 L -3.2244,1.0781 L -3.2052,1.1338 L -3.1970,1.1569 L -3.1765,1.2121 L -3.1676,1.2350 L -3.1457,1.2897 L -3.1364,1.3124 L -3.1131,1.3665 L -3.1032,1.3890 L -3.0787,1.4425 L -3.0682,1.4647 L -3.0423,1.5176 L -3.0313,1.5396 L -3.0042,1.5919 L -2.9926,1.6135 L -2.9642,1.6651 L -2.9521,1.6865 L -2.9225,1.7373 L -2.9098,1.7584 L -2.8789,1.8085 L -2.8658,1.8293 L -2.8337,1.8787 L -2.8201,1.8991 L -2.7867,1.9476 L -2.7726,1.9677 L -2.7381,2.0154 L -2.7235,2.0351 L -2.6878,2.0820 L -2.6727,2.1014 L -2.6359,2.1474 L -2.6203,2.1663 L -2.5824,2.2114 L -2.5664,2.2300 L -2.5274,2.2741 L -2.5109,2.2923 L -2.4708,2.3354 L -2.4539,2.3532 L -2.4127,2.3954 L -2.3954,2.4127 L -2.3532,2.4539 L -2.3354,2.4708 L -2.2923,2.5109 L -2.2741,2.5274 L -2.2300,2.5664 L -2.2114,2.5824 L -2.1663,2.6203 L -2.1474,2.6359 L -2.1014,2.6727 L -2.0820,2.6878 L -2.0351,2.7235 L -2.0154,2.7381 L -1.9677,2.7726 L -1.9476,2.7867 L -1.8991,2.8201 L -1.8787,2.8337 L -1.8293,2.8658 L -1.8085,2.8789 L -1.7584,2.9098 L -1.7373,2.9225 L -1.6865,2.9521 L -1.6651,2.9642 L -1.6135,2.9926 L -1.5919,3.0042 L -1.5396,3.0313 L -1.5176,3.0423 L -1.4647,3.0682 L -1.4425,3.0787 L -1.3890,3.1032 L -1.3665,3.1131 L -1.3124,3.1364 L -1.2897,3.1457 L -1.2350,3.1676 L -1.2121,3.1765 L -1.1569,3.1970 L -1.1338,3.2052 L -1.0781,3.2244 L -1.0548,3.2321 L -0.9987,3.2499 L -0.9752,3.2570 L -0.9186,3.2734 L -0.8950,3.2800 L -0.8380,3.2950 L -0.8142,3.3009 L -0.7569,3.3146 L -0.7329,3.3199 L -0.6753,3.3321 L -0.6512,3.3369 L -0.5933,3.3477 L -0.5692,3.3519 L -0.5110,3.3613 L -0.4867,3.3649 L -0.4284,3.3728 L -0.4040,3.3758 L -0.3455,3.3823 L -0.3210,3.3847 L -0.2623,3.3897 L -0.2379,3.3915 L -0.1791,3.3952 L -0.1546,3.3964 L -0.0957,3.3985 L -0.0712,3.3991 L -0.0123,3.3998 L 0.0123,3.3998 L 0.0712,3.3991 L 0.0957,3.3985 L 0.1546,3.3964 L 0.1791,3.3952 L 0.2379,3.3915 L 0.2623,3.3897 L 0.3210,3.3847 L 0.3455,3.3823 L 0.4040,3.3758 L 0.4284,3.3728 L 0.4867,3.3649 L 0.5110,3.3613 L 0.5692,3.3519 L 0.5933,3.3477 L 0.6512,3.3369 L 0.6753,3.3321 L 0.7329,3.3199 L 0.7569,3.3146 L 0.8142,3.3009 L 0.8380,3.2950 L 0.8950,3.2800 L 0.9186,3.2734 L 0.9752,3.2570 L 0.9987,3.2499 L 1.0548,3.2321 L 1.0781,3.2244 L 1.1338,3.2052 L 1.1569,3.1970 L 1.2121,3.1765 L 1.2350,3.1676 L 1.2897,3.1457 L 1.3124,3.1364 L 1.3665,3.1131 L 1.3890,3.1032 L 1.4425,3.0787 L 1.4647,3.0682 L 1.5176,3.0423 L 1.5396,3.0313 L 1.5919,3.0042 L 1.6135,2.9926 L 1.6651,2.9642 L 1.6865,2.9521 L 1.7373,2.9225 L 1.7584,2.9098 L 1.8085,2.8789 L 1.8293,2.8658 L 1.8787,2.8337 L 1.8991,2.8201 L 1.9476,2.7867 L 1.9677,2.7726 L 2.0154,2.7381 L 2.0351,2.7235 L 2.0820,2.6878 L 2.1014,2.6727 L 2.1474,2.6359 L 2.1663,2.6203 L 2.2114,2.5824 L 2.2300,2.5664 L 2.2741,2.5274 L 2.2923,2.5109 L 2.3354,2.4708 L 2.3532,2.4539 L 2.3954,2.4127 L 2.4127,2.3954 L 2.4539,2.3532 L 2.4708,2.3354 L 2.5109,2.2923 L 2.5274,2.2741 L 2.5664,2.2300 L 2.5824,2.2114 L 2.6203,2.1663 L 2.6359,2.1474 L 2.6727,2.1014 L 2.6878,2.0820 L 2.7235,2.0351 L 2.7381,2.0154 L 2.7726,1.9677 L 2.7867,1.9476 L 2.8201,1.8991 L 2.8337,1.8787 L 2.8658,1.8293 L 2.8789,1.8085 L 2.9098,1.7584 L 2.9225,1.7373 L 2.9521,1.6865 L 2.9642,1.6651 L 2.9926,1.6135 L 3.0042,1.5919 L 3.0313,1.5396 L 3.0423,1.5176 L 3.0682,1.4647 L 3.0787,1.4425 L 3.1032,1.3890 L 3.1131,1.3665 L 3.1364,1.3124 L 3.1457,1.2897 L 3.1676,1.2350 L 3.1765,1.2121 L 3.1970,1.1569 L 3.2052,1.1338 L 3.2244,1.0781 L 3.2321,1.0548 L 3.2499,0.9987 L 3.2570,0.9752 L 3.2734,0.9186 L 3.2800,0.8950 L 3.2950,0.8380 L 3.3009,0.8142 L 3.3146,0.7569 L 3.3199,0.7329 L 3.3321,0.6753 L 3.3369,0.6512 L 3.3477,0.5933 L 3.3519,0.5692 L 3.3613,0.5110 L 3.3649,0.4867 L 3.3728,0.4284 L 3.3758,0.4040 L 3.3823,0.3455 L 3.3847,0.3210 L 3.3897,0.2623 L 3.3915,0.2379 L 3.3952,0.1791 L 3.3964,0.1546 L 3.3985,0.0957 L 3.3991,0.0712 L 3.3998,0.0123 L 3.3998,-0.0123 L 3.3991,-0.0712 L 3.3985,-0.0957 L 3.3964,-0.1546 L 3.3952,-0.1791 L 3.3915,-0.2379 L 3.3897,-0.2623 L 3.3847,-0.3210 L 3.3823,-0.3455 L 3.3758,-0.4040 L 3.3728,-0.4284 L 3.3649,-0.4867 L 3.3613,-0.5110 L 3.3519,-0.5692 L 3.3477,-0.5933 L 3.3369,-0.6512 L 3.3321,-0.6753 L 3.3199,-0.7329 L 3.3146,-0.7569 L 3.3009,-0.8142 L 3.2950,-0.8380 L 3.2800,-0.8950 L 3.2734,-0.9186 L 3.2570,-0.9752 L 3.2499,-0.9987 L 3.2321,-1.0548 L 3.2244,-1.0781 L 3.2052,-1.1338 Z M 7.4025,-18.0096 L 7.3904,-18.0121 L 7.3785,-18.0150 L 7.3666,-18.0181 L 7.3549,-18.0215 L 7.3432,-18.0252 L 7.3316,-18.0292 L 7.3201,-18.0335 L 7.3087,-18.0381 L 7.2974,-18.0429 L 7.2862,-18.0480 L 7.2752,-18.0534 L 7.2643,-18.0590 L 7.2536,-18.0650 L 7.2429,-18.0711 L 7.2325,-18.0776 L 7.2222,-18.0843 L 7.2121,-18.0912 L 7.2022,-18.0984 L 7.1924,-18.1058 L 7.1828,-18.1135 L 7.1734,-18.1214 L 7.1642,-18.1295 L 7.1552,-18.1379 L 7.1464,-18.1464 L 7.1379,-18.1552 L 7.1295,-18.1642 L 7.1214,-18.1734 L 7.1135,-18.1828 L 7.1058,-18.1924 L 7.0984,-18.2022 L 7.0912,-18.2121 L 7.0843,-18.2222 L 7.0776,-18.2325 L 7.0711,-18.2429 L 7.0650,-18.2536 L 7.0590,-18.2643 L 7.0534,-18.2752 L 7.0480,-18.2862 L 7.0429,-18.2974 L 7.0381,-18.3087 L 7.0335,-18.3201 L 7.0292,-18.3316 L 7.0252,-18.3432 L 7.0215,-18.3549 L 7.0181,-18.3666 L 7.0150,-18.3785 L 7.0121,-18.3904 L 7.0096,-18.4025 L 7.0074,-18.4145 L 7.0054,-18.4266 L 7.0038,-18.4388 L 7.0024,-18.4510 L 7.0014,-18.4632 L 7.0006,-18.4755 L 7.0002,-18.4877 L 7.0000,-18.5000 L 7.0000,-18.0000 L 7.5000,-18.0000 L 7.4877,-18.0002 L 7.4755,-18.0006 L 7.4632,-18.0014 L 7.4510,-18.0024 L 7.4388,-18.0038 L 7.4266,-18.0054 L 7.4145,-18.0074 L 7.4025,-18.0096 Z M -7.0074,-18.4145 L -7.0096,-18.4025 L -7.0121,-18.3904 L -7.0150,-18.3785 L -7.0181,-18.3666 L -7.0215,-18.3549 L -7.0252,-18.3432 L -7.0292,-18.3316 L -7.0335,-18.3201 L -7.0381,-18.3087 L -7.0429,-18.2974 L -7.0480,-18.2862 L -7.0534,-18.2752 L -7.0590,-18.2643 L -7.0650,-18.2536 L -7.0711,-18.2429 L -7.0776,-18.2325 L -7.0843,-18.2222 L -7.0912,-18.2121 L -7.0984,-18.2022 L -7.1058,-18.1924 L -7.1135,-18.1828 L -7.1214,-18.1734 L -7.1295,-18.1642 L -7.1379,-18.1552 L -7.1464,-18.1464 L -7.1552,-18.1379 L -7.1642,-18.1295 L -7.1734,-18.1214 L -7.1828,-18.1135 L -7.1924,-18.1058 L -7.2022,-18.0984 L -7.2121,-18.0912 L -7.2222,-18.0843 L -7.2325,-18.0776 L -7.2429,-18.0711 L -7.2536,-18.0650 L -7.2643,-18.0590 L -7.2752,-18.0534 L -7.2862,-18.0480 L -7.2974,-18.0429 L -7.3087,-18.0381 L -7.3201,-18.0335 L -7.3316,-18.0292 L -7.3432,-18.0252 L -7.3549,-18.0215 L -7.3666,-18.0181 L -7.3785,-18.0150 L -7.3904,-18.0121 L -7.4025,-18.0096 L -7.4145,-18.0074 L -7.4266,-18.0054 L -7.4388,-18.0038 L -7.4510,-18.0024 L -7.4632,-18.0014 L -7.4755,-18.0006 L -7.4877,-18.0002 L -7.5000,-18.0000 L -7.0000,-18.0000 L -7.0000,-18.5000 L -7.0002,-18.4877 L -7.0006,-18.4755 L -7.0014,-18.4632 L -7.0024,-18.4510 L -7.0038,-18.4388 L -7.0054,-18.4266 L -7.0074,-18.4145 Z M -18.0054,-7.4266 L -18.0074,-7.4145 L -18.0096,-7.4025 L -18.0121,-7.3904 L -18.0150,-7.3785 L -18.0181,-7.3666 L -18.0215,-7.3549 L -18.0252,-7.3432 L -18.0292,-7.3316 L -18.0335,-7.3201 L -18.0381,-7.3087 L -18.0429,-7.2974 L -18.0480,-7.2862 L -18.0534,-7.2752 L -18.0590,-7.2643 L -18.0650,-7.2536 L -18.0711,-7.2429 L -18.0776,-7.2325 L -18.0843,-7.2222 L -18.0912,-7.2121 L -18.0984,-7.2022 L -18.1058,-7.1924 L -18.1135,-7.1828 L -18.1214,-7.1734 L -18.1295,-7.1642 L -18.1379,-7.1552 L -18.1464,-7.1464 L -18.1552,-7.1379 L -18.1642,-7.1295 L -18.1734,-7.1214 L -18.1828,-7.1135 L -18.1924,-7.1058 L -18.2022,-7.0984 L -18.2121,-7.0912 L -18.2222,-7.0843 L -18.2325,-7.0776 L -18.2429,-7.0711 L -18.2536,-7.0650 L -18.2643,-7.0590 L -18.2752,-7.0534 L -18.2862,-7.0480 L -18.2974,-7.0429 L -18.3087,-7.0381 L -18.3201,-7.0335 L -18.3316,-7.0292 L -18.3432,-7.0252 L -18.3549,-7.0215 L -18.3666,-7.0181 L -18.3785,-7.0150 L -18.3904,-7.0121 L -18.4025,-7.0096 L -18.4145,-7.0074 L -18.4266,-7.0054 L -18.4388,-7.0038 L -18.4510,-7.0024 L -18.4632,-7.0014 L -18.4755,-7.0006 L -18.4877,-7.0002 L -18.5000,-7.0000 L -18.0000,-7.0000 L -18.0000,-7.5000 L -18.0002,-7.4877 L -18.0006,-7.4755 L -18.0014,-7.4632 L -18.0024,-7.4510 L -18.0038,-7.4388 L -18.0054,-7.4266 Z M -18.4388,7.0038 L -18.4266,7.0054 L -18.4145,7.0074 L -18.4025,7.0096 L -18.3904,7.0121 L -18.3785,7.0150 L -18.3666,7.0181 L -18.3549,7.0215 L -18.3432,7.0252 L -18.3316,7.0292 L -18.3201,7.0335 L -18.3087,7.0381 L -18.2974,7.0429 L -18.2862,7.0480 L -18.2752,7.0534 L -18.2643,7.0590 L -18.2536,7.0650 L -18.2429,7.0711 L -18.2325,7.0776 L -18.2222,7.0843 L -18.2121,7.0912 L -18.2022,7.0984 L -18.1924,7.1058 L -18.1828,7.1135 L -18.1734,7.1214 L -18.1642,7.1295 L -18.1552,7.1379 L -18.1464,7.1464 L -18.1379,7.1552 L -18.1295,7.1642 L -18.1214,7.1734 L -18.1135,7.1828 L -18.1058,7.1924 L -18.0984,7.2022 L -18.0912,7.2121 L -18.0843,7.2222 L -18.0776,7.2325 L -18.0711,7.2429 L -18.0650,7.2536 L -18.0590,7.2643 L -18.0534,7.2752 L -18.0480,7.2862 L -18.0429,7.2974 L -18.0381,7.3087 L -18.0335,7.3201 L -18.0292,7.3316 L -18.0252,7.3432 L -18.0215,7.3549 L -18.0181,7.3666 L -18.0150,7.3785 L -18.0121,7.3904 L -18.0096,7.4025 L -18.0074,7.4145 L -18.0054,7.4266 L -18.0038,7.4388 L -18.0024,7.4510 L -18.0014,7.4632 L -18.0006,7.4755 L -18.0002,7.4877 L -18.0000,7.5000 L -18.0000,7.0000 L -18.5000,7.0000 L -18.4877,7.0002 L -18.4755,7.0006 L -18.4632,7.0014 L -18.4510,7.0024 L -18.4388,7.0038 Z M -7.4510,18.0024 L -7.4388,18.0038 L -7.4266,18.0054 L -7.4145,18.0074 L -7.4025,18.0096 L -7.3904,18.0121 L -7.3785,18.0150 L -7.3666,18.0181 L -7.3549,18.0215 L -7.3432,18.0252 L -7.3316,18.0292 L -7.3201,18.0335 L -7.3087,18.0381 L -7.2974,18.0429 L -7.2862,18.0480 L -7.2752,18.0534 L -7.2643,18.0590 L -7.2536,18.0650 L -7.2429,18.0711 L -7.2325,18.0776 L -7.2222,18.0843 L -7.2121,18.0912 L -7.2022,18.0984 L -7.1924,18.1058 L -7.1828,18.1135 L -7.1734,18.1214 L -7.1642,18.1295 L -7.1552,18.1379 L -7.1464,18.1464 L -7.1379,18.1552 L -7.1295,18.1642 L -7.1214,18.1734 L -7.1135,18.1828 L -7.1058,18.1924 L -7.0984,18.2022 L -7.0912,18.2121 L -7.0843,18.2222 L -7.0776,18.2325 L -7.0711,18.2429 L -7.0650,18.2536 L -7.0590,18.2643 L -7.0534,18.2752 L -7.0480,18.2862 L -7.0429,18.2974 L -7.0381,18.3087 L -7.0335,18.3201 L -7.0292,18.3316 L -7.0252,18.3432 L -7.0215,18.3549 L -7.0181,18.3666 L -7.0150,18.3785 L -7.0121,18.3904 L -7.0096,18.4025 L -7.0074,18.4145 L -7.0054,18.4266 L -7.0038,18.4388 L -7.0024,18.4510 L -7.0014,18.4632 L -7.0006,18.4755 L -7.0002,18.4877 L -7.0000,18.5000 L -7.0000,18.0000 L -7.5000,18.0000 L -7.4877,18.0002 L -7.4755,18.0006 L -7.4632,18.0014 L -7.4510,18.0024 Z M 7.0014,18.4632 L 7.0024,18.4510 L 7.0038,18.4388 L 7.0054,18.4266 L 7.0074,18.4145 L 7.0096,18.4025 L 7.0121,18.3904 L 7.0150,18.3785 L 7.0181,18.3666 L 7.0215,18.3549 L 7.0252,18.3432 L 7.0292,18.3316 L 7.0335,18.3201 L 7.0381,18.3087 L 7.0429,18.2974 L 7.0480,18.2862 L 7.0534,18.2752 L 7.0590,18.2643 L 7.0650,18.2536 L 7.0711,18.2429 L 7.0776,18.2325 L 7.0843,18.2222 L 7.0912,18.2121 L 7.0984,18.2022 L 7.1058,18.1924 L 7.1135,18.1828 L 7.1214,18.1734 L 7.1295,18.1642 L 7.1379,18.1552 L 7.1464,18.1464 L 7.1552,18.1379 L 7.1642,18.1295 L 7.1734,18.1214 L 7.1828,18.1135 L 7.1924,18.1058 L 7.2022,18.0984 L 7.2121,18.0912 L 7.2222,18.0843 L 7.2325,18.0776 L 7.2429,18.0711 L 7.2536,18.0650 L 7.2643,18.0590 L 7.2752,18.0534 L 7.2862,18.0480 L 7.2974,18.0429 L 7.3087,18.0381 L 7.3201,18.0335 L 7.3316,18.0292 L 7.3432,18.0252 L 7.3549,18.0215 L 7.3666,18.0181 L 7.3785,18.0150 L 7.3904,18.0121 L 7.4025,18.0096 L 7.4145,18.0074 L 7.4266,18.0054 L 7.4388,18.0038 L 7.4510,18.0024 L 7.4632,18.0014 L 7.4755,18.0006 L 7.4877,18.0002 L 7.5000,18.0000 L 7.0000,18.0000 L 7.0000,18.5000 L 7.0002,18.4877 L 7.0006,18.4755 L 7.0014,18.4632 Z M 18.0006,7.4755 L 18.0014,7.4632 L 18.0024,7.4510 L 18.0038,7.4388 L 18.0054,7.4266 L 18.0074,7.4145 L 18.0096,7.4025 L 18.0121,7.3904 L 18.0150,7.3785 L 18.0181,7.3666 L 18.0215,7.3549 L 18.0252,7.3432 L 18.0292,7.3316 L 18.0335,7.3201 L 18.0381,7.3087 L 18.0429,7.2974 L 18.0480,7.2862 L 18.0534,7.2752 L 18.0590,7.2643 L 18.0650,7.2536 L 18.0711,7.2429 L 18.0776,7.2325 L 18.0843,7.2222 L 18.0912,7.2121 L 18.0984,7.2022 L 18.1058,7.1924 L 18.1135,7.1828 L 18.1214,7.1734 L 18.1295,7.1642 L 18.1379,7.1552 L 18.1464,7.1464 L 18.1552,7.1379 L 18.1642,7.1295 L 18.1734,7.1214 L 18.1828,7.1135 L 18.1924,7.1058 L 18.2022,7.0984 L 18.2121,7.0912 L 18.2222,7.0843 L 18.2325,7.0776 L 18.2429,7.0711 L 18.2536,7.0650 L 18.2643,7.0590 L 18.2752,7.0534 L 18.2862,7.0480 L 18.2974,7.0429 L 18.3087,7.0381 L 18.3201,7.0335 L 18.3316,7.0292 L 18.3432,7.0252 L 18.3549,7.0215 L 18.3666,7.0181 L 18.3785,7.0150 L 18.3904,7.0121 L 18.4025,7.0096 L 18.4145,7.0074 L 18.4266,7.0054 L 18.4388,7.0038 L 18.4510,7.0024 L 18.4632,7.0014 L 18.4755,7.0006 L 18.4877,7.0002 L 18.5000,7.0000 L 18.0000,7.0000 L 18.0000,7.5000 L 18.0002,7.4877 L 18.0006,7.4755 Z M 18.4877,-7.0002 L 18.4755,-7.0006 L 18.4632,-7.0014 L 18.4510,-7.0024 L 18.4388,-7.0038 L 18.4266,-7.0054 L 18.4145,-7.0074 L 18.4025,-7.0096 L 18.3904,-7.0121 L 18.3785,-7.0150 L 18.3666,-7.0181 L 18.3549,-7.0215 L 18.3432,-7.0252 L 18.3316,-7.0292 L 18.3201,-7.0335 L 18.3087,-7.0381 L 18.2974,-7.0429 L 18.2862,-7.0480 L 18.2752,-7.0534 L 18.2643,-7.0590 L 18.2536,-7.0650 L 18.2429,-7.0711 L 18.2325,-7.0776 L 18.2222,-7.0843 L 18.2121,-7.0912 L 18.2022,-7.0984 L 18.1924,-7.1058 L 18.1828,-7.1135 L 18.1734,-7.1214 L 18.1642,-7.1295 L 18.1552,-7.1379 L 18.1464,-7.1464 L 18.1379,-7.1552 L 18.1295,-7.1642 L 18.1214,-7.1734 L 18.1135,-7.1828 L 18.1058,-7.1924 L 18.0984,-7.2022 L 18.0912,-7.2121 L 18.0843,-7.2222 L 18.0776,-7.2325 L 18.0711,-7.2429 L 18.0650,-7.2536 L 18.0590,-7.2643 L 18.0534,-7.2752 L 18.0480,-7.2862 L 18.0429,-7.2974 L 18.0381,-7.3087 L 18.0335,-7.3201 L 18.0292,-7.3316 L 18.0252,-7.3432 L 18.0215,-7.3549 L 18.0181,-7.3666 L 18.0150,-7.3785 L 18.0121,-7.3904 L 18.0096,-7.4025 L 18.0074,-7.4145 L 18.0054,-7.4266 L 18.0038,-7.4388 L 18.0024,-7.4510 L 18.0014,-7.4632 L 18.0006,-7.4755 L 18.0002,-7.4877 L 18.0000,-7.5000 L 18.0000,-7.0000 L 18.5000,-7.0000 L 18.4877,-7.0002 Z M -11.5000,11.5000 L -18.0000,11.5000 L -18.0000,18.0000 L -11.5000,18.0000 L -11.5000,11.5000 Z M 11.5000,11.5000 L 11.5000,18.0000 L 18.0000,18.0000 L 18.0000,11.5000 L 11.5000,11.5000 Z M -11.5000,-11.5000 L -11.5000,-18.0000 L -18.0000,-18.0000 L -18.0000,-11.5000 L -11.5000,-11.5000 Z M 11.5000,-11.5000 L 18.0000,-11.5000 L 18.0000,-18.0000 L 11.5000,-18.0000 L 11.5000,-11.5000 Z" fill="none" stroke="red" stroke-width="0.2" fill-rule="evenodd"/>
  <path d="M 4.0000,-7.5000 A 8.0000,8.0000 0 0,0 9.5000,-13.3095" fill="none" stroke="red" stroke-width="0.2"/>
  <line x1="9.5000" y1="-13.3095" x2="9.5000" y2="-15.5000" stroke="red" stroke-width="0.2"/>
  <path d="M 9.5000,-15.5000 A 2.5000,2.5000 0 0,0 7.0000,-18.0000" fill="none" stroke="red" stroke-width="0.2"/>
  <line x1="7.0000" y1="-18.0000" x2="7.0000" y2="-15.5000" stroke="red" stroke-width="0.2"/>
  <path d="M -4.0000,-7.5000 A 8.0000,8.0000 0 0,1 -9.5000,-13.3095" fill="none" stroke="red" stroke-width="0.2"/>
  <line x1="-9.5000" y1="-13.3095" x2="-9.5000" y2="-15.5000" stroke="red" stroke-width="0.2"/>
  <path d="M -9.5000,-15.5000 A 2.5000,2.5000 0 0,1 -7.0000,-18.0000" fill="none" stroke="red" stroke-width="0.2"/>
  <line x1="-7.0000" y1="-18.0000" x2="-7.0000" y2="-15.5000" stroke="red" stroke-width="0.2"/>
  <path d="M -7.5000,-4.0000 A 8.0000,8.0000 0 0,0 -13.3095,-9.5000" fill="none" stroke="red" stroke-width="0.2"/>
  <line x1="-13.3095" y1="-9.5000" x2="-15.5000" y2="-9.5000" stroke="red" stroke-width="0.2"/>
  <path d="M -15.5000,-9.5000 A 2.5000,2.5000 0 0,0 -18.0000,-7.0000" fill="none" stroke="red" stroke-width="0.2"/>
  <line x1="-18.0000" y1="-7.0000" x2="-15.5000" y2="-7.0000" stroke="red" stroke-width="0.2"/>
  <path d="M -7.5000,4.0000 A 8.0000,8.0000 0 0,1 -13.3095,9.5000" fill="none" stroke="red" stroke-width="0.2"/>
  <line x1="-13.3095" y1="9.5000" x2="-15.5000" y2="9.5000" stroke="red" stroke-width="0.2"/>
  <path d="M -15.5000,9.5000 A 2.5000,2.5000 0 0,1 -18.0000,7.0000" fill="none" stroke="red" stroke-width="0.2"/>
  <line x1="-18.0000" y1="7.0000" x2="-15.5000" y2="7.0000" stroke="red" stroke-width="0.2"/>
  <path d="M -4.0000,7.5000 A 8.0000,8.0000 0 0,0 -9.5000,13.3095" fill="none" stroke="red" stroke-width="0.2"/>
  <line x1="-9.5000" y1="13.3095" x2="-9.5000" y2="15.5000" stroke="red" stroke-width="0.2"/>
  <path d="M -9.5000,15.5000 A 2.5000,2.5000 0 0,0 -7.0000,18.0000" fill="none" stroke="red" stroke-width="0.2"/>
  <line x1="-7.0000" y1="18.0000" x2="-7.0000" y2="15.5000" stroke="red" stroke-width="0.2"/>
  <path d="M 4.0000,7.5000 A 8.0000,8.0000 0 0,1 9.5000,13.3095" fill="none" stroke="red" stroke-width="0.2"/>
  <line x1="9.5000" y1="13.3095" x2="9.5000" y2="15.5000" stroke="red" stroke-width="0.2"/>
  <path d="M 9.5000,15.5000 A 2.5000,2.5000 0 0,1 7.0000,18.0000" fill="none" stroke="red" stroke-width="0.2"/>
  <line x1="7.0000" y1="18.0000" x2="7.0000" y2="15.5000" stroke="red" stroke-width="0.2"/>
  <path d="M 7.5000,4.0000 A 8.0000,8.0000 0 0,0 13.3095,9.5000" fill="none" stroke="red" stroke-width="0.2"/>
  <line x1="13.3095" y1="9.5000" x2="15.5000" y2="9.5000" stroke="red" stroke-width="0.2"/>
  <path d="M 15.5000,9.5000 A 2.5000,2.5000 0 0,0 18.0000,7.0000" fill="none" stroke="red" stroke-width="0.2"/>
  <line x1="18.0000" y1="7.0000" x2="15.5000" y2="7.0000" stroke="red" stroke-width="0.2"/>
  <path d="M 7.5000,-4.0000 A 8.0000,8.0000 0 0,1 13.3095,-9.5000" fill="none" stroke="red" stroke-width="0.2"/>
  <line x1="13.3095" y1="-9.5000" x2="15.5000" y2="-9.5000" stroke="red" stroke-width="0.2"/>
  <path d="M 15.5000,-9.5000 A 2.5000,2.5000 0 0,1 18.0000,-7.0000" fill="none" stroke="red" stroke-width="0.2"/>
  <line x1="18.0000" y1="-7.0000" x2="15.5000" y2="-7.0000" stroke="red" stroke-width="0.2"/>
  <path d="M 4.0000,-16.5000 A 1,1 0 0,1 5.0000,-15.5000" fill="none" stroke="red" stroke-width="0.2"/>
  <path d="M -4.0000,-16.5000 A 1,1 0 0,0 -5.0000,-15.5000" fill="none" stroke="red" stroke-width="0.2"/>
  <path d="M -16.5000,-4.0000 A 1,1 0 0,1 -15.5000,-5.0000" fill="none" stroke="red" stroke-width="0.2"/>
  <path d="M -16.5000,4.0000 A 1,1 0 0,0 -15.5000,5.0000" fill="none" stroke="red" stroke-width="0.2"/>
  <path d="M -4.0000,16.5000 A 1,1 0 0,1 -5.0000,15.5000" fill="none" stroke="red" stroke-width="0.2"/>
  <path d="M 4.0000,16.5000 A 1,1 0 0,0 5.0000,15.5000" fill="none" stroke="red" stroke-width="0.2"/>
  <path d="M 16.5000,4.0000 A 1,1 0 0,1 15.5000,5.0000" fill="none" stroke="red" stroke-width="0.2"/>
  <path d="M 16.5000,-4.0000 A 1,1 0 0,0 15.5000,-5.0000" fill="none" stroke="red" stroke-width="0.2"/>
</svg>