<?xml version="1.0" encoding="UTF-8"?>
<svg xmlns="http://www.w3.org/2000/svg" viewBox="-25 -25 50 50" width="400" height="400">
  <rect x="-25" y="-25" width="50" height="50" fill="white"/>
  <path d="M 19.9135,16.3779 L 19.8062,16.8063 L 19.6575,17.2221 L 19.4686,17.6213 L 19.2416,18.0001 L 18.9785,18.3548 L 18.6820,18.6820 L 18.3548,18.9785 L 18.0001,19.2416 L 17.6213,19.4686 L 17.2221,19.6575 L 16.8063,19.8062 L 16.3779,19.9135 L 15.9411,19.9783 L 15.5000,20.0000 L 4.0000,20.0000 L 4.0000,7.5000 L -4.0000,7.5000 L -4.0000,20.0000 L -15.5000,20.0000 L -15.9411,19.9783 L -16.3779,19.9135 L -16.8063,19.8062 L -17.2221,19.6575 L -17.6213,19.4686 L -18.0001,19.2416 L -18.3548,18.9785 L -18.6820,18.6820 L -18.9785,18.3548 L -19.2416,18.0001 L -19.4686,17.6213 L -19.6575,17.2221 L -19.8062,16.8063 L -19.9135,16.3779 L -19.9783,15.9411 L -20.0000,15.5000 L -20.0000,4.0000 L -7.5000,4.0000 L -7.5000,-4.0000 L -20.0000,-4.0000 L -20.0000,-15.5000 L -19.9783,-15.9411 L -19.9135,-16.3779 L -19.8062,-16.8063 L -19.6575,-17.2221 L -19.4686,-17.6213 L -19.2416,-18.0001 L -18.9785,-18.3548 L -18.6820,-18.6820 L -18.3548,-18.9785 L -18.0001,-19.2416 L -17.6213,-19.4686 L -17.2221,-19.6575 L -16.8063,-19.8062 L -16.3779,-19.9135 L -15.9411,-19.9783 L -15.5000,-20.0000 L -4.0000,-20.0000 L -4.0000,-7.5000 L 4.0000,-7.5000 L 4.0000,-20.0000 L 15.5000,-20.0000 L 15.9411,-19.9783 L 16.3779,-19.9135 L 16.8063,-19.8062 L 17.2221,-19.6575 L 17.6213,-19.4686 L 18.0001,-19.2416 L 18.3548,-18.9785 L 18.6820,-18.6820 L 18.9785,-18.3548 L 19.2416,-18.0001 L 19.4686,-17.6213 L 19.6575,-17.2221 L 19.8062,-16.8063 L 19.9135,-16.3779 L 19.9783,-15.9411 L 20.0000,-15.5000 L 20.0000,-4.0000 L 7.5000,-4.0000 L 7.5000,4.0000 L 20.0000,4.0000 L 20.0000,15.5000 L 19.9783,15.9411 L 19.9135,16.3779 Z M 3.3990,-0.0834 L 3.3959,-0.1668 L 3.3908,-0.2501 L 3.3836,-0.3333 L 3.3744,-0.4162 L 3.3632,-0.4989 L 3.3499,-0.5813 L 3.3347,-0.6633 L 3.3174,-0.7449 L 3.2981,-0.8261 L 3.2768,-0.9068 L 3.2536,-0.9870 L 3.2284,-1.0665 L 3.2012,-1.1454 L 3.1722,-1.2236 L 3.1412,-1.3011 L 3.1083,-1.3778 L 3.0736,-1.4537 L 3.0370,-1.5287 L 2.9985,-1.6027 L 2.9583,-1.6759 L 2.9163,-1.7479 L 2.8725,-1.8190 L 2.8270,-1.8889 L 2.7798,-1.9577 L 2.7309,-2.0254 L 2.6804,-2.0918 L 2.6282,-2.1569 L 2.5745,-2.2208 L 2.5192,-2.2833 L 2.4624,-2.3444 L 2.4042,-2.4042 L 2.3444,-2.4624 L 2.2833,-2.5192 L 2.2208,-2.5745 L 2.1569,-2.6282 L 2.0918,-2.6804 L 2.0254,-2.7309 L 1.9577,-2.7798 L 1.8889,-2.8270 L 1.8190,-2.8725 L 1.7479,-2.9163 L 1.6759,-2.9583 L 1.6027,-2.9985 L 1.5287,-3.0370 L 1.4537,-3.0736 L 1.3778,-3.1083 L 1.3011,-3.1412 L 1.2236,-3.1722 L 1.1454,-3.2012 L 1.0665,-3.2284 L 0.9870,-3.2536 L 0.9068,-3.2768 L 0.8261,-3.2981 L 0.7449,-3.3174 L 0.6633,-3.3347 L 0.5813,-3.3499 L 0.4989,-3.3632 L 0.4162,-3.3744 L 0.3333,-3.3836 L 0.2501,-3.3908 L 0.1668,-3.3959 L 0.0834,-3.3990 L -0.0000,-3.4000 L -0.0834,-3.3990 L -0.1668,-3.3959 L -0.2501,-3.3908 L -0.3333,-3.3836 L -0.4162,-3.3744 L -0.4989,-3.3632 L -0.5813,-3.3499 L -0.6633,-3.3347 L -0.7449,-3.3174 L -0.8261,-3.2981 L -0.9068,-3.2768 L -0.9870,-3.2536 L -1.0665,-3.2284 L -1.1454,-3.2012 L -1.2236,-3.1722 L -1.3011,-3.1412 L -1.3778,-3.1083 L -1.4537,-3.0736 L -1.5287,-3.0370 L -1.6027,-2.9985 L -1.6759,-2.9583 L -1.7479,-2.9163 L -1.8190,-2.8725 L -1.8889,-2.8270 L -1.9577,-2.7798 L -2.0254,-2.7309 L -2.0918,-2.6804 L -2.1569,-2.6282 L -2.2208,-2.5745 L -2.2833,-2.5192 L -2.3444,-2.4624 L -2.4042,-2.4042 L -2.4624,-2.3444 L -2.5192,-2.2833 L -2.5745,-2.2208 L -2.6282,-2.1569 L -2.6804,-2.0918 L -2.7309,-2.0254 L -2.7798,-1.9577 L -2.8270,-1.8889 L -2.8725,-1.8190 L -2.9163,-1.7479 L -2.9583,-1.6759 L -2.9985,-1.6027 L -3.0370,-1.5287 L -3.0736,-1.4537 L -3.1083,-1.3778 L -3.1412,-1.3011 L -3.1722,-1.2236 L -3.2012,-1.1454 L -3.2284,-1.0665 L -3.2536,-0.9870 L -3.2768,-0.9068 L -3.2981,-0.8261 L -3.3174,-0.7449 L -3.3347,-0.6633 L -3.3499,-0.5813 L -3.3632,-0.4989 L -3.3744,-0.4162 L -3.3836,-0.3333 L -3.3908,-0.2501 L -3.3959,-0.1668 L -3.3990,-0.0834 L -3.4000,0.0000 L -3.3990,0.0834 L -3.3959,0.1668 L -3.3908,0.2501 L -3.3836,0.3333 L -3.3744,0.4162 L -3.3632,0.4989 L -3.3499,0.5813 L -3.3347,0.6633 L -3.3174,0.7449 L -3.2981,0.8261 L -3.2768,0.9068 L -3.2536,0.9870 L -3.2284,1.0665 L -3.2012,1.1454 L -3.1722,1.2236 L -3.1412,1.3011 L -3.1083,1.3778 L -3.0736,1.4537 L -3.0370,1.5287 L -2.9985,1.6027 L -2.9583,1.6759 L -2.9163,1.7479 L -2.8725,1.8190 L -2.8270,1.8889 L -2.7798,1.9577 L -2.7309,2.0254 L -2.6804,2.0918 L -2.6282,2.1569 L -2.5745,2.2208 L -2.5192,2.2833 L -2.4624,2.3444 L -2.4042,2.4042 L -2.3444,2.4624 L -2.2833,2.5192 L -2.2208,2.5745 L -2.1569,2.6282 L -2.0918,2.6804 L -2.0254,2.7309 L -1.9577,2.7798 L -1.8889,2.8270 L -1.8190,2.8725 L -1.7479,2.9163 L -1.6759,2.9583 L -1.6027,2.9985 L -1.5287,3.0370 L -1.4537,3.0736 L -1.3778,3.1083 L -1.3011,3.1412 L -1.2236,3.1722 L -1.1454,3.2012 L -1.0665,3.2284 L -0.9870,3.2536 L -0.9068,3.2768 L -0.8261,3.2981 L -0.7449,3.3174 L -0.6633,3.3347 L -0.5813,3.3499 L -0.4989,3.3632 L -0.4162,3.3744 L -0.3333,3.3836 L -0.2501,3.3908 L -0.1668,3.3959 L -0.0834,3.3990 L 0.0000,3.4000 L 0.0834,3.3990 L 0.1668,3.3959 L 0.2501,3.3908 L 0.3333,3.3836 L 0.4162,3.3744 L 0.4989,3.3632 L 0.5813,3.3499 L 0.6633,3.3347 L 0.7449,3.3174 L 0.8261,3.2981 L 0.9068,3.2768 L 0.9870,3.2536 L 1.0665,3.2284 L 1.1454,3.2012 L 1.2236,3.1722 L 1.3011,3.1412 L 1.3778,3.1083 L 1.4537,3.0736 L 1.5287,3.0370 L 1.6027,2.9985 L 1.6759,2.9583 L 1.7479,2.9163 L 1.8190,2.8725 L 1.8889,2.8270 L 1.9577,2.7798 L 2.0254,2.7309 L 2.0918,2.6804 L 2.1569,2.6282 L 2.2208,2.5745 L 2.2833,2.5192 L 2.3444,2.4624 L 2.4042,2.4042 L 2.4624,2.3444 L 2.5192,2.2833 L 2.5745,2.2208 L 2.6282,2.1569 L 2.6804,2.0918 L 2.7309,2.0254 L 2.7798,1.9577 L 2.8270,1.8889 L 2.8725,1.8190 L 2.9163,1.7479 L 2.9583,1.6759 L 2.9985,1.6027 L 3.0370,1.5287 L 3.0736,1.4537 L 3.1083,1.3778 L 3.1412,1.3011 L 3.1722,1.2236 L 3.2012,1.1454 L 3.2284,1.0665 L 3.2536,0.9870 L 3.2768,0.9068 L 3.2981,0.8261 L 3.3174,0.7449 L 3.3347,0.6633 L 3.3499,0.5813 L 3.3632,0.4989 L 3.3744,0.4162 L 3.3836,0.3333 L 3.3908,0.2501 L 3.3959,0.1668 L 3.3990,0.0834 L 3.4000,-0.0000 L 3.3990,-0.0834 Z" fill="none" stroke="red" stroke-width="0.2" fill-rule="evenodd"/>
</svg>