<?xml version="1.0" encoding="UTF-8"?>
<svg xmlns="http://www.w3.org/2000/svg" viewBox="-25 -25 50 50" width="400" height="400">
  <path d="M 19.914,16.378 L 19.806,16.806 L 19.657,17.222 L 19.469,17.621 L 19.242,18.000 L 18.979,18.355 L 18.682,18.682 L 18.355,18.979 L 18.000,19.242 L 17.621,19.469 L 17.222,19.657 L 16.806,19.806 L 16.378,19.914 L 15.941,19.978 L 15.500,20.000 L 4.000,20.000 L 4.000,7.500 L -4.000,7.500 L -4.000,20.000 L -15.500,20.000 L -15.941,19.978 L -16.378,19.914 L -16.806,19.806 L -17.222,19.657 L -17.621,19.469 L -18.000,19.242 L -18.355,18.979 L -18.682,18.682 L -18.979,18.355 L -19.242,18.000 L -19.469,17.621 L -19.657,17.222 L -19.806,16.806 L -19.914,16.378 L -19.978,15.941 L -20.000,15.500 L -20.000,4.000 L -7.500,4.000 L -7.500,-4.000 L -20.000,-4.000 L -20.000,-15.500 L -19.978,-15.941 L -19.914,-16.378 L -19.806,-16.806 L -19.657,-17.222 L -19.469,-17.621 L -19.242,-18.000 L -18.979,-18.355 L -18.682,-18.682 L -18.355,-18.979 L -18.000,-19.242 L -17.621,-19.469 L -17.222,-19.657 L -16.806,-19.806 L -16.378,-19.914 L -15.941,-19.978 L -15.500,-20.000 L -4.000,-20.000 L -4.000,-7.500 L 4.000,-7.500 L 4.000,-20.000 L 15.500,-20.000 L 15.941,-19.978 L 16.378,-19.914 L 16.806,-19.806 L 17.222,-19.657 L 17.621,-19.469 L 18.000,-19.242 L 18.355,-18.979 L 18.682,-18.682 L 18.979,-18.355 L 19.242,-18.000 L 19.469,-17.621 L 19.657,-17.222 L 19.806,-16.806 L 19.914,-16.378 L 19.978,-15.941 L 20.000,-15.500 L 20.000,-4.000 L 7.500,-4.000 L 7.500,4.000 L 20.000,4.000 L 20.000,15.500 L 19.978,15.941 L 19.914,16.378 Z M 3.399,-0.083 L 3.396,-0.167 L 3.391,-0.250 L 3.384,-0.333 L 3.374,-0.416 L 3.363,-0.499 L 3.350,-0.581 L 3.335,-0.663 L 3.317,-0.745 L 3.298,-0.826 L 3.277,-0.907 L 3.254,-0.987 L 3.228,-1.067 L 3.201,-1.145 L 3.172,-1.224 L 3.141,-1.301 L 3.108,-1.378 L 3.074,-1.454 L 3.037,-1.529 L 2.999,-1.603 L 2.958,-1.676 L 2.916,-1.748 L 2.873,-1.819 L 2.827,-1.889 L 2.780,-1.958 L 2.731,-2.025 L 2.680,-2.092 L 2.628,-2.157 L 2.575,-2.221 L 2.519,-2.283 L 2.462,-2.344 L 2.404,-2.404 L 2.344,-2.462 L 2.283,-2.519 L 2.221,-2.575 L 2.157,-2.628 L 2.092,-2.680 L 2.025,-2.731 L 1.958,-2.780 L 1.889,-2.827 L 1.819,-2.873 L 1.748,-2.916 L 1.676,-2.958 L 1.603,-2.999 L 1.529,-3.037 L 1.454,-3.074 L 1.378,-3.108 L 1.301,-3.141 L 1.224,-3.172 L 1.145,-3.201 L 1.067,-3.228 L 0.987,-3.254 L 0.907,-3.277 L 0.826,-3.298 L 0.745,-3.317 L 0.663,-3.335 L 0.581,-3.350 L 0.499,-3.363 L 0.416,-3.374 L 0.333,-3.384 L 0.250,-3.391 L 0.167,-3.396 L 0.083,-3.399 L -0.000,-3.400 L -0.083,-3.399 L -0.167,-3.396 L -0.250,-3.391 L -0.333,-3.384 L -0.416,-3.374 L -0.499,-3.363 L -0.581,-3.350 L -0.663,-3.335 L -0.745,-3.317 L -0.826,-3.298 L -0.907,-3.277 L -0.987,-3.254 L -1.067,-3.228 L -1.145,-3.201 L -1.224,-3.172 L -1.301,-3.141 L -1.378,-3.108 L -1.454,-3.074 L -1.529,-3.037 L -1.603,-2.999 L -1.676,-2.958 L -1.748,-2.916 L -1.819,-2.873 L -1.889,-2.827 L -1.958,-2.780 L -2.025,-2.731 L -2.092,-2.680 L -2.157,-2.628 L -2.221,-2.575 L -2.283,-2.519 L -2.344,-2.462 L -2.404,-2.404 L -2.462,-2.344 L -2.519,-2.283 L -2.575,-2.221 L -2.628,-2.157 L -2.680,-2.092 L -2.731,-2.025 L -2.780,-1.958 L -2.827,-1.889 L -2.873,-1.819 L -2.916,-1.748 L -2.958,-1.676 L -2.999,-1.603 L -3.037,-1.529 L -3.074,-1.454 L -3.108,-1.378 L -3.141,-1.301 L -3.172,-1.224 L -3.201,-1.145 L -3.228,-1.067 L -3.254,-0.987 L -3.277,-0.907 L -3.298,-0.826 L -3.317,-0.745 L -3.335,-0.663 L -3.350,-0.581 L -3.363,-0.499 L -3.374,-0.416 L -3.384,-0.333 L -3.391,-0.250 L -3.396,-0.167 L -3.399,-0.083 L -3.400,0.000 L -3.399,0.083 L -3.396,0.167 L -3.391,0.250 L -3.384,0.333 L -3.374,0.416 L -3.363,0.499 L -3.350,0.581 L -3.335,0.663 L -3.317,0.745 L -3.298,0.826 L -3.277,0.907 L -3.254,0.987 L -3.228,1.067 L -3.201,1.145 L -3.172,1.224 L -3.141,1.301 L -3.108,1.378 L -3.074,1.454 L -3.037,1.529 L -2.999,1.603 L -2.958,1.676 L -2.916,1.748 L -2.873,1.819 L -2.827,1.889 L -2.780,1.958 L -2.731,2.025 L -2.680,2.092 L -2.628,2.157 L -2.575,2.221 L -2.519,2.283 L -2.462,2.344 L -2.404,2.404 L -2.344,2.462 L -2.283,2.519 L -2.221,2.575 L -2.157,2.628 L -2.092,2.680 L -2.025,2.731 L -1.958,2.780 L -1.889,2.827 L -1.819,2.873 L -1.748,2.916 L -1.676,2.958 L -1.603,2.999 L -1.529,3.037 L -1.454,3.074 L -1.378,3.108 L -1.301,3.141 L -1.224,3.172 L -1.145,3.201 L -1.067,3.228 L -0.987,3.254 L -0.907,3.277 L -0.826,3.298 L -0.745,3.317 L -0.663,3.335 L -0.581,3.350 L -0.499,3.363 L -0.416,3.374 L -0.333,3.384 L -0.250,3.391 L -0.167,3.396 L -0.083,3.399 L 0.000,3.400 L 0.083,3.399 L 0.167,3.396 L 0.250,3.391 L 0.333,3.384 L 0.416,3.374 L 0.499,3.363 L 0.581,3.350 L 0.663,3.335 L 0.745,3.317 L 0.826,3.298 L 0.907,3.277 L 0.987,3.254 L 1.067,3.228 L 1.145,3.201 L 1.224,3.172 L 1.301,3.141 L 1.378,3.108 L 1.454,3.074 L 1.529,3.037 L 1.603,2.999 L 1.676,2.958 L 1.748,2.916 L 1.819,2.873 L 1.889,2.827 L 1.958,2.780 L 2.025,2.731 L 2.092,2.680 L 2.157,2.628 L 2.221,2.575 L 2.283,2.519 L 2.344,2.462 L 2.404,2.404 L 2.462,2.344 L 2.519,2.283 L 2.575,2.221 L 2.628,2.157 L 2.680,2.092 L 2.731,2.025 L 2.780,1.958 L 2.827,1.889 L 2.873,1.819 L 2.916,1.748 L 2.958,1.676 L 2.999,1.603 L 3.037,1.529 L 3.074,1.454 L 3.108,1.378 L 3.141,1.301 L 3.172,1.224 L 3.201,1.145 L 3.228,1.067 L 3.254,0.987 L 3.277,0.907 L 3.298,0.826 L 3.317,0.745 L 3.335,0.663 L 3.350,0.581 L 3.363,0.499 L 3.374,0.416 L 3.384,0.333 L 3.391,0.250 L 3.396,0.167 L 3.399,0.083 L 3.400,-0.000 L 3.399,-0.083 Z" fill="none" stroke="red" stroke-width="0.2" fill-rule="evenodd"/>
</svg>