<?xml version="1.0" encoding="UTF-8"?>
<svg xmlns="http://www.w3.org/2000/svg" viewBox="-25 -25 50 50" width="400" height="400">
  <rect x="-25" y="-25" width="50" height="50" fill="white"/>
  <path d="M -15.4989,6.9984 L -15.4775,6.9915 L -7.5236,4.0089 L -7.5012,3.9991 L -7.5000,3.9747 L -7.5000,-3.9747 L -7.5012,-3.9991 L -7.5236,-4.0089 L -15.4775,-6.9915 L -15.4989,-6.9984 L -15.5001,-6.9759 L -15.5067,-4.9967 L -15.5118,-4.8989 L -15.5265,-4.8020 L -15.5505,-4.7071 L -15.5838,-4.6150 L -15.6258,-4.5266 L -15.6764,-4.4427 L -15.7349,-4.3642 L -15.8007,-4.2917 L -15.8734,-4.2261 L -15.9521,-4.1678 L -16.0362,-4.1176 L -16.1248,-4.0758 L -16.2170,-4.0429 L -16.3120,-4.0191 L -16.4089,-4.0048 L -16.5067,-4.0000 L -17.9755,-4.0000 L -18.0245,-4.0012 L -18.1470,-4.0072 L -18.2446,-4.0168 L -18.3416,-4.0312 L -18.4378,-4.0504 L -18.5329,-4.0742 L -18.6268,-4.1027 L -18.7191,-4.1357 L -18.8098,-4.1732 L -18.8984,-4.2152 L -18.9849,-4.2614 L -19.0690,-4.3118 L -19.1506,-4.3663 L -19.2293,-4.4247 L -19.3052,-4.4870 L -19.3778,-4.5528 L -19.4472,-4.6222 L -19.5130,-4.6948 L -19.5753,-4.7707 L -19.6337,-4.8494 L -19.6882,-4.9310 L -19.7386,-5.0151 L -19.7848,-5.1016 L -19.8268,-5.1902 L -19.8643,-5.2809 L -19.8973,-5.3732 L -19.9258,-5.4671 L -19.9496,-5.5622 L -19.9688,-5.6584 L -19.9832,-5.7554 L -19.9928,-5.8530 L -19.9988,-5.9755 L -20.0000,-6.0245 L -20.0000,-15.4386 L -19.9997,-15.4632 L -19.9979,-15.5368 L -19.9970,-15.5613 L -19.9844,-15.8184 L -19.9807,-15.8674 L -19.9663,-16.0138 L -19.9603,-16.0626 L -19.9316,-16.2564 L -19.9232,-16.3048 L -19.8944,-16.4491 L -19.8837,-16.4970 L -19.8361,-16.6872 L -19.8230,-16.7345 L -19.7803,-16.8753 L -19.7649,-16.9219 L -19.6988,-17.1065 L -19.6812,-17.1522 L -19.6248,-17.2882 L -19.6050,-17.3331 L -19.5212,-17.5103 L -19.4991,-17.5541 L -19.4297,-17.6839 L -19.4055,-17.7266 L -19.3047,-17.8947 L -19.2785,-17.9362 L -19.1967,-18.0586 L -19.1685,-18.0987 L -19.0517,-18.2561 L -19.0215,-18.2948 L -18.9281,-18.4086 L -18.8961,-18.4458 L -18.7644,-18.5910 L -18.7306,-18.6265 L -18.6265,-18.7306 L -18.5910,-18.7644 L -18.4458,-18.8961 L -18.4086,-18.9281 L -18.2948,-19.0215 L -18.2561,-19.0517 L -18.0987,-19.1685 L -18.0586,-19.1967 L -17.9362,-19.2785 L -17.8947,-19.3047 L -17.7266,-19.4055 L -17.6839,-19.4297 L -17.5541,-19.4991 L -17.5103,-19.5212 L -17.3331,-19.6050 L -17.2882,-19.6248 L -17.1522,-19.6812 L -17.1065,-19.6988 L -16.9219,-19.7649 L -16.8753,-19.7803 L -16.7345,-19.8230 L -16.6872,-19.8361 L -16.4970,-19.8837 L -16.4491,-19.8944 L -16.3048,-19.9232 L -16.2564,-19.9316 L -16.0626,-19.9603 L -16.0138,-19.9663 L -15.8674,-19.9807 L -15.8184,-19.9844 L -15.5613,-19.9970 L -15.5368,-19.9979 L -15.4632,-19.9997 L -15.4386,-20.0000 L -6.0245,-20.0000 L -5.9755,-19.9988 L -5.8530,-19.9928 L -5.7554,-19.9832 L -5.6584,-19.9688 L -5.5622,-19.9496 L -5.4671,-19.9258 L -5.3732,-19.8973 L -5.2809,-19.8643 L -5.1902,-19.8268 L -5.1016,-19.7848 L -5.0151,-19.7386 L -4.9310,-19.6882 L -4.8494,-19.6337 L -4.7707,-19.5753 L -4.6948,-19.5130 L -4.6222,-19.4472 L -4.5528,-19.3778 L -4.4870,-19.3052 L -4.4247,-19.2293 L -4.3663,-19.1506 L -4.3118,-19.0690 L -4.2614,-18.9849 L -4.2152,-18.8984 L -4.1732,-18.8098 L -4.1357,-18.7191 L -4.1027,-18.6268 L -4.0742,-18.5329 L -4.0504,-18.4378 L -4.0312,-18.3416 L -4.0168,-18.2446 L -4.0072,-18.1470 L -4.0012,-18.0245 L -4.0000,-17.9755 L -4.0000,-16.5067 L -4.0048,-16.4089 L -4.0191,-16.3120 L -4.0429,-16.2170 L -4.0758,-16.1248 L -4.1176,-16.0362 L -4.1678,-15.9521 L -4.2261,-15.8734 L -4.2917,-15.8007 L -4.3642,-15.7349 L -4.4427,-15.6764 L -4.5266,-15.6258 L -4.6150,-15.5838 L -4.7071,-15.5505 L -4.8020,-15.5265 L -4.8989,-15.5118 L -4.9967,-15.5067 L -6.9759,-15.5001 L -6.9984,-15.4989 L -6.9915,-15.4775 L -4.0089,-7.5236 L -3.9991,-7.5012 L -3.9747,-7.5000 L 3.9747,-7.5000 L 3.9991,-7.5012 L 4.0089,-7.5236 L 6.9915,-15.4775 L 6.9984,-15.4989 L 6.9759,-15.5001 L 4.9967,-15.5067 L 4.8989,-15.5118 L 4.8020,-15.5265 L 4.7071,-15.5505 L 4.6150,-15.5838 L 4.5266,-15.6258 L 4.4427,-15.6764 L 4.3642,-15.7349 L 4.2917,-15.8007 L 4.2261,-15.8734 L 4.1678,-15.9521 L 4.1176,-16.0362 L 4.0758,-16.1248 L 4.0429,-16.2170 L 4.0191,-16.3120 L 4.0048,-16.4089 L 4.0000,-16.5067 L 4.0000,-17.9755 L 4.0012,-18.0245 L 4.0072,-18.1470 L 4.0168,-18.2446 L 4.0312,-18.3416 L 4.0504,-18.4378 L 4.0742,-18.5329 L 4.1027,-18.6268 L 4.1357,-18.7191 L 4.1732,-18.8098 L 4.2152,-18.8984 L 4.2614,-18.9849 L 4.3118,-19.0690 L 4.3663,-19.1506 L 4.4247,-19.2293 L 4.4870,-19.3052 L 4.5528,-19.3778 L 4.6222,-19.4472 L 4.6948,-19.5130 L 4.7707,-19.5753 L 4.8494,-19.6337 L 4.9310,-19.6882 L 5.0151,-19.7386 L 5.1016,-19.7848 L 5.1902,-19.8268 L 5.2809,-19.8643 L 5.3732,-19.8973 L 5.4671,-19.9258 L 5.5622,-19.9496 L 5.6584,-19.9688 L 5.7554,-19.9832 L 5.8530,-19.9928 L 5.9755,-19.9988 L 6.0245,-20.0000 L 15.4386,-20.0000 L 15.4632,-19.9997 L 15.5368,-19.9979 L 15.5613,-19.9970 L 15.8184,-19.9844 L 15.8674,-19.9807 L 16.0138,-19.9663 L 16.0626,-19.9603 L 16.2564,-19.9316 L 16.3048,-19.9232 L 16.4491,-19.8944 L 16.4970,-19.8837 L 16.6872,-19.8361 L 16.7345,-19.8230 L 16.8753,-19.7803 L 16.9219,-19.7649 L 17.1065,-19.6988 L 17.1522,-19.6812 L 17.2882,-19.6248 L 17.3331,-19.6050 L 17.5103,-19.5212 L 17.5541,-19.4991 L 17.6839,-19.4297 L 17.7266,-19.4055 L 17.8947,-19.3047 L 17.9362,-19.2785 L 18.0586,-19.1967 L 18.0987,-19.1685 L 18.2561,-19.0517 L 18.2948,-19.0215 L 18.4086,-18.9281 L 18.4458,-18.8961 L 18.5910,-18.7644 L 18.6265,-18.7306 L 18.7306,-18.6265 L 18.7644,-18.5910 L 18.8961,-18.4458 L 18.9281,-18.4086 L 19.0215,-18.2948 L 19.0517,-18.2561 L 19.1685,-18.0987 L 19.1967,-18.0586 L 19.2785,-17.9362 L 19.3047,-17.8947 L 19.4055,-17.7266 L 19.4297,-17.6839 L 19.4991,-17.5541 L 19.5212,-17.5103 L 19.6050,-17.3331 L 19.6248,-17.2882 L 19.6812,-17.1522 L 19.6988,-17.1065 L 19.7649,-16.9219 L 19.7803,-16.8753 L 19.8230,-16.7345 L 19.8361,-16.6872 L 19.8837,-16.4970 L 19.8944,-16.4491 L 19.9232,-16.3048 L 19.9316,-16.2564 L 19.9603,-16.0626 L 19.9663,-16.0138 L 19.9807,-15.8674 L 19.9844,-15.8184 L 19.9970,-15.5613 L 19.9979,-15.5368 L 19.9997,-15.4632 L 20.0000,-15.4386 L 20.0000,-6.0245 L 19.9988,-5.9755 L 19.9928,-5.8530 L 19.9832,-5.7554 L 19.9688,-5.6584 L 19.9496,-5.5622 L 19.9258,-5.4671 L 19.8973,-5.3732 L 19.8643,-5.2809 L 19.8268,-5.1902 L 19.7848,-5.1016 L 19.7386,-5.0151 L 19.6882,-4.9310 L 19.6337,-4.8494 L 19.5753,-4.7707 L 19.5130,-4.6948 L 19.4472,-4.6222 L 19.3778,-4.5528 L 19.3052,-4.4870 L 19.2293,-4.4247 L 19.1506,-4.3663 L 19.0690,-4.3118 L 18.9849,-4.2614 L 18.8984,-4.2152 L 18.8098,-4.1732 L 18.7191,-4.1357 L 18.6268,-4.1027 L 18.5329,-4.0742 L 18.4378,-4.0504 L 18.3416,-4.0312 L 18.2446,-4.0168 L 18.1470,-4.0072 L 18.0245,-4.0012 L 17.9755,-4.0000 L 16.5067,-4.0000 L 16.4089,-4.0048 L 16.3120,-4.0191 L 16.2170,-4.0429 L 16.1248,-4.0758 L 16.0362,-4.1176 L 15.9521,-4.1678 L 15.8734,-4.2261 L 15.8007,-4.2917 L 15.7349,-4.3642 L 15.6764,-4.4427 L 15.6258,-4.5266 L 15.5838,-4.6150 L 15.5505,-4.7071 L 15.5265,-4.8020 L 15.5118,-4.8989 L 15.5067,-4.9967 L 15.5001,-6.9759 L 15.4989,-6.9984 L 15.4775,-6.9915 L 7.5236,-4.0089 L 7.5012,-3.9991 L 7.5000,-3.9747 L 7.5000,3.9747 L 7.5012,3.9991 L 7.5236,4.0089 L 15.4775,6.9915 L 15.4989,6.9984 L 15.5001,6.9759 L 15.5067,4.9967 L 15.5118,4.8989 L 15.5265,4.8020 L 15.5505,4.7071 L 15.5838,4.6150 L 15.6258,4.5266 L 15.6764,4.4427 L 15.7349,4.3642 L 15.8007,4.2917 L 15.8734,4.2261 L 15.9521,4.1678 L 16.0362,4.1176 L 16.1248,4.0758 L 16.2170,4.0429 L 16.3120,4.0191 L 16.4089,4.0048 L 16.5067,4.0000 L 17.9755,4.0000 L 18.0245,4.0012 L 18.1470,4.0072 L 18.2446,4.0168 L 18.3416,4.0312 L 18.4378,4.0504 L 18.5329,4.0742 L 18.6268,4.1027 L 18.7191,4.1357 L 18.8098,4.1732 L 18.8984,4.2152 L 18.9849,4.2614 L 19.0690,4.3118 L 19.1506,4.3663 L 19.2293,4.4247 L 19.3052,4.4870 L 19.3778,4.5528 L 19.4472,4.6222 L 19.5130,4.6948 L 19.5753,4.7707 L 19.6337,4.8494 L 19.6882,4.9310 L 19.7386,5.0151 L 19.7848,5.1016 L 19.8268,5.1902 L 19.8643,5.2809 L 19.8973,5.3732 L 19.9258,5.4671 L 19.9496,5.5622 L 19.9688,5.6584 L 19.9832,5.7554 L 19.9928,5.8530 L 19.9988,5.9755 L 20.0000,6.0245 L 20.0000,15.4386 L 19.9997,15.4632 L 19.9979,15.5368 L 19.9970,15.5613 L 19.9844,15.8184 L 19.9807,15.8674 L 19.9663,16.0138 L 19.9603,16.0626 L 19.9316,16.2564 L 19.9232,16.3048 L 19.8944,16.4491 L 19.8837,16.4970 L 19.8361,16.6872 L 19.8230,16.7345 L 19.7803,16.8753 L 19.7649,16.9219 L 19.6988,17.1065 L 19.6812,17.1522 L 19.6248,17.2882 L 19.6050,17.3331 L 19.5212,17.5103 L 19.4991,17.5541 L 19.4297,17.6839 L 19.4055,17.7266 L 19.3047,17.8947 L 19.2785,17.9362 L 19.1967,18.0586 L 19.1685,18.0987 L 19.0517,18.2561 L 19.0215,18.2948 L 18.9281,18.4086 L 18.8961,18.4458 L 18.7644,18.5910 L 18.7306,18.6265 L 18.6265,18.7306 L 18.5910,18.7644 L 18.4458,18.8961 L 18.4086,18.9281 L 18.2948,19.0215 L 18.2561,19.0517 L 18.0987,19.1685 L 18.0586,19.1967 L 17.9362,19.2785 L 17.8947,19.3047 L 17.7266,19.4055 L 17.6839,19.4297 L 17.5541,19.4991 L 17.5103,19.5212 L 17.3331,19.6050 L 17.2882,19.6248 L 17.1522,19.6812 L 17.1065,19.6988 L 16.9219,19.7649 L 16.8753,19.7803 L 16.7345,19.8230 L 16.6872,19.8361 L 16.4970,19.8837 L 16.4491,19.8944 L 16.3048,19.9232 L 16.2564,19.9316 L 16.0626,19.9603 L 16.0138,19.9663 L 15.8674,19.9807 L 15.8184,19.9844 L 15.5613,19.9970 L 15.5368,19.9979 L 15.4632,19.9997 L 15.4386,20.0000 L 6.0245,20.0000 L 5.9755,19.9988 L 5.8530,19.9928 L 5.7554,19.9832 L 5.6584,19.9688 L 5.5622,19.9496 L 5.4671,19.9258 L 5.3732,19.8973 L 5.2809,19.8643 L 5.1902,19.8268 L 5.1016,19.7848 L 5.0151,19.7386 L 4.9310,19.6882 L 4.8494,19.6337 L 4.7707,19.5753 L 4.6948,19.5130 L 4.6222,19.4472 L 4.5528,19.3778 L 4.4870,19.3052 L 4.4247,19.2293 L 4.3663,19.1506 L 4.3118,19.0690 L 4.2614,18.9849 L 4.2152,18.8984 L 4.1732,18.8098 L 4.1357,18.7191 L 4.1027,18.6268 L 4.0742,18.5329 L 4.0504,18.4378 L 4.0312,18.3416 L 4.0168,18.2446 L 4.0072,18.1470 L 4.0012,18.0245 L 4.0000,17.9755 L 4.0000,16.5067 L 4.0048,16.4089 L 4.0191,16.3120 L 4.0429,16.2170 L 4.0758,16.1248 L 4.1176,16.0362 L 4.1678,15.9521 L 4.2261,15.8734 L 4.2917,15.8007 L 4.3642,15.7349 L 4.4427,15.6764 L 4.5266,15.6258 L 4.6150,15.5838 L 4.7071,15.5505 L 4.8020,15.5265 L 4.8989,15.5118 L 4.9967,15.5067 L 6.9759,15.5001 L 6.9984,15.4989 L 6.9915,15.4775 L 4.0089,7.5236 L 3.9991,7.5012 L 3.9747,7.5000 L -3.9747,7.5000 L -3.9991,7.5012 L -4.0089,7.5236 L -6.9915,15.4775 L -6.9984,15.4989 L -6.9759,15.5001 L -4.9967,15.5067 L -4.8989,15.5118 L -4.8020,15.5265 L -4.7071,15.5505 L -4.6150,15.5838 L -4.5266,15.6258 L -4.4427,15.6764 L -4.3642,15.7349 L -4.2917,15.8007 L -4.2261,15.8734 L -4.1678,15.9521 L -4.1176,16.0362 L -4.0758,16.1248 L -4.0429,16.2170 L -4.0191,16.3120 L -4.0048,16.4089 L -4.0000,16.5067 L -4.0000,17.9755 L -4.0012,18.0245 L -4.0072,18.1470 L -4.0168,18.2446 L -4.0312,18.3416 L -4.0504,18.4378 L -4.0742,18.5329 L -4.1027,18.6268 L -4.1357,18.7191 L -4.1732,18.8098 L -4.2152,18.8984 L -4.2614,18.9849 L -4.3118,19.0690 L -4.3663,19.1506 L -4.4247,19.2293 L -4.4870,19.3052 L -4.5528,19.3778 L -4.6222,19.4472 L -4.6948,19.5130 L -4.7707,19.5753 L -4.8494,19.6337 L -4.9310,19.6882 L -5.0151,19.7386 L -5.1016,19.7848 L -5.1902,19.8268 L -5.2809,19.8643 L -5.3732,19.8973 L -5.4671,19.9258 L -5.5622,19.9496 L -5.6584,19.9688 L -5.7554,19.9832 L -5.8530,19.9928 L -5.9755,19.9988 L -6.0245,20.0000 L -15.4386,20.0000 L -15.4632,19.9997 L -15.5368,19.9979 L -15.5613,19.9970 L -15.8184,19.9844 L -15.8674,19.9807 L -16.0138,19.9663 L -16.0626,19.9603 L -16.2564,19.9316 L -16.3048,19.9232 L -16.4491,19.8944 L -16.4970,19.8837 L -16.6872,19.8361 L -16.7345,19.8230 L -16.8753,19.7803 L -16.9219,19.7649 L -17.1065,19.6988 L -17.1522,19.6812 L -17.2882,19.6248 L -17.3331,19.6050 L -17.5103,19.5212 L -17.5541,19.4991 L -17.6839,19.4297 L -17.7266,19.4055 L -17.8947,19.3047 L -17.9362,19.2785 L -18.0586,19.1967 L -18.0987,19.1685 L -18.2561,19.0517 L -18.2948,19.0215 L -18.4086,18.9281 L -18.4458,18.8961 L -18.5910,18.7644 L -18.6265,18.7306 L -18.7306,18.6265 L -18.7644,18.5910 L -18.8961,18.4458 L -18.9281,18.4086 L -19.0215,18.2948 L -19.0517,18.2561 L -19.1685,18.0987 L -19.1967,18.0586 L -19.2785,17.9362 L -19.3047,17.8947 L -19.4055,17.7266 L -19.4297,17.6839 L -19.4991,17.5541 L -19.5212,17.5103 L -19.6050,17.3331 L -19.6248,17.2882 L -19.6812,17.1522 L -19.6988,17.1065 L -19.7649,16.9219 L -19.7803,16.8753 L -19.8230,16.7345 L -19.8361,16.6872 L -19.8837,16.4970 L -19.8944,16.4491 L -19.9232,16.3048 L -19.9316,16.2564 L -19.9603,16.0626 L -19.9663,16.0138 L -19.9807,15.8674 L -19.9844,15.8184 L -19.9970,15.5613 L -19.9979,15.5368 L -19.9997,15.4632 L -20.0000,15.4386 L -20.0000,6.0245 L -19.9988,5.9755 L -19.9928,5.8530 L -19.9832,5.7554 L -19.9688,5.6584 L -19.9496,5.5622 L -19.9258,5.4671 L -19.8973,5.3732 L -19.8643,5.2809 L -19.8268,5.1902 L -19.7848,5.1016 L -19.7386,5.0151 L -19.6882,4.9310 L -19.6337,4.8494 L -19.5753,4.7707 L -19.5130,4.6948 L -19.4472,4.6222 L -19.3778,4.5528 L -19.3052,4.4870 L -19.2293,4.4247 L -19.1506,4.3663 L -19.0690,4.3118 L -18.9849,4.2614 L -18.8984,4.2152 L -18.8098,4.1732 L -18.7191,4.1357 L -18.6268,4.1027 L -18.5329,4.0742 L -18.4378,4.0504 L -18.3416,4.0312 L -18.2446,4.0168 L -18.1470,4.0072 L -18.0245,4.0012 L -17.9755,4.0000 L -16.5067,4.0000 L -16.4089,4.0048 L -16.3120,4.0191 L -16.2170,4.0429 L -16.1248,4.0758 L -16.0362,4.1176 L -15.9521,4.1678 L -15.8734,4.2261 L -15.8007,4.2917 L -15.7349,4.3642 L -15.6764,4.4427 L -15.6258,4.5266 L -15.5838,4.6150 L -15.5505,4.7071 L -15.5265,4.8020 L -15.5118,4.8989 L -15.5067,4.9967 L -15.5001,6.9759 L -15.4989,6.9984 Z M 3.3986,-0.0926 L 3.3984,-0.0988 L 3.3965,-0.1515 L 3.3962,-0.1576 L 3.3953,-0.1760 L 3.3950,-0.1821 L 3.3917,-0.2348 L 3.3913,-0.2409 L 3.3900,-0.2593 L 3.3895,-0.2654 L 3.3849,-0.3180 L 3.3844,-0.3241 L 3.3826,-0.3424 L 3.3819,-0.3485 L 3.3761,-0.4009 L 3.3754,-0.4070 L 3.3732,-0.4253 L 3.3724,-0.4314 L 3.3653,-0.4837 L 3.3644,-0.4898 L 3.3617,-0.5080 L 3.3608,-0.5140 L 3.3524,-0.5661 L 3.3514,-0.5722 L 3.3482,-0.5903 L 3.3471,-0.5964 L 3.3375,-0.6482 L 3.3363,-0.6543 L 3.3327,-0.6723 L 3.3315,-0.6783 L 3.3206,-0.7299 L 3.3193,-0.7359 L 3.3152,-0.7539 L 3.3138,-0.7599 L 3.3017,-0.8112 L 3.3002,-0.8172 L 3.2957,-0.8350 L 3.2942,-0.8410 L 3.2807,-0.8920 L 3.2791,-0.8979 L 3.2742,-0.9157 L 3.2726,-0.9216 L 3.2579,-0.9722 L 3.2561,-0.9781 L 3.2508,-0.9957 L 3.2490,-1.0016 L 3.2330,-1.0519 L 3.2311,-1.0577 L 3.2254,-1.0752 L 3.2234,-1.0810 L 3.2062,-1.1309 L 3.2042,-1.1367 L 3.1980,-1.1540 L 3.1959,-1.1598 L 3.1775,-1.2093 L 3.1753,-1.2150 L 3.1687,-1.2322 L 3.1665,-1.2379 L 3.1469,-1.2869 L 3.1446,-1.2926 L 3.1375,-1.3096 L 3.1351,-1.3152 L 3.1144,-1.3637 L 3.1119,-1.3693 L 3.1044,-1.3862 L 3.1019,-1.3918 L 3.0800,-1.4397 L 3.0774,-1.4453 L 3.0695,-1.4619 L 3.0668,-1.4675 L 3.0437,-1.5149 L 3.0410,-1.5204 L 3.0327,-1.5368 L 3.0299,-1.5423 L 3.0056,-1.5891 L 3.0027,-1.5946 L 2.9941,-1.6108 L 2.9911,-1.6162 L 2.9657,-1.6624 L 2.9627,-1.6678 L 2.9536,-1.6838 L 2.9506,-1.6891 L 2.9240,-1.7347 L 2.9209,-1.7400 L 2.9114,-1.7558 L 2.9082,-1.7610 L 2.8805,-1.8059 L 2.8773,-1.8111 L 2.8675,-1.8267 L 2.8641,-1.8319 L 2.8354,-1.8761 L 2.8320,-1.8812 L 2.8218,-1.8965 L 2.8183,-1.9016 L 2.7885,-1.9451 L 2.7850,-1.9501 L 2.7744,-1.9652 L 2.7708,-1.9702 L 2.7399,-2.0129 L 2.7363,-2.0179 L 2.7253,-2.0327 L 2.7216,-2.0376 L 2.6897,-2.0796 L 2.6859,-2.0844 L 2.6746,-2.0989 L 2.6708,-2.1038 L 2.6378,-2.1450 L 2.6340,-2.1497 L 2.6223,-2.1640 L 2.6184,-2.1687 L 2.5844,-2.2091 L 2.5804,-2.2137 L 2.5684,-2.2277 L 2.5643,-2.2323 L 2.5294,-2.2718 L 2.5253,-2.2764 L 2.5129,-2.2900 L 2.5088,-2.2945 L 2.4729,-2.3332 L 2.4687,-2.3377 L 2.4560,-2.3510 L 2.4517,-2.3554 L 2.4149,-2.3932 L 2.4106,-2.3975 L 2.3975,-2.4106 L 2.3932,-2.4149 L 2.3554,-2.4517 L 2.3510,-2.4560 L 2.3377,-2.4687 L 2.3332,-2.4729 L 2.2945,-2.5088 L 2.2900,-2.5129 L 2.2764,-2.5253 L 2.2718,-2.5294 L 2.2323,-2.5643 L 2.2277,-2.5684 L 2.2137,-2.5804 L 2.2091,-2.5844 L 2.1687,-2.6184 L 2.1640,-2.6223 L 2.1497,-2.6340 L 2.1450,-2.6378 L 2.1038,-2.6708 L 2.0989,-2.6746 L 2.0844,-2.6859 L 2.0796,-2.6897 L 2.0376,-2.7216 L 2.0327,-2.7253 L 2.0179,-2.7363 L 2.0129,-2.7399 L 1.9702,-2.7708 L 1.9652,-2.7744 L 1.9501,-2.7850 L 1.9451,-2.7885 L 1.9016,-2.8183 L 1.8965,-2.8218 L 1.8812,-2.8320 L 1.8761,-2.8354 L 1.8319,-2.8641 L 1.8267,-2.8675 L 1.8111,-2.8773 L 1.8059,-2.8805 L 1.7610,-2.9082 L 1.7558,-2.9114 L 1.7400,-2.9209 L 1.7347,-2.9240 L 1.6891,-2.9506 L 1.6838,-2.9536 L 1.6678,-2.9627 L 1.6624,-2.9657 L 1.6162,-2.9911 L 1.6108,-2.9941 L 1.5946,-3.0027 L 1.5891,-3.0056 L 1.5423,-3.0299 L 1.5368,-3.0327 L 1.5204,-3.0410 L 1.5149,-3.0437 L 1.4675,-3.0668 L 1.4619,-3.0695 L 1.4453,-3.0774 L 1.4397,-3.0800 L 1.3918,-3.1019 L 1.3862,-3.1044 L 1.3693,-3.1119 L 1.3637,-3.1144 L 1.3152,-3.1351 L 1.3096,-3.1375 L 1.2926,-3.1446 L 1.2869,-3.1469 L 1.2379,-3.1665 L 1.2322,-3.1687 L 1.2150,-3.1753 L 1.2093,-3.1775 L 1.1598,-3.1959 L 1.1540,-3.1980 L 1.1367,-3.2042 L 1.1309,-3.2062 L 1.0810,-3.2234 L 1.0752,-3.2254 L 1.0577,-3.2311 L 1.0519,-3.2330 L 1.0016,-3.2490 L 0.9957,-3.2508 L 0.9781,-3.2561 L 0.9722,-3.2579 L 0.9216,-3.2726 L 0.9157,-3.2742 L 0.8979,-3.2791 L 0.8920,-3.2807 L 0.8410,-3.2942 L 0.8350,-3.2957 L 0.8172,-3.3002 L 0.8112,-3.3017 L 0.7599,-3.3138 L 0.7539,-3.3152 L 0.7359,-3.3193 L 0.7299,-3.3206 L 0.6783,-3.3315 L 0.6723,-3.3327 L 0.6543,-3.3363 L 0.6482,-3.3375 L 0.5964,-3.3471 L 0.5903,-3.3482 L 0.5722,-3.3514 L 0.5661,-3.3524 L 0.5140,-3.3608 L 0.5080,-3.3617 L 0.4898,-3.3644 L 0.4837,-3.3653 L 0.4314,-3.3724 L 0.4253,-3.3732 L 0.4070,-3.3754 L 0.4009,-3.3761 L 0.3485,-3.3819 L 0.3424,-3.3826 L 0.3241,-3.3844 L 0.3180,-3.3849 L 0.2654,-3.3895 L 0.2593,-3.3900 L 0.2409,-3.3913 L 0.2348,-3.3917 L 0.1821,-3.3950 L 0.1760,-3.3953 L 0.1576,-3.3962 L 0.1515,-3.3965 L 0.0988,-3.3984 L 0.0926,-3.3986 L 0.0742,-3.3991 L 0.0681,-3.3992 L 0.0153,-3.3998 L 0.0092,-3.3998 L -0.0092,-3.3998 L -0.0153,-3.3998 L -0.0681,-3.3992 L -0.0742,-3.3991 L -0.0926,-3.3986 L -0.0988,-3.3984 L -0.1515,-3.3965 L -0.1576,-3.3962 L -0.1760,-3.3953 L -0.1821,-3.3950 L -0.2348,-3.3917 L -0.2409,-3.3913 L -0.2593,-3.3900 L -0.2654,-3.3895 L -0.3180,-3.3849 L -0.3241,-3.3844 L -0.3424,-3.3826 L -0.3485,-3.3819 L -0.4009,-3.3761 L -0.4070,-3.3754 L -0.4253,-3.3732 L -0.4314,-3.3724 L -0.4837,-3.3653 L -0.4898,-3.3644 L -0.5080,-3.3617 L -0.5140,-3.3608 L -0.5661,-3.3524 L -0.5722,-3.3514 L -0.5903,-3.3482 L -0.5964,-3.3471 L -0.6482,-3.3375 L -0.6543,-3.3363 L -0.6723,-3.3327 L -0.6783,-3.3315 L -0.7299,-3.3206 L -0.7359,-3.3193 L -0.7539,-3.3152 L -0.7599,-3.3138 L -0.8112,-3.3017 L -0.8172,-3.3002 L -0.8350,-3.2957 L -0.8410,-3.2942 L -0.8920,-3.2807 L -0.8979,-3.2791 L -0.9157,-3.2742 L -0.9216,-3.2726 L -0.9722,-3.2579 L -0.9781,-3.2561 L -0.9957,-3.2508 L -1.0016,-3.2490 L -1.0519,-3.2330 L -1.0577,-3.2311 L -1.0752,-3.2254 L -1.0810,-3.2234 L -1.1309,-3.2062 L -1.1367,-3.2042 L -1.1540,-3.1980 L -1.1598,-3.1959 L -1.2093,-3.1775 L -1.2150,-3.1753 L -1.2322,-3.1687 L -1.2379,-3.1665 L -1.2869,-3.1469 L -1.2926,-3.1446 L -1.3096,-3.1375 L -1.3152,-3.1351 L -1.3637,-3.1144 L -1.3693,-3.1119 L -1.3862,-3.1044 L -1.3918,-3.1019 L -1.4397,-3.0800 L -1.4453,-3.0774 L -1.4619,-3.0695 L -1.4675,-3.0668 L -1.5149,-3.0437 L -1.5204,-3.0410 L -1.5368,-3.0327 L -1.5423,-3.0299 L -1.5891,-3.0056 L -1.5946,-3.0027 L -1.6108,-2.9941 L -1.6162,-2.9911 L -1.6624,-2.9657 L -1.6678,-2.9627 L -1.6838,-2.9536 L -1.6891,-2.9506 L -1.7347,-2.9240 L -1.7400,-2.9209 L -1.7558,-2.9114 L -1.7610,-2.9082 L -1.8059,-2.8805 L -1.8111,-2.8773 L -1.8267,-2.8675 L -1.8319,-2.8641 L -1.8761,-2.8354 L -1.8812,-2.8320 L -1.8965,-2.8218 L -1.9016,-2.8183 L -1.9451,-2.7885 L -1.9501,-2.7850 L -1.9652,-2.7744 L -1.9702,-2.7708 L -2.0129,-2.7399 L -2.0179,-2.7363 L -2.0327,-2.7253 L -2.0376,-2.7216 L -2.0796,-2.6897 L -2.0844,-2.6859 L -2.0989,-2.6746 L -2.1038,-2.6708 L -2.1450,-2.6378 L -2.1497,-2.6340 L -2.1640,-2.6223 L -2.1687,-2.6184 L -2.2091,-2.5844 L -2.2137,-2.5804 L -2.2277,-2.5684 L -2.2323,-2.5643 L -2.2718,-2.5294 L -2.2764,-2.5253 L -2.2900,-2.5129 L -2.2945,-2.5088 L -2.3332,-2.4729 L -2.3377,-2.4687 L -2.3510,-2.4560 L -2.3554,-2.4517 L -2.3932,-2.4149 L -2.3975,-2.4106 L -2.4106,-2.3975 L -2.4149,-2.3932 L -2.4517,-2.3554 L -2.4560,-2.3510 L -2.4687,-2.3377 L -2.4729,-2.3332 L -2.5088,-2.2945 L -2.5129,-2.2900 L -2.5253,-2.2764 L -2.5294,-2.2718 L -2.5643,-2.2323 L -2.5684,-2.2277 L -2.5804,-2.2137 L -2.5844,-2.2091 L -2.6184,-2.1687 L -2.6223,-2.1640 L -2.6340,-2.1497 L -2.6378,-2.1450 L -2.6708,-2.1038 L -2.6746,-2.0989 L -2.6859,-2.0844 L -2.6897,-2.0796 L -2.7216,-2.0376 L -2.7253,-2.0327 L -2.7363,-2.0179 L -2.7399,-2.0129 L -2.7708,-1.9702 L -2.7744,-1.9652 L -2.7850,-1.9501 L -2.7885,-1.9451 L -2.8183,-1.9016 L -2.8218,-1.8965 L -2.8320,-1.8812 L -2.8354,-1.8761 L -2.8641,-1.8319 L -2.8675,-1.8267 L -2.8773,-1.8111 L -2.8805,-1.8059 L -2.9082,-1.7610 L -2.9114,-1.7558 L -2.9209,-1.7400 L -2.9240,-1.7347 L -2.9506,-1.6891 L -2.9536,-1.6838 L -2.9627,-1.6678 L -2.9657,-1.6624 L -2.9911,-1.6162 L -2.9941,-1.6108 L -3.0027,-1.5946 L -3.0056,-1.5891 L -3.0299,-1.5423 L -3.0327,-1.5368 L -3.0410,-1.5204 L -3.0437,-1.5149 L -3.0668,-1.4675 L -3.0695,-1.4619 L -3.0774,-1.4453 L -3.0800,-1.4397 L -3.1019,-1.3918 L -3.1044,-1.3862 L -3.1119,-1.3693 L -3.1144,-1.3637 L -3.1351,-1.3152 L -3.1375,-1.3096 L -3.1446,-1.2926 L -3.1469,-1.2869 L -3.1665,-1.2379 L -3.1687,-1.2322 L -3.1753,-1.2150 L -3.1775,-1.2093 L -3.1959,-1.1598 L -3.1980,-1.1540 L -3.2042,-1.1367 L -3.2062,-1.1309 L -3.2234,-1.0810 L -3.2254,-1.0752 L -3.2311,-1.0577 L -3.2330,-1.0519 L -3.2490,-1.0016 L -3.2508,-0.9957 L -3.2561,-0.9781 L -3.2579,-0.9722 L -3.2726,-0.9216 L -3.2742,-0.9157 L -3.2791,-0.8979 L -3.2807,-0.8920 L -3.2942,-0.8410 L -3.2957,-0.8350 L -3.3002,-0.8172 L -3.3017,-0.8112 L -3.3138,-0.7599 L -3.3152,-0.7539 L -3.3193,-0.7359 L -3.3206,-0.7299 L -3.3315,-0.6783 L -3.3327,-0.6723 L -3.3363,-0.6543 L -3.3375,-0.6482 L -3.3471,-0.5964 L -3.3482,-0.5903 L -3.3514,-0.5722 L -3.3524,-0.5661 L -3.3608,-0.5140 L -3.3617,-0.5080 L -3.3644,-0.4898 L -3.3653,-0.4837 L -3.3724,-0.4314 L -3.3732,-0.4253 L -3.3754,-0.4070 L -3.3761,-0.4009 L -3.3819,-0.3485 L -3.3826,-0.3424 L -3.3844,-0.3241 L -3.3849,-0.3180 L -3.3895,-0.2654 L -3.3900,-0.2593 L -3.3913,-0.2409 L -3.3917,-0.2348 L -3.3950,-0.1821 L -3.3953,-0.1760 L -3.3962,-0.1576 L -3.3965,-0.1515 L -3.3984,-0.0988 L -3.3986,-0.0926 L -3.3991,-0.0742 L -3.3992,-0.0681 L -3.3998,-0.0153 L -3.3998,-0.0092 L -3.3998,0.0092 L -3.3998,0.0153 L -3.3992,0.0681 L -3.3991,0.0742 L -3.3986,0.0926 L -3.3984,0.0988 L -3.3965,0.1515 L -3.3962,0.1576 L -3.3953,0.1760 L -3.3950,0.1821 L -3.3917,0.2348 L -3.3913,0.2409 L -3.3900,0.2593 L -3.3895,0.2654 L -3.3849,0.3180 L -3.3844,0.3241 L -3.3826,0.3424 L -3.3819,0.3485 L -3.3761,0.4009 L -3.3754,0.4070 L -3.3732,0.4253 L -3.3724,0.4314 L -3.3653,0.4837 L -3.3644,0.4898 L -3.3617,0.5080 L -3.3608,0.5140 L -3.3524,0.5661 L -3.3514,0.5722 L -3.3482,0.5903 L -3.3471,0.5964 L -3.3375,0.6482 L -3.3363,0.6543 L -3.3327,0.6723 L -3.3315,0.6783 L -3.3206,0.7299 L -3.3193,0.7359 L -3.3152,0.7539 L -3.3138,0.7599 L -3.3017,0.8112 L -3.3002,0.8172 L -3.2957,0.8350 L -3.2942,0.8410 L -3.2807,0.8920 L -3.2791,0.8979 L -3.2742,0.9157 L -3.2726,0.9216 L -3.2579,0.9722 L -3.2561,0.9781 L -3.2508,0.9957 L -3.2490,1.0016 L -3.2330,1.0519 L -3.2311,1.0577 L -3.2254,1.0752 L -3.2234,1.0810 L -3.2062,1.1309 L -3.2042,1.1367 L -3.1980,1.1540 L -3.1959,1.1598 L -3.1775,1.2093 L -3.1753,1.2150 L -3.1687,1.2322 L -3.1665,1.2379 L -3.1469,1.2869 L -3.1446,1.2926 L -3.1375,1.3096 L -3.1351,1.3152 L -3.1144,1.3637 L -3.1119,1.3693 L -3.1044,1.3862 L -3.1019,1.3918 L -3.0800,1.4397 L -3.0774,1.4453 L -3.0695,1.4619 L -3.0668,1.4675 L -3.0437,1.5149 L -3.0410,1.5204 L -3.0327,1.5368 L -3.0299,1.5423 L -3.0056,1.5891 L -3.0027,1.5946 L -2.9941,1.6108 L -2.9911,1.6162 L -2.9657,1.6624 L -2.9627,1.6678 L -2.9536,1.6838 L -2.9506,1.6891 L -2.9240,1.7347 L -2.9209,1.7400 L -2.9114,1.7558 L -2.9082,1.7610 L -2.8805,1.8059 L -2.8773,1.8111 L -2.8675,1.8267 L -2.8641,1.8319 L -2.8354,1.8761 L -2.8320,1.8812 L -2.8218,1.8965 L -2.8183,1.9016 L -2.7885,1.9451 L -2.7850,1.9501 L -2.7744,1.9652 L -2.7708,1.9702 L -2.7399,2.0129 L -2.7363,2.0179 L -2.7253,2.0327 L -2.7216,2.0376 L -2.6897,2.0796 L -2.6859,2.0844 L -2.6746,2.0989 L -2.6708,2.1038 L -2.6378,2.1450 L -2.6340,2.1497 L -2.6223,2.1640 L -2.6184,2.1687 L -2.5844,2.2091 L -2.5804,2.2137 L -2.5684,2.2277 L -2.5643,2.2323 L -2.5294,2.2718 L -2.5253,2.2764 L -2.5129,2.2900 L -2.5088,2.2945 L -2.4729,2.3332 L -2.4687,2.3377 L -2.4560,2.3510 L -2.4517,2.3554 L -2.4149,2.3932 L -2.4106,2.3975 L -2.3975,2.4106 L -2.3932,2.4149 L -2.3554,2.4517 L -2.3510,2.4560 L -2.3377,2.4687 L -2.3332,2.4729 L -2.2945,2.5088 L -2.2900,2.5129 L -2.2764,2.5253 L -2.2718,2.5294 L -2.2323,2.5643 L -2.2277,2.5684 L -2.2137,2.5804 L -2.2091,2.5844 L -2.1687,2.6184 L -2.1640,2.6223 L -2.1497,2.6340 L -2.1450,2.6378 L -2.1038,2.6708 L -2.0989,2.6746 L -2.0844,2.6859 L -2.0796,2.6897 L -2.0376,2.7216 L -2.0327,2.7253 L -2.0179,2.7363 L -2.0129,2.7399 L -1.9702,2.7708 L -1.9652,2.7744 L -1.9501,2.7850 L -1.9451,2.7885 L -1.9016,2.8183 L -1.8965,2.8218 L -1.8812,2.8320 L -1.8761,2.8354 L -1.8319,2.8641 L -1.8267,2.8675 L -1.8111,2.8773 L -1.8059,2.8805 L -1.7610,2.9082 L -1.7558,2.9114 L -1.7400,2.9209 L -1.7347,2.9240 L -1.6891,2.9506 L -1.6838,2.9536 L -1.6678,2.9627 L -1.6624,2.9657 L -1.6162,2.9911 L -1.6108,2.9941 L -1.5946,3.0027 L -1.5891,3.0056 L -1.5423,3.0299 L -1.5368,3.0327 L -1.5204,3.0410 L -1.5149,3.0437 L -1.4675,3.0668 L -1.4619,3.0695 L -1.4453,3.0774 L -1.4397,3.0800 L -1.3918,3.1019 L -1.3862,3.1044 L -1.3693,3.1119 L -1.3637,3.1144 L -1.3152,3.1351 L -1.3096,3.1375 L -1.2926,3.1446 L -1.2869,3.1469 L -1.2379,3.1665 L -1.2322,3.1687 L -1.2150,3.1753 L -1.2093,3.1775 L -1.1598,3.1959 L -1.1540,3.1980 L -1.1367,3.2042 L -1.1309,3.2062 L -1.0810,3.2234 L -1.0752,3.2254 L -1.0577,3.2311 L -1.0519,3.2330 L -1.0016,3.2490 L -0.9957,3.2508 L -0.9781,3.2561 L -0.9722,3.2579 L -0.9216,3.2726 L -0.9157,3.2742 L -0.8979,3.2791 L -0.8920,3.2807 L -0.8410,3.2942 L -0.8350,3.2957 L -0.8172,3.3002 L -0.8112,3.3017 L -0.7599,3.3138 L -0.7539,3.3152 L -0.7359,3.3193 L -0.7299,3.3206 L -0.6783,3.3315 L -0.6723,3.3327 L -0.6543,3.3363 L -0.6482,3.3375 L -0.5964,3.3471 L -0.5903,3.3482 L -0.5722,3.3514 L -0.5661,3.3524 L -0.5140,3.3608 L -0.5080,3.3617 L -0.4898,3.3644 L -0.4837,3.3653 L -0.4314,3.3724 L -0.4253,3.3732 L -0.4070,3.3754 L -0.4009,3.3761 L -0.3485,3.3819 L -0.3424,3.3826 L -0.3241,3.3844 L -0.3180,3.3849 L -0.2654,3.3895 L -0.2593,3.3900 L -0.2409,3.3913 L -0.2348,3.3917 L -0.1821,3.3950 L -0.1760,3.3953 L -0.1576,3.3962 L -0.1515,3.3965 L -0.0988,3.3984 L -0.0926,3.3986 L -0.0742,3.3991 L -0.0681,3.3992 L -0.0153,3.3998 L -0.0092,3.3998 L 0.0092,3.3998 L 0.0153,3.3998 L 0.0681,3.3992 L 0.0742,3.3991 L 0.0926,3.3986 L 0.0988,3.3984 L 0.1515,3.3965 L 0.1576,3.3962 L 0.1760,3.3953 L 0.1821,3.3950 L 0.2348,3.3917 L 0.2409,3.3913 L 0.2593,3.3900 L 0.2654,3.3895 L 0.3180,3.3849 L 0.3241,3.3844 L 0.3424,3.3826 L 0.3485,3.3819 L 0.4009,3.3761 L 0.4070,3.3754 L 0.4253,3.3732 L 0.4314,3.3724 L 0.4837,3.3653 L 0.4898,3.3644 L 0.5080,3.3617 L 0.5140,3.3608 L 0.5661,3.3524 L 0.5722,3.3514 L 0.5903,3.3482 L 0.5964,3.3471 L 0.6482,3.3375 L 0.6543,3.3363 L 0.6723,3.3327 L 0.6783,3.3315 L 0.7299,3.3206 L 0.7359,3.3193 L 0.7539,3.3152 L 0.7599,3.3138 L 0.8112,3.3017 L 0.8172,3.3002 L 0.8350,3.2957 L 0.8410,3.2942 L 0.8920,3.2807 L 0.8979,3.2791 L 0.9157,3.2742 L 0.9216,3.2726 L 0.9722,3.2579 L 0.9781,3.2561 L 0.9957,3.2508 L 1.0016,3.2490 L 1.0519,3.2330 L 1.0577,3.2311 L 1.0752,3.2254 L 1.0810,3.2234 L 1.1309,3.2062 L 1.1367,3.2042 L 1.1540,3.1980 L 1.1598,3.1959 L 1.2093,3.1775 L 1.2150,3.1753 L 1.2322,3.1687 L 1.2379,3.1665 L 1.2869,3.1469 L 1.2926,3.1446 L 1.3096,3.1375 L 1.3152,3.1351 L 1.3637,3.1144 L 1.3693,3.1119 L 1.3862,3.1044 L 1.3918,3.1019 L 1.4397,3.0800 L 1.4453,3.0774 L 1.4619,3.0695 L 1.4675,3.0668 L 1.5149,3.0437 L 1.5204,3.0410 L 1.5368,3.0327 L 1.5423,3.0299 L 1.5891,3.0056 L 1.5946,3.0027 L 1.6108,2.9941 L 1.6162,2.9911 L 1.6624,2.9657 L 1.6678,2.9627 L 1.6838,2.9536 L 1.6891,2.9506 L 1.7347,2.9240 L 1.7400,2.9209 L 1.7558,2.9114 L 1.7610,2.9082 L 1.8059,2.8805 L 1.8111,2.8773 L 1.8267,2.8675 L 1.8319,2.8641 L 1.8761,2.8354 L 1.8812,2.8320 L 1.8965,2.8218 L 1.9016,2.8183 L 1.9451,2.7885 L 1.9501,2.7850 L 1.9652,2.7744 L 1.9702,2.7708 L 2.0129,2.7399 L 2.0179,2.7363 L 2.0327,2.7253 L 2.0376,2.7216 L 2.0796,2.6897 L 2.0844,2.6859 L 2.0989,2.6746 L 2.1038,2.6708 L 2.1450,2.6378 L 2.1497,2.6340 L 2.1640,2.6223 L 2.1687,2.6184 L 2.2091,2.5844 L 2.2137,2.5804 L 2.2277,2.5684 L 2.2323,2.5643 L 2.2718,2.5294 L 2.2764,2.5253 L 2.2900,2.5129 L 2.2945,2.5088 L 2.3332,2.4729 L 2.3377,2.4687 L 2.3510,2.4560 L 2.3554,2.4517 L 2.3932,2.4149 L 2.3975,2.4106 L 2.4106,2.3975 L 2.4149,2.3932 L 2.4517,2.3554 L 2.4560,2.3510 L 2.4687,2.3377 L 2.4729,2.3332 L 2.5088,2.2945 L 2.5129,2.2900 L 2.5253,2.2764 L 2.5294,2.2718 L 2.5643,2.2323 L 2.5684,2.2277 L 2.5804,2.2137 L 2.5844,2.2091 L 2.6184,2.1687 L 2.6223,2.1640 L 2.6340,2.1497 L 2.6378,2.1450 L 2.6708,2.1038 L 2.6746,2.0989 L 2.6859,2.0844 L 2.6897,2.0796 L 2.7216,2.0376 L 2.7253,2.0327 L 2.7363,2.0179 L 2.7399,2.0129 L 2.7708,1.9702 L 2.7744,1.9652 L 2.7850,1.9501 L 2.7885,1.9451 L 2.8183,1.9016 L 2.8218,1.8965 L 2.8320,1.8812 L 2.8354,1.8761 L 2.8641,1.8319 L 2.8675,1.8267 L 2.8773,1.8111 L 2.8805,1.8059 L 2.9082,1.7610 L 2.9114,1.7558 L 2.9209,1.7400 L 2.9240,1.7347 L 2.9506,1.6891 L 2.9536,1.6838 L 2.9627,1.6678 L 2.9657,1.6624 L 2.9911,1.6162 L 2.9941,1.6108 L 3.0027,1.5946 L 3.0056,1.5891 L 3.0299,1.5423 L 3.0327,1.5368 L 3.0410,1.5204 L 3.0437,1.5149 L 3.0668,1.4675 L 3.0695,1.4619 L 3.0774,1.4453 L 3.0800,1.4397 L 3.1019,1.3918 L 3.1044,1.3862 L 3.1119,1.3693 L 3.1144,1.3637 L 3.1351,1.3152 L 3.1375,1.3096 L 3.1446,1.2926 L 3.1469,1.2869 L 3.1665,1.2379 L 3.1687,1.2322 L 3.1753,1.2150 L 3.1775,1.2093 L 3.1959,1.1598 L 3.1980,1.1540 L 3.2042,1.1367 L 3.2062,1.1309 L 3.2234,1.0810 L 3.2254,1.0752 L 3.2311,1.0577 L 3.2330,1.0519 L 3.2490,1.0016 L 3.2508,0.9957 L 3.2561,0.9781 L 3.2579,0.9722 L 3.2726,0.9216 L 3.2742,0.9157 L 3.2791,0.8979 L 3.2807,0.8920 L 3.2942,0.8410 L 3.2957,0.8350 L 3.3002,0.8172 L 3.3017,0.8112 L 3.3138,0.7599 L 3.3152,0.7539 L 3.3193,0.7359 L 3.3206,0.7299 L 3.3315,0.6783 L 3.3327,0.6723 L 3.3363,0.6543 L 3.3375,0.6482 L 3.3471,0.5964 L 3.3482,0.5903 L 3.3514,0.5722 L 3.3524,0.5661 L 3.3608,0.5140 L 3.3617,0.5080 L 3.3644,0.4898 L 3.3653,0.4837 L 3.3724,0.4314 L 3.3732,0.4253 L 3.3754,0.4070 L 3.3761,0.4009 L 3.3819,0.3485 L 3.3826,0.3424 L 3.3844,0.3241 L 3.3849,0.3180 L 3.3895,0.2654 L 3.3900,0.2593 L 3.3913,0.2409 L 3.3917,0.2348 L 3.3950,0.1821 L 3.3953,0.1760 L 3.3962,0.1576 L 3.3965,0.1515 L 3.3984,0.0988 L 3.3986,0.0926 L 3.3991,0.0742 L 3.3992,0.0681 L 3.3998,0.0153 L 3.3998,0.0092 L 3.3998,-0.0092 L 3.3998,-0.0153 L 3.3992,-0.0681 L 3.3991,-0.0742 L 3.3986,-0.0926 Z" fill="none" stroke="red" stroke-width="0.2" fill-rule="evenodd"/>
  <circle cx="4.000" cy="-15.500" r="0.3" fill="blue"/>
  <text x="4.500" y="-16.000" font-size="1.1" font-family="sans-serif" fill="blue">C</text>
  <text x="15" y="-18" fill="red" font-size="3" font-weight="bold">FAIL</text>
</svg>