<?xml version="1.0" encoding="UTF-8"?>
<svg xmlns="http://www.w3.org/2000/svg" viewBox="-25 -25 50 50" width="400" height="400">
  <rect x="-25" y="-25" width="50" height="50" fill="white"/>
  <path d="M 20.0000,15.5000 L 19.9783,15.9411 L 19.9135,16.3779 L 19.8062,16.8063 L 19.6575,17.2221 L 19.4686,17.6213 L 19.2416,18.0001 L 18.9785,18.3548 L 18.6820,18.6820 L 18.3548,18.9785 L 18.0001,19.2416 L 17.6213,19.4686 L 17.2221,19.6575 L 16.8063,19.8062 L 16.3779,19.9135 L 15.9411,19.9783 L 15.5000,20.0000 L -15.5000,20.0000 L -15.9411,19.9783 L -16.3779,19.9135 L -16.8063,19.8062 L -17.2221,19.6575 L -17.6213,19.4686 L -18.0001,19.2416 L -18.3548,18.9785 L -18.6820,18.6820 L -18.9785,18.3548 L -19.2416,18.0001 L -19.4686,17.6213 L -19.6575,17.2221 L -19.8062,16.8063 L -19.9135,16.3779 L -19.9783,15.9411 L -20.0000,15.5000 L -20.0000,-15.5000 L -19.9783,-15.9411 L -19.9135,-16.3779 L -19.8062,-16.8063 L -19.6575,-17.2221 L -19.4686,-17.6213 L -19.2416,-18.0001 L -18.9785,-18.3548 L -18.6820,-18.6820 L -18.3548,-18.9785 L -18.0001,-19.2416 L -17.6213,-19.4686 L -17.2221,-19.6575 L -16.8063,-19.8062 L -16.3779,-19.9135 L -15.9411,-19.9783 L -15.5000,-20.0000 L 15.5000,-20.0000 L 15.9411,-19.9783 L 16.3779,-19.9135 L 16.8063,-19.8062 L 17.2221,-19.6575 L 17.6213,-19.4686 L 18.0001,-19.2416 L 18.3548,-18.9785 L 18.6820,-18.6820 L 18.9785,-18.3548 L 19.2416,-18.0001 L 19.4686,-17.6213 L 19.6575,-17.2221 L 19.8062,-16.8063 L 19.9135,-16.3779 L 19.9783,-15.9411 L 20.0000,-15.5000 L 20.0000,15.5000 Z" fill="none" stroke="red" stroke-width="0.2" fill-rule="evenodd"/>
</svg>