<?xml version="1.0" encoding="UTF-8"?>
<svg xmlns="http://www.w3.org/2000/svg" viewBox="-25 -25 50 50" width="400" height="400">
  <rect x="-25" y="-25" width="50" height="50" fill="white"/>
  <path d="M -7.5000,-3.9509 L -7.5000,-4.0000 L -15.5000,-7.0000 L -15.5100,-4.0000 L -18.0000,-4.0000 L -18.1960,-4.0096 L -18.3902,-4.0384 L -18.5806,-4.0861 L -18.7654,-4.1522 L -18.9428,-4.2362 L -19.1111,-4.3371 L -19.2688,-4.4540 L -19.4142,-4.5858 L -19.5460,-4.7312 L -19.6629,-4.8889 L -19.7638,-5.0572 L -19.8478,-5.2346 L -19.9139,-5.4194 L -19.9616,-5.6098 L -19.9904,-5.8040 L -20.0000,-6.0000 L -20.0000,-15.4509 L -19.9976,-15.5490 L -19.9832,-15.8429 L -19.9639,-16.0383 L -19.9280,-16.2807 L -19.8897,-16.4732 L -19.8301,-16.7110 L -19.7731,-16.8988 L -19.6906,-17.1296 L -19.6154,-17.3109 L -19.5107,-17.5325 L -19.4181,-17.7056 L -19.2921,-17.9158 L -19.1831,-18.0790 L -19.0371,-18.2759 L -18.9126,-18.4276 L -18.7480,-18.6092 L -18.6092,-18.7480 L -18.4276,-18.9126 L -18.2759,-19.0371 L -18.0790,-19.1831 L -17.9158,-19.2921 L -17.7056,-19.4181 L -17.5325,-19.5107 L -17.3109,-19.6154 L -17.1296,-19.6906 L -16.8988,-19.7731 L -16.7110,-19.8301 L -16.4732,-19.8897 L -16.2807,-19.9280 L -16.0383,-19.9639 L -15.8429,-19.9832 L -15.5490,-19.9976 L -15.4509,-20.0000 L -6.0000,-20.0000 L -5.8040,-19.9904 L -5.6098,-19.9616 L -5.4194,-19.9139 L -5.2346,-19.8478 L -5.0572,-19.7638 L -4.8889,-19.6629 L -4.7312,-19.5460 L -4.5858,-19.4142 L -4.4540,-19.2688 L -4.3371,-19.1111 L -4.2362,-18.9428 L -4.1522,-18.7654 L -4.0861,-18.5806 L -4.0384,-18.3902 L -4.0096,-18.1960 L -4.0000,-18.0000 L -4.0000,-15.5100 L -7.0000,-15.5000 L -4.0000,-7.5000 L -3.9509,-7.5000 L 3.9509,-7.5000 L 4.0000,-7.5000 L 7.0000,-15.5000 L 4.0000,-15.5100 L 4.0000,-18.0000 L 4.0096,-18.1960 L 4.0384,-18.3902 L 4.0861,-18.5806 L 4.1522,-18.7654 L 4.2362,-18.9428 L 4.3371,-19.1111 L 4.4540,-19.2688 L 4.5858,-19.4142 L 4.7312,-19.5460 L 4.8889,-19.6629 L 5.0572,-19.7638 L 5.2346,-19.8478 L 5.4194,-19.9139 L 5.6098,-19.9616 L 5.8040,-19.9904 L 6.0000,-20.0000 L 15.4509,-20.0000 L 15.5490,-19.9976 L 15.8429,-19.9832 L 16.0383,-19.9639 L 16.2807,-19.9280 L 16.4732,-19.8897 L 16.7110,-19.8301 L 16.8988,-19.7731 L 17.1296,-19.6906 L 17.3109,-19.6154 L 17.5325,-19.5107 L 17.7056,-19.4181 L 17.9158,-19.2921 L 18.0790,-19.1831 L 18.2759,-19.0371 L 18.4276,-18.9126 L 18.6092,-18.7480 L 18.7480,-18.6092 L 18.9126,-18.4276 L 19.0371,-18.2759 L 19.1831,-18.0790 L 19.2921,-17.9158 L 19.4181,-17.7056 L 19.5107,-17.5325 L 19.6154,-17.3109 L 19.6906,-17.1296 L 19.7731,-16.8988 L 19.8301,-16.7110 L 19.8897,-16.4732 L 19.9280,-16.2807 L 19.9639,-16.0383 L 19.9832,-15.8429 L 19.9976,-15.5490 L 20.0000,-15.4509 L 20.0000,-6.0000 L 19.9904,-5.8040 L 19.9616,-5.6098 L 19.9139,-5.4194 L 19.8478,-5.2346 L 19.7638,-5.0572 L 19.6629,-4.8889 L 19.5460,-4.7312 L 19.4142,-4.5858 L 19.2688,-4.4540 L 19.1111,-4.3371 L 18.9428,-4.2362 L 18.7654,-4.1522 L 18.5806,-4.0861 L 18.3902,-4.0384 L 18.1960,-4.0096 L 18.0000,-4.0000 L 15.5100,-4.0000 L 15.5000,-7.0000 L 7.5000,-4.0000 L 7.5000,-3.9509 L 7.5000,3.9509 L 7.5000,4.0000 L 15.5000,7.0000 L 15.5100,4.0000 L 18.0000,4.0000 L 18.1960,4.0096 L 18.3902,4.0384 L 18.5806,4.0861 L 18.7654,4.1522 L 18.9428,4.2362 L 19.1111,4.3371 L 19.2688,4.4540 L 19.4142,4.5858 L 19.5460,4.7312 L 19.6629,4.8889 L 19.7638,5.0572 L 19.8478,5.2346 L 19.9139,5.4194 L 19.9616,5.6098 L 19.9904,5.8040 L 20.0000,6.0000 L 20.0000,15.4509 L 19.9976,15.5490 L 19.9832,15.8429 L 19.9639,16.0383 L 19.9280,16.2807 L 19.8897,16.4732 L 19.8301,16.7110 L 19.7731,16.8988 L 19.6906,17.1296 L 19.6154,17.3109 L 19.5107,17.5325 L 19.4181,17.7056 L 19.2921,17.9158 L 19.1831,18.0790 L 19.0371,18.2759 L 18.9126,18.4276 L 18.7480,18.6092 L 18.6092,18.7480 L 18.4276,18.9126 L 18.2759,19.0371 L 18.0790,19.1831 L 17.9158,19.2921 L 17.7056,19.4181 L 17.5325,19.5107 L 17.3109,19.6154 L 17.1296,19.6906 L 16.8988,19.7731 L 16.7110,19.8301 L 16.4732,19.8897 L 16.2807,19.9280 L 16.0383,19.9639 L 15.8429,19.9832 L 15.5490,19.9976 L 15.4509,20.0000 L 6.0000,20.0000 L 5.8040,19.9904 L 5.6098,19.9616 L 5.4194,19.9139 L 5.2346,19.8478 L 5.0572,19.7638 L 4.8889,19.6629 L 4.7312,19.5460 L 4.5858,19.4142 L 4.4540,19.2688 L 4.3371,19.1111 L 4.2362,18.9428 L 4.1522,18.7654 L 4.0861,18.5806 L 4.0384,18.3902 L 4.0096,18.1960 L 4.0000,18.0000 L 4.0000,15.5100 L 7.0000,15.5000 L 4.0000,7.5000 L 3.9509,7.5000 L -3.9509,7.5000 L -4.0000,7.5000 L -7.0000,15.5000 L -4.0000,15.5100 L -4.0000,18.0000 L -4.0096,18.1960 L -4.0384,18.3902 L -4.0861,18.5806 L -4.1522,18.7654 L -4.2362,18.9428 L -4.3371,19.1111 L -4.4540,19.2688 L -4.5858,19.4142 L -4.7312,19.5460 L -4.8889,19.6629 L -5.0572,19.7638 L -5.2346,19.8478 L -5.4194,19.9139 L -5.6098,19.9616 L -5.8040,19.9904 L -6.0000,20.0000 L -15.4509,20.0000 L -15.5490,19.9976 L -15.8429,19.9832 L -16.0383,19.9639 L -16.2807,19.9280 L -16.4732,19.8897 L -16.7110,19.8301 L -16.8988,19.7731 L -17.1296,19.6906 L -17.3109,19.6154 L -17.5325,19.5107 L -17.7056,19.4181 L -17.9158,19.2921 L -18.0790,19.1831 L -18.2759,19.0371 L -18.4276,18.9126 L -18.6092,18.7480 L -18.7480,18.6092 L -18.9126,18.4276 L -19.0371,18.2759 L -19.1831,18.0790 L -19.2921,17.9158 L -19.4181,17.7056 L -19.5107,17.5325 L -19.6154,17.3109 L -19.6906,17.1296 L -19.7731,16.8988 L -19.8301,16.7110 L -19.8897,16.4732 L -19.9280,16.2807 L -19.9639,16.0383 L -19.9832,15.8429 L -19.9976,15.5490 L -20.0000,15.4509 L -20.0000,6.0000 L -19.9904,5.8040 L -19.9616,5.6098 L -19.9139,5.4194 L -19.8478,5.2346 L -19.7638,5.0572 L -19.6629,4.8889 L -19.5460,4.7312 L -19.4142,4.5858 L -19.2688,4.4540 L -19.1111,4.3371 L -18.9428,4.2362 L -18.7654,4.1522 L -18.5806,4.0861 L -18.3902,4.0384 L -18.1960,4.0096 L -18.0000,4.0000 L -15.5100,4.0000 L -15.5000,7.0000 L -7.5000,4.0000 L -7.5000,3.9509 L -7.5000,-3.9509 Z M 3.3985,-0.0957 L 3.3964,-0.1546 L 3.3952,-0.1791 L 3.3915,-0.2379 L 3.3897,-0.2623 L 3.3847,-0.3210 L 3.3823,-0.3455 L 3.3758,-0.4040 L 3.3728,-0.4284 L 3.3649,-0.4867 L 3.3613,-0.5110 L 3.3519,-0.5692 L 3.3477,-0.5933 L 3.3369,-0.6512 L 3.3321,-0.6753 L 3.3199,-0.7329 L 3.3146,-0.7569 L 3.3009,-0.8142 L 3.2950,-0.8380 L 3.2800,-0.8950 L 3.2734,-0.9186 L 3.2570,-0.9752 L 3.2499,-0.9987 L 3.2321,-1.0548 L 3.2244,-1.0781 L 3.2052,-1.1338 L 3.1970,-1.1569 L 3.1765,-1.2121 L 3.1676,-1.2350 L 3.1457,-1.2897 L 3.1364,-1.3124 L 3.1131,-1.3665 L 3.1032,-1.3890 L 3.0787,-1.4425 L 3.0682,-1.4647 L 3.0423,-1.5176 L 3.0313,-1.5396 L 3.0042,-1.5919 L 2.9926,-1.6135 L 2.9642,-1.6651 L 2.9521,-1.6865 L 2.9225,-1.7373 L 2.9098,-1.7584 L 2.8789,-1.8085 L 2.8658,-1.8293 L 2.8337,-1.8787 L 2.8201,-1.8991 L 2.7867,-1.9476 L 2.7726,-1.9677 L 2.7381,-2.0154 L 2.7235,-2.0351 L 2.6878,-2.0820 L 2.6727,-2.1014 L 2.6359,-2.1474 L 2.6203,-2.1663 L 2.5824,-2.2114 L 2.5664,-2.2300 L 2.5274,-2.2741 L 2.5109,-2.2923 L 2.4708,-2.3354 L 2.4539,-2.3532 L 2.4127,-2.3954 L 2.3954,-2.4127 L 2.3532,-2.4539 L 2.3354,-2.4708 L 2.2923,-2.5109 L 2.2741,-2.5274 L 2.2300,-2.5664 L 2.2114,-2.5824 L 2.1663,-2.6203 L 2.1474,-2.6359 L 2.1014,-2.6727 L 2.0820,-2.6878 L 2.0351,-2.7235 L 2.0154,-2.7381 L 1.9677,-2.7726 L 1.9476,-2.7867 L 1.8991,-2.8201 L 1.8787,-2.8337 L 1.8293,-2.8658 L 1.8085,-2.8789 L 1.7584,-2.9098 L 1.7373,-2.9225 L 1.6865,-2.9521 L 1.6651,-2.9642 L 1.6135,-2.9926 L 1.5919,-3.0042 L 1.5396,-3.0313 L 1.5176,-3.0423 L 1.4647,-3.0682 L 1.4425,-3.0787 L 1.3890,-3.1032 L 1.3665,-3.1131 L 1.3124,-3.1364 L 1.2897,-3.1457 L 1.2350,-3.1676 L 1.2121,-3.1765 L 1.1569,-3.1970 L 1.1338,-3.2052 L 1.0781,-3.2244 L 1.0548,-3.2321 L 0.9987,-3.2499 L 0.9752,-3.2570 L 0.9186,-3.2734 L 0.8950,-3.2800 L 0.8380,-3.2950 L 0.8142,-3.3009 L 0.7569,-3.3146 L 0.7329,-3.3199 L 0.6753,-3.3321 L 0.6512,-3.3369 L 0.5933,-3.3477 L 0.5692,-3.3519 L 0.5110,-3.3613 L 0.4867,-3.3649 L 0.4284,-3.3728 L 0.4040,-3.3758 L 0.3455,-3.3823 L 0.3210,-3.3847 L 0.2623,-3.3897 L 0.2379,-3.3915 L 0.1791,-3.3952 L 0.1546,-3.3964 L 0.0957,-3.3985 L 0.0712,-3.3991 L 0.0123,-3.3998 L -0.0123,-3.3998 L -0.0712,-3.3991 L -0.0957,-3.3985 L -0.1546,-3.3964 L -0.1791,-3.3952 L -0.2379,-3.3915 L -0.2623,-3.3897 L -0.3210,-3.3847 L -0.3455,-3.3823 L -0.4040,-3.3758 L -0.4284,-3.3728 L -0.4867,-3.3649 L -0.5110,-3.3613 L -0.5692,-3.3519 L -0.5933,-3.3477 L -0.6512,-3.3369 L -0.6753,-3.3321 L -0.7329,-3.3199 L -0.7569,-3.3146 L -0.8142,-3.3009 L -0.8380,-3.2950 L -0.8950,-3.2800 L -0.9186,-3.2734 L -0.9752,-3.2570 L -0.9987,-3.2499 L -1.0548,-3.2321 L -1.0781,-3.2244 L -1.1338,-3.2052 L -1.1569,-3.1970 L -1.2121,-3.1765 L -1.2350,-3.1676 L -1.2897,-3.1457 L -1.3124,-3.1364 L -1.3665,-3.1131 L -1.3890,-3.1032 L -1.4425,-3.0787 L -1.4647,-3.0682 L -1.5176,-3.0423 L -1.5396,-3.0313 L -1.5919,-3.0042 L -1.6135,-2.9926 L -1.6651,-2.9642 L -1.6865,-2.9521 L -1.7373,-2.9225 L -1.7584,-2.9098 L -1.8085,-2.8789 L -1.8293,-2.8658 L -1.8787,-2.8337 L -1.8991,-2.8201 L -1.9476,-2.7867 L -1.9677,-2.7726 L -2.0154,-2.7381 L -2.0351,-2.7235 L -2.0820,-2.6878 L -2.1014,-2.6727 L -2.1474,-2.6359 L -2.1663,-2.6203 L -2.2114,-2.5824 L -2.2300,-2.5664 L -2.2741,-2.5274 L -2.2923,-2.5109 L -2.3354,-2.4708 L -2.3532,-2.4539 L -2.3954,-2.4127 L -2.4127,-2.3954 L -2.4539,-2.3532 L -2.4708,-2.3354 L -2.5109,-2.2923 L -2.5274,-2.2741 L -2.5664,-2.2300 L -2.5824,-2.2114 L -2.6203,-2.1663 L -2.6359,-2.1474 L -2.6727,-2.1014 L -2.6878,-2.0820 L -2.7235,-2.0351 L -2.7381,-2.0154 L -2.7726,-1.9677 L -2.7867,-1.9476 L -2.8201,-1.8991 L -2.8337,-1.8787 L -2.8658,-1.8293 L -2.8789,-1.8085 L -2.9098,-1.7584 L -2.9225,-1.7373 L -2.9521,-1.6865 L -2.9642,-1.6651 L -2.9926,-1.6135 L -3.0042,-1.5919 L -3.0313,-1.5396 L -3.0423,-1.5176 L -3.0682,-1.4647 L -3.0787,-1.4425 L -3.1032,-1.3890 L -3.1131,-1.3665 L -3.1364,-1.3124 L -3.1457,-1.2897 L -3.1676,-1.2350 L -3.1765,-1.2121 L -3.1970,-1.1569 L -3.2052,-1.1338 L -3.2244,-1.0781 L -3.2321,-1.0548 L -3.2499,-0.9987 L -3.2570,-0.9752 L -3.2734,-0.9186 L -3.2800,-0.8950 L -3.2950,-0.8380 L -3.3009,-0.8142 L -3.3146,-0.7569 L -3.3199,-0.7329 L -3.3321,-0.6753 L -3.3369,-0.6512 L -3.3477,-0.5933 L -3.3519,-0.5692 L -3.3613,-0.5110 L -3.3649,-0.4867 L -3.3728,-0.4284 L -3.3758,-0.4040 L -3.3823,-0.3455 L -3.3847,-0.3210 L -3.3897,-0.2623 L -3.3915,-0.2379 L -3.3952,-0.1791 L -3.3964,-0.1546 L -3.3985,-0.0957 L -3.3991,-0.0712 L -3.3998,-0.0123 L -3.3998,0.0123 L -3.3991,0.0712 L -3.3985,0.0957 L -3.3964,0.1546 L -3.3952,0.1791 L -3.3915,0.2379 L -3.3897,0.2623 L -3.3847,0.3210 L -3.3823,0.3455 L -3.3758,0.4040 L -3.3728,0.4284 L -3.3649,0.4867 L -3.3613,0.5110 L -3.3519,0.5692 L -3.3477,0.5933 L -3.3369,0.6512 L -3.3321,0.6753 L -3.3199,0.7329 L -3.3146,0.7569 L -3.3009,0.8142 L -3.2950,0.8380 L -3.2800,0.8950 L -3.2734,0.9186 L -3.2570,0.9752 L -3.2499,0.9987 L -3.2321,1.0548 L -3.2244,1.0781 L -3.2052,1.1338 L -3.1970,1.1569 L -3.1765,1.2121 L -3.1676,1.2350 L -3.1457,1.2897 L -3.1364,1.3124 L -3.1131,1.3665 L -3.1032,1.3890 L -3.0787,1.4425 L -3.0682,1.4647 L -3.0423,1.5176 L -3.0313,1.5396 L -3.0042,1.5919 L -2.9926,1.6135 L -2.9642,1.6651 L -2.9521,1.6865 L -2.9225,1.7373 L -2.9098,1.7584 L -2.8789,1.8085 L -2.8658,1.8293 L -2.8337,1.8787 L -2.8201,1.8991 L -2.7867,1.9476 L -2.7726,1.9677 L -2.7381,2.0154 L -2.7235,2.0351 L -2.6878,2.0820 L -2.6727,2.1014 L -2.6359,2.1474 L -2.6203,2.1663 L -2.5824,2.2114 L -2.5664,2.2300 L -2.5274,2.2741 L -2.5109,2.2923 L -2.4708,2.3354 L -2.4539,2.3532 L -2.4127,2.3954 L -2.3954,2.4127 L -2.3532,2.4539 L -2.3354,2.4708 L -2.2923,2.5109 L -2.2741,2.5274 L -2.2300,2.5664 L -2.2114,2.5824 L -2.1663,2.6203 L -2.1474,2.6359 L -2.1014,2.6727 L -2.0820,2.6878 L -2.0351,2.7235 L -2.0154,2.7381 L -1.9677,2.7726 L -1.9476,2.7867 L -1.8991,2.8201 L -1.8787,2.8337 L -1.8293,2.8658 L -1.8085,2.8789 L -1.7584,2.9098 L -1.7373,2.9225 L -1.6865,2.9521 L -1.6651,2.9642 L -1.6135,2.9926 L -1.5919,3.0042 L -1.5396,3.0313 L -1.5176,3.0423 L -1.4647,3.0682 L -1.4425,3.0787 L -1.3890,3.1032 L -1.3665,3.1131 L -1.3124,3.1364 L -1.2897,3.1457 L -1.2350,3.1676 L -1.2121,3.1765 L -1.1569,3.1970 L -1.1338,3.2052 L -1.0781,3.2244 L -1.0548,3.2321 L -0.9987,3.2499 L -0.9752,3.2570 L -0.9186,3.2734 L -0.8950,3.2800 L -0.8380,3.2950 L -0.8142,3.3009 L -0.7569,3.3146 L -0.7329,3.3199 L -0.6753,3.3321 L -0.6512,3.3369 L -0.5933,3.3477 L -0.5692,3.3519 L -0.5110,3.3613 L -0.4867,3.3649 L -0.4284,3.3728 L -0.4040,3.3758 L -0.3455,3.3823 L -0.3210,3.3847 L -0.2623,3.3897 L -0.2379,3.3915 L -0.1791,3.3952 L -0.1546,3.3964 L -0.0957,3.3985 L -0.0712,3.3991 L -0.0123,3.3998 L 0.0123,3.3998 L 0.0712,3.3991 L 0.0957,3.3985 L 0.1546,3.3964 L 0.1791,3.3952 L 0.2379,3.3915 L 0.2623,3.3897 L 0.3210,3.3847 L 0.3455,3.3823 L 0.4040,3.3758 L 0.4284,3.3728 L 0.4867,3.3649 L 0.5110,3.3613 L 0.5692,3.3519 L 0.5933,3.3477 L 0.6512,3.3369 L 0.6753,3.3321 L 0.7329,3.3199 L 0.7569,3.3146 L 0.8142,3.3009 L 0.8380,3.2950 L 0.8950,3.2800 L 0.9186,3.2734 L 0.9752,3.2570 L 0.9987,3.2499 L 1.0548,3.2321 L 1.0781,3.2244 L 1.1338,3.2052 L 1.1569,3.1970 L 1.2121,3.1765 L 1.2350,3.1676 L 1.2897,3.1457 L 1.3124,3.1364 L 1.3665,3.1131 L 1.3890,3.1032 L 1.4425,3.0787 L 1.4647,3.0682 L 1.5176,3.0423 L 1.5396,3.0313 L 1.5919,3.0042 L 1.6135,2.9926 L 1.6651,2.9642 L 1.6865,2.9521 L 1.7373,2.9225 L 1.7584,2.9098 L 1.8085,2.8789 L 1.8293,2.8658 L 1.8787,2.8337 L 1.8991,2.8201 L 1.9476,2.7867 L 1.9677,2.7726 L 2.0154,2.7381 L 2.0351,2.7235 L 2.0820,2.6878 L 2.1014,2.6727 L 2.1474,2.6359 L 2.1663,2.6203 L 2.2114,2.5824 L 2.2300,2.5664 L 2.2741,2.5274 L 2.2923,2.5109 L 2.3354,2.4708 L 2.3532,2.4539 L 2.3954,2.4127 L 2.4127,2.3954 L 2.4539,2.3532 L 2.4708,2.3354 L 2.5109,2.2923 L 2.5274,2.2741 L 2.5664,2.2300 L 2.5824,2.2114 L 2.6203,2.1663 L 2.6359,2.1474 L 2.6727,2.1014 L 2.6878,2.0820 L 2.7235,2.0351 L 2.7381,2.0154 L 2.7726,1.9677 L 2.7867,1.9476 L 2.8201,1.8991 L 2.8337,1.8787 L 2.8658,1.8293 L 2.8789,1.8085 L 2.9098,1.7584 L 2.9225,1.7373 L 2.9521,1.6865 L 2.9642,1.6651 L 2.9926,1.6135 L 3.0042,1.5919 L 3.0313,1.5396 L 3.0423,1.5176 L 3.0682,1.4647 L 3.0787,1.4425 L 3.1032,1.3890 L 3.1131,1.3665 L 3.1364,1.3124 L 3.1457,1.2897 L 3.1676,1.2350 L 3.1765,1.2121 L 3.1970,1.1569 L 3.2052,1.1338 L 3.2244,1.0781 L 3.2321,1.0548 L 3.2499,0.9987 L 3.2570,0.9752 L 3.2734,0.9186 L 3.2800,0.8950 L 3.2950,0.8380 L 3.3009,0.8142 L 3.3146,0.7569 L 3.3199,0.7329 L 3.3321,0.6753 L 3.3369,0.6512 L 3.3477,0.5933 L 3.3519,0.5692 L 3.3613,0.5110 L 3.3649,0.4867 L 3.3728,0.4284 L 3.3758,0.4040 L 3.3823,0.3455 L 3.3847,0.3210 L 3.3897,0.2623 L 3.3915,0.2379 L 3.3952,0.1791 L 3.3964,0.1546 L 3.3985,0.0957 L 3.3991,0.0712 L 3.3998,0.0123 L 3.3998,-0.0123 L 3.3991,-0.0712 L 3.3985,-0.0957 Z" fill="none" stroke="red" stroke-width="0.3" fill-rule="evenodd"/>
  <path d="M 4.0000,-7.5000 A 8.0000,8.0000 0 0,1 9.5000,-13.3095" fill="none" stroke="darkred" stroke-width="0.35"/>
  <line x1="9.5000" y1="-13.3095" x2="9.5000" y2="-15.5000" stroke="darkred" stroke-width="0.25"/>
  <path d="M 9.5000,-15.5000 A 2.5000,2.5000 0 0,1 7.0000,-18.0000" fill="none" stroke="darkred" stroke-width="0.35"/>
  <line x1="7.0000" y1="-18.0000" x2="7.0000" y2="-15.5000" stroke="darkred" stroke-width="0.25"/>
  <path d="M -4.0000,-7.5000 A 8.0000,8.0000 0 0,0 -9.5000,-13.3095" fill="none" stroke="darkred" stroke-width="0.35"/>
  <line x1="-9.5000" y1="-13.3095" x2="-9.5000" y2="-15.5000" stroke="darkred" stroke-width="0.25"/>
  <path d="M -9.5000,-15.5000 A 2.5000,2.5000 0 0,0 -7.0000,-18.0000" fill="none" stroke="darkred" stroke-width="0.35"/>
  <line x1="-7.0000" y1="-18.0000" x2="-7.0000" y2="-15.5000" stroke="darkred" stroke-width="0.25"/>
  <path d="M -7.5000,-4.0000 A 8.0000,8.0000 0 0,1 -13.3095,-9.5000" fill="none" stroke="darkred" stroke-width="0.35"/>
  <line x1="-13.3095" y1="-9.5000" x2="-15.5000" y2="-9.5000" stroke="darkred" stroke-width="0.25"/>
  <path d="M -15.5000,-9.5000 A 2.5000,2.5000 0 0,1 -18.0000,-7.0000" fill="none" stroke="darkred" stroke-width="0.35"/>
  <line x1="-18.0000" y1="-7.0000" x2="-15.5000" y2="-7.0000" stroke="darkred" stroke-width="0.25"/>
  <path d="M -7.5000,4.0000 A 8.0000,8.0000 0 0,0 -13.3095,9.5000" fill="none" stroke="darkred" stroke-width="0.35"/>
  <line x1="-13.3095" y1="9.5000" x2="-15.5000" y2="9.5000" stroke="darkred" stroke-width="0.25"/>
  <path d="M -15.5000,9.5000 A 2.5000,2.5000 0 0,0 -18.0000,7.0000" fill="none" stroke="darkred" stroke-width="0.35"/>
  <line x1="-18.0000" y1="7.0000" x2="-15.5000" y2="7.0000" stroke="darkred" stroke-width="0.25"/>
  <path d="M -4.0000,7.5000 A 8.0000,8.0000 0 0,1 -9.5000,13.3095" fill="none" stroke="darkred" stroke-width="0.35"/>
  <line x1="-9.5000" y1="13.3095" x2="-9.5000" y2="15.5000" stroke="darkred" stroke-width="0.25"/>
  <path d="M -9.5000,15.5000 A 2.5000,2.5000 0 0,1 -7.0000,18.0000" fill="none" stroke="darkred" stroke-width="0.35"/>
  <line x1="-7.0000" y1="18.0000" x2="-7.0000" y2="15.5000" stroke="darkred" stroke-width="0.25"/>
  <path d="M 4.0000,7.5000 A 8.0000,8.0000 0 0,0 9.5000,13.3095" fill="none" stroke="darkred" stroke-width="0.35"/>
  <line x1="9.5000" y1="13.3095" x2="9.5000" y2="15.5000" stroke="darkred" stroke-width="0.25"/>
  <path d="M 9.5000,15.5000 A 2.5000,2.5000 0 0,0 7.0000,18.0000" fill="none" stroke="darkred" stroke-width="0.35"/>
  <line x1="7.0000" y1="18.0000" x2="7.0000" y2="15.5000" stroke="darkred" stroke-width="0.25"/>
  <path d="M 7.5000,4.0000 A 8.0000,8.0000 0 0,1 13.3095,9.5000" fill="none" stroke="darkred" stroke-width="0.35"/>
  <line x1="13.3095" y1="9.5000" x2="15.5000" y2="9.5000" stroke="darkred" stroke-width="0.25"/>
  <path d="M 15.5000,9.5000 A 2.5000,2.5000 0 0,1 18.0000,7.0000" fill="none" stroke="darkred" stroke-width="0.35"/>
  <line x1="18.0000" y1="7.0000" x2="15.5000" y2="7.0000" stroke="darkred" stroke-width="0.25"/>
  <path d="M 7.5000,-4.0000 A 8.0000,8.0000 0 0,0 13.3095,-9.5000" fill="none" stroke="darkred" stroke-width="0.35"/>
  <line x1="13.3095" y1="-9.5000" x2="15.5000" y2="-9.5000" stroke="darkred" stroke-width="0.25"/>
  <path d="M 15.5000,-9.5000 A 2.5000,2.5000 0 0,0 18.0000,-7.0000" fill="none" stroke="darkred" stroke-width="0.35"/>
  <line x1="18.0000" y1="-7.0000" x2="15.5000" y2="-7.0000" stroke="darkred" stroke-width="0.25"/>
  <text x="15" y="-18" fill="red" font-size="3.5" font-weight="bold"
        font-family="sans-serif">FAIL</text>
  <text x="0" y="23" text-anchor="middle" fill="#666" font-size="1.4" font-family="sans-serif">v2.py: SVG-Boegen in falsche Richtung (konvex statt konkav)</text>
</svg>