<?xml version="1.0" encoding="UTF-8"?>
<svg xmlns="http://www.w3.org/2000/svg"
     width="297mm" height="210mm"
     viewBox="0 0 297 210">
  <defs>
    <style>
      .visible { stroke: black; stroke-width: 0.25; fill: none; }
      .hidden  { stroke: black; stroke-width: 0.1; fill: none;
                  stroke-dasharray: 2,1; }
      .center  { stroke: red;   stroke-width: 0.1; fill: none;
                  stroke-dasharray: 4,1,1,1; }
      .dim     { stroke: black; stroke-width: 0.1; fill: none; }
      .proj    { stroke: #888;  stroke-width: 0.1; fill: none; }
      .fill-section { fill: #dde; stroke: black; stroke-width: 0.25; }
      .fill-light   { fill: #f5f5f5; stroke: black; stroke-width: 0.25; }
      text { font-family: Arial, sans-serif; }
    </style>
  </defs>
  <!-- Drawing frame: 20mm left, 10mm other sides -->
  <rect x="20" y="10" width="267" height="190"
        stroke="black" stroke-width="0.5" fill="none"/>
  <!-- Title block -->
  <rect x="197" y="185" width="90" height="15"
        stroke="black" stroke-width="0.35" fill="white"/>
  <text x="200" y="193" font-size="3.5" fill="black">Aufgabe 2: Schraegriss (Kavalierprojekt.) Quader</text>
  <text x="200" y="198" font-size="2.5" fill="black">GZ Sekundarstufe I | CAD_by_AI</text>
  <polygon points="80.00,140.00 160.00,140.00 160.00,110.00 80.00,110.00" class="visible"/>
  <line x1="97.68" y1="92.32" x2="177.68" y2="92.32" class="visible"/>
  <line x1="177.68" y1="92.32" x2="177.68" y2="122.32" class="visible"/>
  <line x1="80.00" y1="110.00" x2="97.68" y2="92.32" class="visible"/>
  <line x1="160.00" y1="110.00" x2="177.68" y2="92.32" class="visible"/>
  <line x1="160.00" y1="140.00" x2="177.68" y2="122.32" class="visible"/>
  <line x1="97.68" y1="122.32" x2="177.68" y2="122.32" class="hidden"/>
  <line x1="97.68" y1="122.32" x2="97.68" y2="92.32" class="hidden"/>
  <line x1="80.00" y1="140.00" x2="97.68" y2="122.32" class="hidden"/>
  <text x="120.00" y="146.00" font-size="3.5" text-anchor="middle" fill="black">Breite = 80 mm</text>
  <text x="75.00" y="125.00" font-size="2.8" text-anchor="end" fill="black">Höhe = 30</text>
  <text x="171.84" y="133.16" font-size="2.8" text-anchor="start" fill="black">Tiefe = 50</text>
  <text x="165.00" y="142.00" font-size="3" text-anchor="start" fill="blue">x</text>
  <text x="78.00" y="107.00" font-size="3" text-anchor="end" fill="blue">z</text>
  <text x="100.68" y="120.32" font-size="3" text-anchor="start" fill="blue">y</text>
  <text x="153.00" y="40.00" font-size="5" text-anchor="middle" fill="black">Kavalierprojektion</text>
  <text x="153.00" y="47.00" font-size="3" text-anchor="middle" fill="#555">Verkürzung Tiefe: 1:2, Winkel: 45°</text>
</svg>
