<?xml version="1.0" encoding="UTF-8"?>
<svg xmlns="http://www.w3.org/2000/svg"
     width="297mm" height="210mm"
     viewBox="0 0 297 210">
  <defs>
    <style>
      .visible { stroke: black; stroke-width: 0.25; fill: none; }
      .hidden  { stroke: black; stroke-width: 0.1; fill: none;
                  stroke-dasharray: 2,1; }
      .center  { stroke: red;   stroke-width: 0.1; fill: none;
                  stroke-dasharray: 4,1,1,1; }
      .dim     { stroke: black; stroke-width: 0.1; fill: none; }
      .proj    { stroke: #888;  stroke-width: 0.1; fill: none; }
      .fill-section { fill: #dde; stroke: black; stroke-width: 0.25; }
      .fill-light   { fill: #f5f5f5; stroke: black; stroke-width: 0.25; }
      text { font-family: Arial, sans-serif; }
    </style>
  </defs>
  <!-- Drawing frame: 20mm left, 10mm other sides -->
  <rect x="20" y="10" width="267" height="190"
        stroke="black" stroke-width="0.5" fill="none"/>
  <!-- Title block -->
  <rect x="197" y="185" width="90" height="15"
        stroke="black" stroke-width="0.35" fill="white"/>
  <text x="200" y="193" font-size="3.5" fill="black">Aufgabe 1: Dreitafelprojektion Quader 80 x 50 x 30</text>
  <text x="200" y="198" font-size="2.5" fill="black">GZ Sekundarstufe I | CAD_by_AI</text>
  <text x="122.00" y="27.00" font-size="3.5" text-anchor="middle" fill="black">Aufriss (Vorderansicht)</text>
  <rect x="90.00" y="30.00" width="64.00" height="24.00" class="visible"/>
  <text x="122.00" y="66.00" font-size="3.5" text-anchor="middle" fill="black">Grundriss (Draufsicht)</text>
  <rect x="90.00" y="69.00" width="64.00" height="40.00" class="visible"/>
  <text x="189.00" y="27.00" font-size="3.5" text-anchor="middle" fill="black">Kreuzriss (Seitenansicht)</text>
  <rect x="169.00" y="30.00" width="40.00" height="24.00" class="visible"/>
  <line x1="20" y1="61.50" x2="287" y2="61.50" stroke="#C00" stroke-width="0.3"/>
  <line x1="161.50" y1="10" x2="161.50" y2="200" stroke="#C00" stroke-width="0.3"/>
  <line x1="90.00" y1="54.00" x2="90.00" y2="69.00" class="proj"/>
  <line x1="154.00" y1="54.00" x2="154.00" y2="69.00" class="proj"/>
  <line x1="154.00" y1="30.00" x2="169.00" y2="30.00" class="proj"/>
  <line x1="154.00" y1="54.00" x2="169.00" y2="54.00" class="proj"/>
  <line x1="154.00" y1="69.00" x2="161.50" y2="69.00" class="proj"/>
  <path d="M 161.50,69.00 A 7.50,7.50 0 0,0 169.00,61.50" fill="none" stroke="#aaa" stroke-width="0.08"/>
  <line x1="169.00" y1="61.50" x2="169.00" y2="30.00" class="proj"/>
  <line x1="154.00" y1="109.00" x2="161.50" y2="109.00" class="proj"/>
  <path d="M 161.50,109.00 A 47.50,47.50 0 0,0 209.00,61.50" fill="none" stroke="#aaa" stroke-width="0.08"/>
  <line x1="209.00" y1="61.50" x2="209.00" y2="30.00" class="proj"/>
  <text x="122.00" y="59.00" font-size="2.8" text-anchor="middle" fill="#333">80</text>
  <text x="86.00" y="42.00" font-size="2.8" text-anchor="middle" fill="#333">30</text>
  <text x="158.00" y="89.00" font-size="2.8" text-anchor="middle" fill="#333">50</text>
</svg>
