<?xml version="1.0" encoding="UTF-8"?>
<svg xmlns="http://www.w3.org/2000/svg"
     width="297mm" height="210mm"
     viewBox="0 0 297 210">
  <defs>
    <style>
      .visible { stroke: black; stroke-width: 0.25; fill: none; }
      .hidden  { stroke: black; stroke-width: 0.1; fill: none;
                  stroke-dasharray: 2,1; }
      .center  { stroke: red;   stroke-width: 0.1; fill: none;
                  stroke-dasharray: 4,1,1,1; }
      .dim     { stroke: black; stroke-width: 0.1; fill: none; }
      .proj    { stroke: #888;  stroke-width: 0.1; fill: none; }
      .fill-section { fill: #dde; stroke: black; stroke-width: 0.25; }
      .fill-light   { fill: #f5f5f5; stroke: black; stroke-width: 0.25; }
      text { font-family: Arial, sans-serif; }
    </style>
  </defs>
  <!-- Drawing frame: 20mm left, 10mm other sides -->
  <rect x="20" y="10" width="267" height="190"
        stroke="black" stroke-width="0.5" fill="none"/>
  <!-- Title block -->
  <rect x="197" y="185" width="90" height="15"
        stroke="black" stroke-width="0.35" fill="white"/>
  <text x="200" y="193" font-size="3.5" fill="black">Aufgabe 4: Abwicklung (Netz) Würfel 40mm</text>
  <text x="200" y="198" font-size="2.5" fill="black">GZ Sekundarstufe I | CAD_by_AI</text>
  <rect x="100.00" y="25.00" width="40.00" height="40.00" class="visible"/>
  <text x="120.00" y="46.00" font-size="3" text-anchor="middle" fill="#888">Oben</text>
  <rect x="100.00" y="65.00" width="40.00" height="40.00" class="visible"/>
  <text x="120.00" y="86.00" font-size="3" text-anchor="middle" fill="#888">Vorne</text>
  <rect x="100.00" y="105.00" width="40.00" height="40.00" class="visible"/>
  <text x="120.00" y="126.00" font-size="3" text-anchor="middle" fill="#888">Unten</text>
  <rect x="100.00" y="145.00" width="40.00" height="40.00" class="visible"/>
  <text x="120.00" y="166.00" font-size="3" text-anchor="middle" fill="#888">Hinten</text>
  <rect x="60.00" y="65.00" width="40.00" height="40.00" class="visible"/>
  <text x="80.00" y="86.00" font-size="3" text-anchor="middle" fill="#888">Links</text>
  <rect x="140.00" y="65.00" width="40.00" height="40.00" class="visible"/>
  <text x="160.00" y="86.00" font-size="3" text-anchor="middle" fill="#888">Rechts</text>
  <line x1="100.00" y1="65.00" x2="140.00" y2="65.00" class="hidden"/>
  <line x1="100.00" y1="105.00" x2="140.00" y2="105.00" class="hidden"/>
  <line x1="100.00" y1="145.00" x2="140.00" y2="145.00" class="hidden"/>
  <line x1="100.00" y1="65.00" x2="100.00" y2="105.00" class="hidden"/>
  <line x1="140.00" y1="65.00" x2="140.00" y2="105.00" class="hidden"/>
  <text x="120.00" y="20.00" font-size="4.5" text-anchor="middle" fill="black">Netz eines Würfels</text>
  <text x="120.00" y="24.00" font-size="3" text-anchor="middle" fill="#555">Kantenlaenge a = 40 mm</text>
</svg>
