<?xml version="1.0" encoding="UTF-8"?>
<svg xmlns="http://www.w3.org/2000/svg"
     width="297mm" height="210mm"
     viewBox="0 0 297 210">
  <defs>
    <style>
      .visible { stroke: black; stroke-width: 0.25; fill: none; }
      .hidden  { stroke: black; stroke-width: 0.1; fill: none;
                  stroke-dasharray: 2,1; }
      .center  { stroke: red;   stroke-width: 0.1; fill: none;
                  stroke-dasharray: 4,1,1,1; }
      .dim     { stroke: black; stroke-width: 0.1; fill: none; }
      .proj    { stroke: #888;  stroke-width: 0.1; fill: none; }
      .fill-section { fill: #dde; stroke: black; stroke-width: 0.25; }
      .fill-light   { fill: #f5f5f5; stroke: black; stroke-width: 0.25; }
      text { font-family: Arial, sans-serif; }
    </style>
  </defs>
  <!-- Drawing frame: 20mm left, 10mm other sides -->
  <rect x="20" y="10" width="267" height="190"
        stroke="black" stroke-width="0.5" fill="none"/>
  <!-- Title block -->
  <rect x="197" y="185" width="90" height="15"
        stroke="black" stroke-width="0.35" fill="white"/>
  <text x="200" y="193" font-size="3.5" fill="black">Aufgabe 8: Ebenenschnitt Würfel (diagonal)</text>
  <text x="200" y="198" font-size="2.5" fill="black">GZ Sekundarstufe I | CAD_by_AI</text>
  <polygon points="70.00,140.00 118.00,140.00 118.00,92.00 70.00,92.00" class="visible"/>
  <line x1="86.97" y1="75.03" x2="134.97" y2="75.03" class="visible"/>
  <line x1="134.97" y1="75.03" x2="134.97" y2="123.03" class="visible"/>
  <line x1="86.97" y1="123.03" x2="134.97" y2="123.03" class="hidden"/>
  <line x1="86.97" y1="123.03" x2="86.97" y2="75.03" class="hidden"/>
  <line x1="70.00" y1="92.00" x2="86.97" y2="75.03" class="visible"/>
  <line x1="118.00" y1="92.00" x2="134.97" y2="75.03" class="visible"/>
  <line x1="118.00" y1="140.00" x2="134.97" y2="123.03" class="visible"/>
  <line x1="70.00" y1="140.00" x2="86.97" y2="123.03" class="hidden"/>
  <polygon points="70.00,92.00 118.00,140.00 134.97,123.03 86.97,75.03" fill="#6699ff" fill-opacity="0.3" stroke="black" stroke-width="0.25"/>
  <line x1="70.00" y1="92.00" x2="118.00" y2="140.00" class="visible"/>
  <line x1="118.00" y1="140.00" x2="134.97" y2="123.03" class="visible"/>
  <line x1="134.97" y1="123.03" x2="86.97" y2="75.03" class="visible"/>
  <line x1="86.97" y1="75.03" x2="70.00" y2="92.00" class="visible"/>
  <text x="153.00" y="30.00" font-size="4.5" text-anchor="middle" fill="black">Ebenenschnitt durch einen Würfel</text>
  <text x="153.00" y="37.00" font-size="3" text-anchor="middle" fill="#555">Diagonale Schnittebene (blau hervorgehoben)</text>
  <text x="153.00" y="170.00" font-size="3" text-anchor="middle" fill="#555">Würfel a = 60 mm</text>
</svg>
