<?xml version="1.0" encoding="UTF-8"?>
<svg xmlns="http://www.w3.org/2000/svg"
     width="297mm" height="210mm"
     viewBox="0 0 297 210">
  <defs>
    <style>
      .visible { stroke: black; stroke-width: 0.25; fill: none; }
      .hidden  { stroke: black; stroke-width: 0.1; fill: none;
                  stroke-dasharray: 2,1; }
      .center  { stroke: red;   stroke-width: 0.1; fill: none;
                  stroke-dasharray: 4,1,1,1; }
      .dim     { stroke: black; stroke-width: 0.1; fill: none; }
      .proj    { stroke: #888;  stroke-width: 0.1; fill: none; }
      .fill-section { fill: #dde; stroke: black; stroke-width: 0.25; }
      .fill-light   { fill: #f5f5f5; stroke: black; stroke-width: 0.25; }
      text { font-family: Arial, sans-serif; }
    </style>
  </defs>
  <!-- Drawing frame: 20mm left, 10mm other sides -->
  <rect x="20" y="10" width="267" height="190"
        stroke="black" stroke-width="0.5" fill="none"/>
  <!-- Title block -->
  <rect x="197" y="185" width="90" height="15"
        stroke="black" stroke-width="0.35" fill="white"/>
  <text x="200" y="193" font-size="3.5" fill="black">Aufgabe 3: Normalriss Pyramide (60 x 60, h=80)</text>
  <text x="200" y="198" font-size="2.5" fill="black">GZ Sekundarstufe I | CAD_by_AI</text>
  <line x1="55.00" y1="94.00" x2="103.00" y2="94.00" class="visible"/>
  <line x1="55.00" y1="94.00" x2="79.00" y2="30.00" class="visible"/>
  <line x1="103.00" y1="94.00" x2="79.00" y2="30.00" class="visible"/>
  <line x1="79.00" y1="27.00" x2="79.00" y2="97.00" class="center"/>
  <text x="79.00" y="25.00" font-size="3.5" text-anchor="middle" fill="black">Aufriss</text>
  <rect x="55.00" y="109.00" width="48.00" height="48.00" class="visible"/>
  <line x1="55.00" y1="109.00" x2="103.00" y2="157.00" class="visible"/>
  <line x1="103.00" y1="109.00" x2="55.00" y2="157.00" class="visible"/>
  <circle cx="79.00" cy="133.00" r="0.50" class="visible"/>
  <line x1="79.00" y1="106.00" x2="79.00" y2="160.00" class="center"/>
  <line x1="52.00" y1="133.00" x2="106.00" y2="133.00" class="center"/>
  <text x="79.00" y="104.00" font-size="3.5" text-anchor="middle" fill="black">Grundriss</text>
  <line x1="118.00" y1="94.00" x2="166.00" y2="94.00" class="visible"/>
  <line x1="118.00" y1="94.00" x2="142.00" y2="30.00" class="visible"/>
  <line x1="166.00" y1="94.00" x2="142.00" y2="30.00" class="visible"/>
  <line x1="142.00" y1="27.00" x2="142.00" y2="97.00" class="center"/>
  <text x="142.00" y="25.00" font-size="3.5" text-anchor="middle" fill="black">Kreuzriss</text>
  <line x1="20" y1="101.50" x2="287" y2="101.50" stroke="#C00" stroke-width="0.3"/>
  <line x1="110.50" y1="10" x2="110.50" y2="200" stroke="#C00" stroke-width="0.3"/>
  <line x1="55.00" y1="27.00" x2="55.00" y2="160.00" stroke="#888" stroke-width="0.1"/>
  <line x1="103.00" y1="27.00" x2="103.00" y2="160.00" stroke="#888" stroke-width="0.1"/>
  <line x1="79.00" y1="27.00" x2="79.00" y2="160.00" stroke="#888" stroke-width="0.1"/>
  <line x1="52.00" y1="30.00" x2="169.00" y2="30.00" stroke="#888" stroke-width="0.1"/>
  <line x1="52.00" y1="94.00" x2="169.00" y2="94.00" stroke="#888" stroke-width="0.1"/>
  <line x1="52.00" y1="30.00" x2="169.00" y2="30.00" stroke="#888" stroke-width="0.1"/>
  <line x1="103.00" y1="109.00" x2="110.50" y2="109.00" stroke="#888" stroke-width="0.1"/>
  <path d="M 110.50,109.00 A 7.50,7.50 0 0,0 118.00,101.50" fill="none" stroke="#888" stroke-width="0.1"/>
  <line x1="118.00" y1="101.50" x2="118.00" y2="27.00" stroke="#888" stroke-width="0.1"/>
  <line x1="103.00" y1="157.00" x2="110.50" y2="157.00" stroke="#888" stroke-width="0.1"/>
  <path d="M 110.50,157.00 A 55.50,55.50 0 0,0 166.00,101.50" fill="none" stroke="#888" stroke-width="0.1"/>
  <line x1="166.00" y1="101.50" x2="166.00" y2="27.00" stroke="#888" stroke-width="0.1"/>
  <text x="79.00" y="100.00" font-size="2.8" text-anchor="middle" fill="#333">60</text>
  <text x="50.00" y="62.00" font-size="2.8" text-anchor="end" fill="#333">80</text>
</svg>
