<?xml version="1.0" encoding="UTF-8"?>
<svg xmlns="http://www.w3.org/2000/svg"
     width="297mm" height="210mm"
     viewBox="0 0 297 210">
  <defs>
    <style>
      .visible { stroke: black; stroke-width: 0.25; fill: none; }
      .hidden  { stroke: black; stroke-width: 0.1; fill: none;
                  stroke-dasharray: 2,1; }
      .center  { stroke: red;   stroke-width: 0.1; fill: none;
                  stroke-dasharray: 4,1,1,1; }
      .dim     { stroke: black; stroke-width: 0.1; fill: none; }
      .proj    { stroke: #888;  stroke-width: 0.1; fill: none; }
      .fill-section { fill: #dde; stroke: black; stroke-width: 0.25; }
      .fill-light   { fill: #f5f5f5; stroke: black; stroke-width: 0.25; }
      text { font-family: Arial, sans-serif; }
    </style>
  </defs>
  <!-- Drawing frame: 20mm left, 10mm other sides -->
  <rect x="20" y="10" width="267" height="190"
        stroke="black" stroke-width="0.5" fill="none"/>
  <!-- Title block -->
  <rect x="197" y="185" width="90" height="15"
        stroke="black" stroke-width="0.35" fill="white"/>
  <text x="200" y="193" font-size="3.5" fill="black">Aufgabe 10: Quader mit aufgesetzter Pyramide</text>
  <text x="200" y="198" font-size="2.5" fill="black">GZ Sekundarstufe I | CAD_by_AI</text>
  <polygon points="80.00,160.00 125.00,160.00 125.00,130.00 80.00,130.00" class="visible"/>
  <line x1="95.91" y1="114.09" x2="140.91" y2="114.09" class="hidden"/>
  <line x1="140.91" y1="114.09" x2="140.91" y2="144.09" class="visible"/>
  <line x1="95.91" y1="144.09" x2="140.91" y2="144.09" class="hidden"/>
  <line x1="95.91" y1="144.09" x2="95.91" y2="114.09" class="hidden"/>
  <line x1="80.00" y1="130.00" x2="95.91" y2="114.09" class="hidden"/>
  <line x1="125.00" y1="130.00" x2="140.91" y2="114.09" class="hidden"/>
  <line x1="125.00" y1="160.00" x2="140.91" y2="144.09" class="visible"/>
  <line x1="80.00" y1="160.00" x2="95.91" y2="144.09" class="hidden"/>
  <line x1="80.00" y1="130.00" x2="110.45" y2="84.55" class="visible"/>
  <line x1="125.00" y1="130.00" x2="110.45" y2="84.55" class="visible"/>
  <line x1="140.91" y1="114.09" x2="110.45" y2="84.55" class="visible"/>
  <line x1="95.91" y1="114.09" x2="110.45" y2="84.55" class="hidden"/>
  <line x1="80.00" y1="130.00" x2="125.00" y2="130.00" class="visible"/>
  <line x1="125.00" y1="130.00" x2="140.91" y2="114.09" class="visible"/>
  <line x1="80.00" y1="130.00" x2="140.91" y2="114.09" stroke="#aaa" stroke-width="0.08"/>
  <line x1="125.00" y1="130.00" x2="95.91" y2="114.09" stroke="#aaa" stroke-width="0.08"/>
  <line x1="110.45" y1="124.05" x2="110.45" y2="81.55" class="center"/>
  <text x="153.00" y="25.00" font-size="5" text-anchor="middle" fill="black">Zusammengesetzter Körper</text>
  <text x="153.00" y="32.00" font-size="3.5" text-anchor="middle" fill="#555">Quader mit aufgesetzter Pyramide</text>
  <text x="102.50" y="167.00" font-size="2.8" text-anchor="middle" fill="#333">Quader: 60 x 60 x 40 mm</text>
  <text x="102.50" y="172.00" font-size="2.8" text-anchor="middle" fill="#333">Pyramide: Basis 60 x 60, h=50 mm</text>
</svg>
