<?xml version="1.0" encoding="UTF-8"?>
<svg xmlns="http://www.w3.org/2000/svg"
     width="297mm" height="210mm"
     viewBox="0 0 297 210">
  <defs>
    <style>
      .visible { stroke: black; stroke-width: 0.25; fill: none; }
      .hidden  { stroke: black; stroke-width: 0.1; fill: none;
                  stroke-dasharray: 2,1; }
      .center  { stroke: red;   stroke-width: 0.1; fill: none;
                  stroke-dasharray: 4,1,1,1; }
      .dim     { stroke: black; stroke-width: 0.1; fill: none; }
      .proj    { stroke: #888;  stroke-width: 0.1; fill: none; }
      .fill-section { fill: #dde; stroke: black; stroke-width: 0.25; }
      .fill-light   { fill: #f5f5f5; stroke: black; stroke-width: 0.25; }
      text { font-family: Arial, sans-serif; }
    </style>
  </defs>
  <!-- Drawing frame: 20mm left, 10mm other sides -->
  <rect x="20" y="10" width="267" height="190"
        stroke="black" stroke-width="0.5" fill="none"/>
  <!-- Title block -->
  <rect x="197" y="185" width="90" height="15"
        stroke="black" stroke-width="0.35" fill="white"/>
  <text x="200" y="193" font-size="3.5" fill="black">Aufgabe 7: Durchdringung Quader-Quader</text>
  <text x="200" y="198" font-size="2.5" fill="black">GZ Sekundarstufe I | CAD_by_AI</text>
  <rect x="50.00" y="15.00" width="40.00" height="60.00" fill="none" stroke="black" stroke-width="0.25"/>
  <text x="70.00" y="11.00" font-size="3.5" text-anchor="middle" fill="black">Aufriss</text>
  <rect x="55.00" y="30.00" width="30.00" height="30.00" fill="none" stroke="#0055cc" stroke-width="0.25"/>
  <line x1="55.00" y1="30.00" x2="85.00" y2="30.00" stroke="#0055cc" stroke-width="0.25"/>
  <line x1="55.00" y1="60.00" x2="85.00" y2="60.00" stroke="#0055cc" stroke-width="0.25"/>
  <rect x="50.00" y="105.00" width="40.00" height="40.00" fill="none" stroke="black" stroke-width="0.25"/>
  <text x="70.00" y="101.00" font-size="3.5" text-anchor="middle" fill="black">Grundriss</text>
  <rect x="55.00" y="85.00" width="30.00" height="80.00" fill="none" stroke="#0055cc" stroke-width="0.25"/>
  <line x1="55.00" y1="105.00" x2="55.00" y2="145.00" stroke="#0055cc" stroke-width="0.1" stroke-dasharray="2,1"/>
  <line x1="85.00" y1="105.00" x2="85.00" y2="145.00" stroke="#0055cc" stroke-width="0.1" stroke-dasharray="2,1"/>
  <rect x="120.00" y="15.00" width="40.00" height="60.00" fill="none" stroke="black" stroke-width="0.25"/>
  <text x="140.00" y="11.00" font-size="3.5" text-anchor="middle" fill="black">Kreuzriss</text>
  <rect x="100.00" y="30.00" width="80.00" height="30.00" fill="none" stroke="#0055cc" stroke-width="0.25"/>
  <line x1="120.00" y1="30.00" x2="160.00" y2="30.00" stroke="#0055cc" stroke-width="0.1" stroke-dasharray="2,1"/>
  <line x1="120.00" y1="60.00" x2="160.00" y2="60.00" stroke="#0055cc" stroke-width="0.1" stroke-dasharray="2,1"/>
  <line x1="20" y1="90.00" x2="287" y2="90.00" stroke="#C00" stroke-width="0.3"/>
  <line x1="105.00" y1="10" x2="105.00" y2="200" stroke="#C00" stroke-width="0.3"/>
  <line x1="50.00" y1="12.00" x2="50.00" y2="148.00" stroke="#888" stroke-width="0.1"/>
  <line x1="90.00" y1="12.00" x2="90.00" y2="148.00" stroke="#888" stroke-width="0.1"/>
  <line x1="55.00" y1="12.00" x2="55.00" y2="148.00" stroke="#888" stroke-width="0.1"/>
  <line x1="85.00" y1="12.00" x2="85.00" y2="148.00" stroke="#888" stroke-width="0.1"/>
  <line x1="47.00" y1="15.00" x2="163.00" y2="15.00" stroke="#888" stroke-width="0.1"/>
  <line x1="47.00" y1="75.00" x2="163.00" y2="75.00" stroke="#888" stroke-width="0.1"/>
  <line x1="47.00" y1="30.00" x2="163.00" y2="30.00" stroke="#888" stroke-width="0.1"/>
  <line x1="47.00" y1="60.00" x2="163.00" y2="60.00" stroke="#888" stroke-width="0.1"/>
  <line x1="90.00" y1="105.00" x2="105.00" y2="105.00" stroke="#888" stroke-width="0.1"/>
  <path d="M 105.00,105.00 A 15.00,15.00 0 0,0 120.00,90.00" fill="none" stroke="#888" stroke-width="0.1"/>
  <line x1="120.00" y1="90.00" x2="120.00" y2="12.00" stroke="#888" stroke-width="0.1"/>
  <line x1="90.00" y1="145.00" x2="105.00" y2="145.00" stroke="#888" stroke-width="0.1"/>
  <path d="M 105.00,145.00 A 55.00,55.00 0 0,0 160.00,90.00" fill="none" stroke="#888" stroke-width="0.1"/>
  <line x1="160.00" y1="90.00" x2="160.00" y2="12.00" stroke="#888" stroke-width="0.1"/>
  <text x="153.00" y="175.00" font-size="3" text-anchor="middle" fill="#555">Stehender Quader: 40 x 40 x 60 mm</text>
  <text x="153.00" y="180.00" font-size="3" text-anchor="middle" fill="#555">Liegender Quader: 30 x 30 x 80 mm (durch die Mitte)</text>
</svg>
