<?xml version="1.0" encoding="UTF-8"?>
<svg xmlns="http://www.w3.org/2000/svg"
     width="297mm" height="210mm"
     viewBox="0 0 297 210">

<!-- Background -->
<rect x="0" y="0" width="297" height="210" fill="white"/>

<!-- Drawing frame -->
<rect x="20" y="10" width="267" height="190"
      fill="none" stroke="black" stroke-width="0.5"/>

<!-- Visible edges (solid lines) -->
<g id="visible">
<path d="M 221.918,147.947 L 164.827,153.475" fill="none" stroke="black" stroke-width="0.5" stroke-linecap="round"/>
<path d="M 221.918,147.947 L 223.534,147.622 L 225.089,146.970 L 226.522,146.018 L 227.778,144.802 L 228.808,143.368 L 229.574,141.772 L 230.046,140.075 L 230.205,138.343" fill="none" stroke="black" stroke-width="0.5" stroke-linecap="round"/>
<path d="M 230.205,77.705 L 230.205,138.343" fill="none" stroke="black" stroke-width="0.5" stroke-linecap="round"/>
<path d="M 221.918,69.705 L 224.063,69.797 L 226.061,70.483" fill="none" stroke="black" stroke-width="0.5" stroke-linecap="round"/>
<path d="M 226.061,70.483 L 227.778,71.716 L 229.095,73.411 L 229.922,75.454 L 230.205,77.705" fill="none" stroke="black" stroke-width="0.5" stroke-linecap="round"/>
<path d="M 200.739,71.756 L 221.918,69.705" fill="none" stroke="black" stroke-width="0.5" stroke-linecap="round"/>
<path d="M 200.739,71.756 L 200.739,80.558" fill="none" stroke="black" stroke-width="0.5" stroke-linecap="round"/>
<path d="M 200.739,80.558 L 186.006,81.985" fill="none" stroke="black" stroke-width="0.5" stroke-linecap="round"/>
<path d="M 186.006,81.985 L 186.006,73.182" fill="none" stroke="black" stroke-width="0.5" stroke-linecap="round"/>
<path d="M 164.827,75.233 L 186.006,73.182" fill="none" stroke="black" stroke-width="0.5" stroke-linecap="round"/>
<path d="M 156.540,84.838 L 156.699,83.105 L 157.171,81.408 L 157.936,79.812 L 158.967,78.378 L 160.223,77.162 L 161.656,76.210 L 163.210,75.559 L 164.827,75.233" fill="none" stroke="black" stroke-width="0.5" stroke-linecap="round"/>
<path d="M 156.540,108.799 L 156.540,84.838" fill="none" stroke="black" stroke-width="0.5" stroke-linecap="round"/>
<path d="M 156.540,108.799 L 158.089,108.866 L 159.532,109.361" fill="none" stroke="black" stroke-width="0.5" stroke-linecap="round"/>
<path d="M 159.532,109.361 L 161.040,110.529 L 162.069,112.188 L 162.512,114.162 L 162.321,116.242 L 161.516,118.206 L 160.183,119.847 L 158.464,120.990 L 156.540,121.514" fill="none" stroke="black" stroke-width="0.5" stroke-linecap="round"/>
<path d="M 156.540,145.475 L 156.540,121.514" fill="none" stroke="black" stroke-width="0.5" stroke-linecap="round"/>
<path d="M 164.827,153.475 L 162.682,153.383 L 160.683,152.697" fill="none" stroke="black" stroke-width="0.5" stroke-linecap="round"/>
<path d="M 160.683,152.697 L 158.967,151.464 L 157.650,149.769 L 156.822,147.726 L 156.540,145.475" fill="none" stroke="black" stroke-width="0.5" stroke-linecap="round"/>
<path d="M 218.695,101.314 L 218.695,116.962" fill="none" stroke="black" stroke-width="0.5" stroke-linecap="round"/>
<path d="M 210.407,102.116 L 218.695,101.314" fill="none" stroke="black" stroke-width="0.5" stroke-linecap="round"/>
<path d="M 218.695,116.962 L 210.407,117.765" fill="none" stroke="black" stroke-width="0.5" stroke-linecap="round"/>
<path d="M 210.407,117.765 L 210.407,102.116" fill="none" stroke="black" stroke-width="0.5" stroke-linecap="round"/>
<path d="M 200.739,95.228 L 200.739,126.525" fill="none" stroke="black" stroke-width="0.5" stroke-linecap="round"/>
<path d="M 186.006,96.655 L 200.739,95.228" fill="none" stroke="black" stroke-width="0.5" stroke-linecap="round"/>
<path d="M 200.739,126.525 L 186.006,127.952" fill="none" stroke="black" stroke-width="0.5" stroke-linecap="round"/>
<path d="M 186.006,127.952 L 186.006,96.655" fill="none" stroke="black" stroke-width="0.5" stroke-linecap="round"/>
<path d="M 168.971,94.392 L 169.175,92.727 L 169.773,91.136 L 170.724,89.727 L 171.963,88.597 L 173.407,87.822 L 174.956,87.455 L 176.505,87.522 L 177.949,88.017" fill="none" stroke="black" stroke-width="0.5" stroke-linecap="round"/>
<path d="M 177.949,88.017 L 178.902,88.651 L 179.705,89.483 L 180.324,90.481 L 180.738,91.607 L 180.929,92.819 L 180.890,94.068 L 180.624,95.307 L 180.139,96.489 L 179.456,97.568 L 178.600,98.503 L 177.603,99.258 L 176.505,99.803 L 175.347,100.118 L 174.175,100.191 L 173.032,100.019 L 171.963,99.608" fill="none" stroke="black" stroke-width="0.5" stroke-linecap="round"/>
<path d="M 171.963,99.608 L 170.724,98.718 L 169.773,97.493 L 169.175,96.018 L 168.971,94.392" fill="none" stroke="black" stroke-width="0.5" stroke-linecap="round"/>
<path d="M 80.939,111.517 L 79.222,110.284 L 77.905,108.589 L 77.077,106.546 L 76.795,104.295" fill="none" stroke="black" stroke-width="0.5" stroke-linecap="round"/>
<path d="M 142.173,28.525 L 144.318,28.617 L 146.316,29.303" fill="none" stroke="black" stroke-width="0.5" stroke-linecap="round"/>
<path d="M 120.994,30.576 L 142.173,28.525" fill="none" stroke="black" stroke-width="0.5" stroke-linecap="round"/>
<path d="M 120.994,30.576 L 120.994,39.378" fill="none" stroke="black" stroke-width="0.5" stroke-linecap="round"/>
<path d="M 120.994,39.378 L 120.615,39.415" fill="none" stroke="black" stroke-width="0.5" stroke-linecap="round"/>
<path d="M 85.082,34.053 L 106.261,32.002" fill="none" stroke="black" stroke-width="0.5" stroke-linecap="round"/>
<path d="M 76.795,43.657 L 76.954,41.925 L 77.426,40.228 L 78.192,38.632 L 79.222,37.198 L 80.478,35.982 L 81.911,35.030 L 83.465,34.378 L 85.082,34.053" fill="none" stroke="black" stroke-width="0.5" stroke-linecap="round"/>
<path d="M 76.795,67.619 L 76.795,43.657" fill="none" stroke="black" stroke-width="0.5" stroke-linecap="round"/>
<path d="M 81.978,70.296 L 82.576,71.771 L 82.780,73.397 L 82.576,75.062 L 81.978,76.653 L 81.027,78.062 L 79.788,79.192 L 78.344,79.967 L 76.795,80.333" fill="none" stroke="black" stroke-width="0.5" stroke-linecap="round"/>
<path d="M 76.795,104.295 L 76.795,80.333" fill="none" stroke="black" stroke-width="0.5" stroke-linecap="round"/>
<path d="M 120.994,30.576 L 200.739,71.756" fill="none" stroke="black" stroke-width="0.5" stroke-linecap="round"/>
<path d="M 120.994,39.378 L 200.739,80.558" fill="none" stroke="black" stroke-width="0.5" stroke-linecap="round"/>
<path d="M 106.261,32.002 L 186.006,73.182" fill="none" stroke="black" stroke-width="0.5" stroke-linecap="round"/>
<path d="M 156.540,108.799 L 76.795,67.619" fill="none" stroke="black" stroke-width="0.5" stroke-linecap="round"/>
<path d="M 156.540,121.514 L 76.795,80.333" fill="none" stroke="black" stroke-width="0.5" stroke-linecap="round"/>
<path d="M 210.407,112.683 L 218.695,116.962" fill="none" stroke="black" stroke-width="0.5" stroke-linecap="round"/>
<path d="M 186.006,118.917 L 200.739,126.525" fill="none" stroke="black" stroke-width="0.5" stroke-linecap="round"/>
<path d="M 160.683,152.697 L 80.939,111.517" fill="none" stroke="black" stroke-width="0.5" stroke-linecap="round"/>
<path d="M 226.061,70.483 L 146.316,29.303" fill="none" stroke="black" stroke-width="0.5" stroke-linecap="round"/>
<path d="M 156.540,145.475 L 76.795,104.295" fill="none" stroke="black" stroke-width="0.5" stroke-linecap="round"/>
<path d="M 221.918,69.705 L 142.173,28.525" fill="none" stroke="black" stroke-width="0.5" stroke-linecap="round"/>
<path d="M 164.827,75.233 L 85.082,34.053" fill="none" stroke="black" stroke-width="0.5" stroke-linecap="round"/>
<path d="M 156.540,84.838 L 76.795,43.657" fill="none" stroke="black" stroke-width="0.5" stroke-linecap="round"/>
</g>

<!-- Hidden edges (dashed lines) -->
<g id="hidden">
<path d="M 142.173,106.767 L 85.082,112.295" fill="none" stroke="black" stroke-width="0.25" stroke-dasharray="2,1" stroke-linecap="round"/>
<path d="M 142.173,106.767 L 143.789,106.441 L 145.344,105.790 L 146.777,104.838 L 148.033,103.622 L 149.063,102.188 L 149.829,100.592 L 150.301,98.895 L 150.460,97.162" fill="none" stroke="black" stroke-width="0.25" stroke-dasharray="2,1" stroke-linecap="round"/>
<path d="M 85.082,112.295 L 82.937,112.203 L 80.939,111.517" fill="none" stroke="black" stroke-width="0.25" stroke-dasharray="2,1" stroke-linecap="round"/>
<path d="M 150.460,36.525 L 150.460,97.162" fill="none" stroke="black" stroke-width="0.25" stroke-dasharray="2,1" stroke-linecap="round"/>
<path d="M 146.316,29.303 L 148.033,30.536 L 149.350,32.231 L 150.178,34.274 L 150.460,36.525" fill="none" stroke="black" stroke-width="0.25" stroke-dasharray="2,1" stroke-linecap="round"/>
<path d="M 120.615,39.415 L 106.261,40.804" fill="none" stroke="black" stroke-width="0.25" stroke-dasharray="2,1" stroke-linecap="round"/>
<path d="M 106.261,40.804 L 106.261,32.002" fill="none" stroke="black" stroke-width="0.25" stroke-dasharray="2,1" stroke-linecap="round"/>
<path d="M 76.795,67.619 L 78.344,67.686 L 79.788,68.181" fill="none" stroke="black" stroke-width="0.25" stroke-dasharray="2,1" stroke-linecap="round"/>
<path d="M 79.788,68.181 L 81.027,69.071 L 81.978,70.296" fill="none" stroke="black" stroke-width="0.25" stroke-dasharray="2,1" stroke-linecap="round"/>
<path d="M 138.950,60.134 L 138.950,75.782" fill="none" stroke="black" stroke-width="0.25" stroke-dasharray="2,1" stroke-linecap="round"/>
<path d="M 130.663,60.936 L 138.950,60.134" fill="none" stroke="black" stroke-width="0.25" stroke-dasharray="2,1" stroke-linecap="round"/>
<path d="M 138.950,75.782 L 130.663,76.585" fill="none" stroke="black" stroke-width="0.25" stroke-dasharray="2,1" stroke-linecap="round"/>
<path d="M 130.663,76.585 L 130.663,60.936" fill="none" stroke="black" stroke-width="0.25" stroke-dasharray="2,1" stroke-linecap="round"/>
<path d="M 120.994,54.048 L 120.994,85.345" fill="none" stroke="black" stroke-width="0.25" stroke-dasharray="2,1" stroke-linecap="round"/>
<path d="M 106.261,55.475 L 120.994,54.048" fill="none" stroke="black" stroke-width="0.25" stroke-dasharray="2,1" stroke-linecap="round"/>
<path d="M 120.994,85.345 L 106.261,86.772" fill="none" stroke="black" stroke-width="0.25" stroke-dasharray="2,1" stroke-linecap="round"/>
<path d="M 106.261,86.772 L 106.261,55.475" fill="none" stroke="black" stroke-width="0.25" stroke-dasharray="2,1" stroke-linecap="round"/>
<path d="M 89.226,53.212 L 89.430,51.547 L 90.028,49.956 L 90.979,48.547 L 92.219,47.417 L 93.662,46.642 L 95.211,46.276 L 96.760,46.342 L 98.204,46.837" fill="none" stroke="black" stroke-width="0.25" stroke-dasharray="2,1" stroke-linecap="round"/>
<path d="M 98.204,46.837 L 99.158,47.471 L 99.960,48.303 L 100.579,49.301 L 100.993,50.428 L 101.184,51.638 L 101.145,52.888 L 100.879,54.127 L 100.395,55.309 L 99.711,56.389 L 98.855,57.323 L 97.858,58.078 L 96.760,58.623 L 95.603,58.938 L 94.430,59.011 L 93.287,58.839 L 92.219,58.428" fill="none" stroke="black" stroke-width="0.25" stroke-dasharray="2,1" stroke-linecap="round"/>
<path d="M 92.219,58.428 L 90.979,57.538 L 90.028,56.313 L 89.430,54.838 L 89.226,53.212" fill="none" stroke="black" stroke-width="0.25" stroke-dasharray="2,1" stroke-linecap="round"/>
<path d="M 106.261,40.804 L 186.006,81.985" fill="none" stroke="black" stroke-width="0.25" stroke-dasharray="2,1" stroke-linecap="round"/>
<path d="M 138.950,60.134 L 218.695,101.314" fill="none" stroke="black" stroke-width="0.25" stroke-dasharray="2,1" stroke-linecap="round"/>
<path d="M 138.950,75.782 L 210.407,112.683" fill="none" stroke="black" stroke-width="0.25" stroke-dasharray="2,1" stroke-linecap="round"/>
<path d="M 130.663,60.936 L 210.407,102.116" fill="none" stroke="black" stroke-width="0.25" stroke-dasharray="2,1" stroke-linecap="round"/>
<path d="M 130.663,76.585 L 210.407,117.765" fill="none" stroke="black" stroke-width="0.25" stroke-dasharray="2,1" stroke-linecap="round"/>
<path d="M 120.994,54.048 L 200.739,95.228" fill="none" stroke="black" stroke-width="0.25" stroke-dasharray="2,1" stroke-linecap="round"/>
<path d="M 120.994,85.345 L 186.006,118.917" fill="none" stroke="black" stroke-width="0.25" stroke-dasharray="2,1" stroke-linecap="round"/>
<path d="M 106.261,55.475 L 186.006,96.655" fill="none" stroke="black" stroke-width="0.25" stroke-dasharray="2,1" stroke-linecap="round"/>
<path d="M 106.261,86.772 L 186.006,127.952" fill="none" stroke="black" stroke-width="0.25" stroke-dasharray="2,1" stroke-linecap="round"/>
<path d="M 159.532,109.361 L 79.788,68.181" fill="none" stroke="black" stroke-width="0.25" stroke-dasharray="2,1" stroke-linecap="round"/>
<path d="M 177.949,88.017 L 98.204,46.837" fill="none" stroke="black" stroke-width="0.25" stroke-dasharray="2,1" stroke-linecap="round"/>
<path d="M 171.963,99.608 L 92.219,58.428" fill="none" stroke="black" stroke-width="0.25" stroke-dasharray="2,1" stroke-linecap="round"/>
</g>

<!-- Title block -->

<rect x="107" y="172" width="180" height="28" fill="white" stroke="black" stroke-width="0.35"/>
<line x1="107" y1="182" x2="287" y2="182" stroke="black" stroke-width="0.2"/>
<line x1="157" y1="172" x2="157" y2="182" stroke="black" stroke-width="0.2"/>
<line x1="207" y1="172" x2="207" y2="200" stroke="black" stroke-width="0.2"/>
<line x1="247" y1="172" x2="247" y2="182" stroke="black" stroke-width="0.2"/>
<text x="109" y="175.5" font-size="2.5" font-family="sans-serif" fill="#666">Erstellt</text>
<text x="109" y="180" font-size="3" font-family="sans-serif" fill="black">Claude Code (CadQuery HLR)</text>
<text x="159" y="175.5" font-size="2.5" font-family="sans-serif" fill="#666">Methode</text>
<text x="159" y="180" font-size="3" font-family="sans-serif" fill="black">OpenCASCADE HLR</text>
<text x="209" y="175.5" font-size="2.5" font-family="sans-serif" fill="#666">Projektion</text>
<text x="209" y="180" font-size="3.5" font-family="sans-serif" fill="black" font-weight="bold">Kavalierprojekt. 30/0.5</text>
<text x="249" y="175.5" font-size="2.5" font-family="sans-serif" fill="#666">Datum</text>
<text x="249" y="180" font-size="3" font-family="sans-serif" fill="black">2026-04-01</text>
<text x="109" y="187" font-size="2.5" font-family="sans-serif" fill="#666">Benennung</text>
<text x="109" y="194" font-size="4.5" font-family="sans-serif" fill="black" font-weight="bold">Alu-Profil 40x40 - Schr&#228;griss (CadQuery HLR)</text>
<text x="209" y="187" font-size="2.5" font-family="sans-serif" fill="#666">Zeichnungs-Nr.</text>
<text x="209" y="194" font-size="4" font-family="sans-serif" fill="black" font-weight="bold">A03-CQ</text>


</svg>
