<?xml version="1.0" encoding="UTF-8"?>
<svg xmlns="http://www.w3.org/2000/svg" xmlns:xlink="http://www.w3.org/1999/xlink"
     viewBox="-25 -25 50 50" width="600" height="600">
  <defs>
    <pattern id="hatch" patternUnits="userSpaceOnUse" width="1.5" height="1.5"
             patternTransform="rotate(45)">
      <line x1="0" y1="0" x2="0" y2="1.5" stroke="#888" stroke-width="0.15"/>
    </pattern>
  </defs>
  <path d="M -19.269,-4.454 L -19.414,-4.586 L -19.546,-4.731 L -19.663,-4.889 L -19.764,-5.057 L -19.848,-5.235 L -19.914,-5.419 L -19.962,-5.610 L -19.990,-5.804 L -20.000,-6.000 L -20.000,-15.451 L -19.998,-15.549 L -19.983,-15.843 L -19.964,-16.038 L -19.928,-16.281 L -19.890,-16.473 L -19.830,-16.711 L -19.773,-16.899 L -19.691,-17.130 L -19.615,-17.311 L -19.511,-17.532 L -19.418,-17.706 L -19.292,-17.916 L -19.183,-18.079 L -19.037,-18.276 L -18.913,-18.428 L -18.748,-18.609 L -18.609,-18.748 L -18.428,-18.913 L -18.276,-19.037 L -18.079,-19.183 L -17.916,-19.292 L -17.706,-19.418 L -17.532,-19.511 L -17.311,-19.615 L -17.130,-19.691 L -16.899,-19.773 L -16.711,-19.830 L -16.473,-19.890 L -16.281,-19.928 L -16.038,-19.964 L -15.843,-19.983 L -15.549,-19.998 L -15.451,-20.000 L -6.000,-20.000 L -5.804,-19.990 L -5.610,-19.962 L -5.419,-19.914 L -5.235,-19.848 L -5.057,-19.764 L -4.889,-19.663 L -4.731,-19.546 L -4.586,-19.414 L -4.454,-19.269 L -4.337,-19.111 L -4.236,-18.943 L -4.152,-18.765 L -4.086,-18.581 L -4.038,-18.390 L -4.010,-18.196 L -4.000,-18.000 L -4.000,-16.500 A 1.000,1.000 0 0,1 -5.000,-15.500 L -6.500,-15.500 A 0.500,0.500 0 0,1 -7.000,-16.000 L -7.000,-17.500 A 0.500,0.500 0 0,0 -7.497,-17.950 L -7.797,-17.869 L -8.086,-17.752 L -8.357,-17.600 L -8.608,-17.415 L -8.833,-17.200 L -9.030,-16.959 L -9.196,-16.695 L -9.327,-16.413 L -9.423,-16.117 L -9.481,-15.811 L -9.500,-15.500 L -9.500,-13.309 A 7.302,7.302 0 0,0 -4.000,-7.500 L 4.000,-7.500 A 7.302,7.302 0 0,0 9.500,-13.309 L 9.500,-15.500 L 9.481,-15.811 L 9.423,-16.117 L 9.327,-16.413 L 9.196,-16.695 L 9.030,-16.959 L 8.833,-17.200 L 8.608,-17.415 L 8.357,-17.600 L 8.086,-17.752 L 7.797,-17.869 L 7.497,-17.950 A 0.500,0.500 0 0,0 7.000,-17.500 L 7.000,-16.000 A 0.500,0.500 0 0,1 6.500,-15.500 L 5.000,-15.500 A 1.000,1.000 0 0,1 4.000,-16.500 L 4.000,-18.000 L 4.010,-18.196 L 4.038,-18.390 L 4.086,-18.581 L 4.152,-18.765 L 4.236,-18.943 L 4.337,-19.111 L 4.454,-19.269 L 4.586,-19.414 L 4.731,-19.546 L 4.889,-19.663 L 5.057,-19.764 L 5.235,-19.848 L 5.419,-19.914 L 5.610,-19.962 L 5.804,-19.990 L 6.000,-20.000 L 15.451,-20.000 L 15.549,-19.998 L 15.843,-19.983 L 16.038,-19.964 L 16.281,-19.928 L 16.473,-19.890 L 16.711,-19.830 L 16.899,-19.773 L 17.130,-19.691 L 17.311,-19.615 L 17.532,-19.511 L 17.706,-19.418 L 17.916,-19.292 L 18.079,-19.183 L 18.276,-19.037 L 18.428,-18.913 L 18.609,-18.748 L 18.748,-18.609 L 18.913,-18.428 L 19.037,-18.276 L 19.183,-18.079 L 19.292,-17.916 L 19.418,-17.706 L 19.511,-17.532 L 19.615,-17.311 L 19.691,-17.130 L 19.773,-16.899 L 19.830,-16.711 L 19.890,-16.473 L 19.928,-16.281 L 19.964,-16.038 L 19.983,-15.843 L 19.998,-15.549 L 20.000,-15.451 L 20.000,-6.000 L 19.990,-5.804 L 19.962,-5.610 L 19.914,-5.419 L 19.848,-5.235 L 19.764,-5.057 L 19.663,-4.889 L 19.546,-4.731 L 19.414,-4.586 L 19.269,-4.454 L 19.111,-4.337 L 18.943,-4.236 L 18.765,-4.152 L 18.581,-4.086 L 18.390,-4.038 L 18.196,-4.010 L 18.000,-4.000 L 16.500,-4.000 A 1.000,1.000 0 0,1 15.500,-5.000 L 15.500,-6.500 A 0.500,0.500 0 0,1 16.000,-7.000 L 17.500,-7.000 A 0.500,0.500 0 0,0 17.950,-7.497 L 17.869,-7.797 L 17.752,-8.086 L 17.600,-8.357 L 17.415,-8.608 L 17.200,-8.833 L 16.959,-9.030 L 16.695,-9.196 L 16.413,-9.327 L 16.117,-9.423 L 15.811,-9.481 L 15.500,-9.500 L 13.309,-9.500 A 7.302,7.302 0 0,0 7.500,-4.000 L 7.500,4.000 A 7.302,7.302 0 0,0 13.309,9.500 L 15.500,9.500 L 15.811,9.481 L 16.117,9.423 L 16.413,9.327 L 16.695,9.196 L 16.959,9.030 L 17.200,8.833 L 17.415,8.608 L 17.600,8.357 L 17.752,8.086 L 17.869,7.797 L 17.950,7.497 A 0.500,0.500 0 0,0 17.500,7.000 L 16.000,7.000 A 0.500,0.500 0 0,1 15.500,6.500 L 15.500,5.000 A 1.000,1.000 0 0,1 16.500,4.000 L 18.000,4.000 L 18.196,4.010 L 18.390,4.038 L 18.581,4.086 L 18.765,4.152 L 18.943,4.236 L 19.111,4.337 L 19.269,4.454 L 19.414,4.586 L 19.546,4.731 L 19.663,4.889 L 19.764,5.057 L 19.848,5.235 L 19.914,5.419 L 19.962,5.610 L 19.990,5.804 L 20.000,6.000 L 20.000,15.451 L 19.998,15.549 L 19.983,15.843 L 19.964,16.038 L 19.928,16.281 L 19.890,16.473 L 19.830,16.711 L 19.773,16.899 L 19.691,17.130 L 19.615,17.311 L 19.511,17.532 L 19.418,17.706 L 19.292,17.916 L 19.183,18.079 L 19.037,18.276 L 18.913,18.428 L 18.748,18.609 L 18.609,18.748 L 18.428,18.913 L 18.276,19.037 L 18.079,19.183 L 17.916,19.292 L 17.706,19.418 L 17.532,19.511 L 17.311,19.615 L 17.130,19.691 L 16.899,19.773 L 16.711,19.830 L 16.473,19.890 L 16.281,19.928 L 16.038,19.964 L 15.843,19.983 L 15.549,19.998 L 15.451,20.000 L 6.000,20.000 L 5.804,19.990 L 5.610,19.962 L 5.419,19.914 L 5.235,19.848 L 5.057,19.764 L 4.889,19.663 L 4.731,19.546 L 4.586,19.414 L 4.454,19.269 L 4.337,19.111 L 4.236,18.943 L 4.152,18.765 L 4.086,18.581 L 4.038,18.390 L 4.010,18.196 L 4.000,18.000 L 4.000,16.500 A 1.000,1.000 0 0,1 5.000,15.500 L 6.500,15.500 A 0.500,0.500 0 0,1 7.000,16.000 L 7.000,17.500 A 0.500,0.500 0 0,0 7.497,17.950 L 7.797,17.869 L 8.086,17.752 L 8.357,17.600 L 8.608,17.415 L 8.833,17.200 L 9.030,16.959 L 9.196,16.695 L 9.327,16.413 L 9.423,16.117 L 9.481,15.811 L 9.500,15.500 L 9.500,13.309 A 7.302,7.302 0 0,0 4.000,7.500 L -4.000,7.500 A 7.302,7.302 0 0,0 -9.500,13.309 L -9.500,15.500 L -9.481,15.811 L -9.423,16.117 L -9.327,16.413 L -9.196,16.695 L -9.030,16.959 L -8.833,17.200 L -8.608,17.415 L -8.357,17.600 L -8.086,17.752 L -7.797,17.869 L -7.497,17.950 A 0.500,0.500 0 0,0 -7.000,17.500 L -7.000,16.000 A 0.500,0.500 0 0,1 -6.500,15.500 L -5.000,15.500 A 1.000,1.000 0 0,1 -4.000,16.500 L -4.000,18.000 L -4.010,18.196 L -4.038,18.390 L -4.086,18.581 L -4.152,18.765 L -4.236,18.943 L -4.337,19.111 L -4.454,19.269 L -4.586,19.414 L -4.731,19.546 L -4.889,19.663 L -5.057,19.764 L -5.235,19.848 L -5.419,19.914 L -5.610,19.962 L -5.804,19.990 L -6.000,20.000 L -15.451,20.000 L -15.549,19.998 L -15.843,19.983 L -16.038,19.964 L -16.281,19.928 L -16.473,19.890 L -16.711,19.830 L -16.899,19.773 L -17.130,19.691 L -17.311,19.615 L -17.532,19.511 L -17.706,19.418 L -17.916,19.292 L -18.079,19.183 L -18.276,19.037 L -18.428,18.913 L -18.609,18.748 L -18.748,18.609 L -18.913,18.428 L -19.037,18.276 L -19.183,18.079 L -19.292,17.916 L -19.418,17.706 L -19.511,17.532 L -19.615,17.311 L -19.691,17.130 L -19.773,16.899 L -19.830,16.711 L -19.890,16.473 L -19.928,16.281 L -19.964,16.038 L -19.983,15.843 L -19.998,15.549 L -20.000,15.451 L -20.000,6.000 L -19.990,5.804 L -19.962,5.610 L -19.914,5.419 L -19.848,5.235 L -19.764,5.057 L -19.663,4.889 L -19.546,4.731 L -19.414,4.586 L -19.269,4.454 L -19.111,4.337 L -18.943,4.236 L -18.765,4.152 L -18.581,4.086 L -18.390,4.038 L -18.196,4.010 L -18.000,4.000 L -16.500,4.000 A 1.000,1.000 0 0,1 -15.500,5.000 L -15.500,6.500 A 0.500,0.500 0 0,1 -16.000,7.000 L -17.500,7.000 A 0.500,0.500 0 0,0 -17.950,7.497 L -17.869,7.797 L -17.752,8.086 L -17.600,8.357 L -17.415,8.608 L -17.200,8.833 L -16.959,9.030 L -16.695,9.196 L -16.413,9.327 L -16.117,9.423 L -15.811,9.481 L -15.500,9.500 L -13.309,9.500 A 7.302,7.302 0 0,0 -7.500,4.000 L -7.500,-4.000 A 7.302,7.302 0 0,0 -13.309,-9.500 L -15.500,-9.500 L -15.811,-9.481 L -16.117,-9.423 L -16.413,-9.327 L -16.695,-9.196 L -16.959,-9.030 L -17.200,-8.833 L -17.415,-8.608 L -17.600,-8.357 L -17.752,-8.086 L -17.869,-7.797 L -17.950,-7.497 A 0.500,0.500 0 0,0 -17.500,-7.000 L -16.000,-7.000 A 0.500,0.500 0 0,1 -15.500,-6.500 L -15.500,-5.000 A 1.000,1.000 0 0,1 -16.500,-4.000 L -18.000,-4.000 L -18.196,-4.010 L -18.390,-4.038 L -18.581,-4.086 L -18.765,-4.152 L -18.943,-4.236 L -19.111,-4.337 L -19.269,-4.454 Z M 3.374,-0.416 L 3.363,-0.499 L 3.350,-0.581 L 3.335,-0.663 L 3.317,-0.745 L 3.298,-0.826 L 3.277,-0.907 L 3.254,-0.987 L 3.228,-1.067 L 3.201,-1.145 L 3.172,-1.224 L 3.141,-1.301 L 3.108,-1.378 L 3.074,-1.454 L 3.037,-1.529 L 2.999,-1.603 L 2.958,-1.676 L 2.916,-1.748 L 2.873,-1.819 L 2.827,-1.889 L 2.780,-1.958 L 2.731,-2.025 L 2.680,-2.092 L 2.628,-2.157 L 2.575,-2.221 L 2.519,-2.283 L 2.462,-2.344 L 2.404,-2.404 L 2.344,-2.462 L 2.283,-2.519 L 2.221,-2.575 L 2.157,-2.628 L 2.092,-2.680 L 2.025,-2.731 L 1.958,-2.780 L 1.889,-2.827 L 1.819,-2.873 L 1.748,-2.916 L 1.676,-2.958 L 1.603,-2.999 L 1.529,-3.037 L 1.454,-3.074 L 1.378,-3.108 L 1.301,-3.141 L 1.224,-3.172 L 1.145,-3.201 L 1.067,-3.228 L 0.987,-3.254 L 0.907,-3.277 L 0.826,-3.298 L 0.745,-3.317 L 0.663,-3.335 L 0.581,-3.350 L 0.499,-3.363 L 0.416,-3.374 L 0.333,-3.384 L 0.250,-3.391 L 0.167,-3.396 L 0.083,-3.399 L -0.000,-3.400 L -0.083,-3.399 L -0.167,-3.396 L -0.250,-3.391 L -0.333,-3.384 L -0.416,-3.374 L -0.499,-3.363 L -0.581,-3.350 L -0.663,-3.335 L -0.745,-3.317 L -0.826,-3.298 L -0.907,-3.277 L -0.987,-3.254 L -1.067,-3.228 L -1.145,-3.201 L -1.224,-3.172 L -1.301,-3.141 L -1.378,-3.108 L -1.454,-3.074 L -1.529,-3.037 L -1.603,-2.999 L -1.676,-2.958 L -1.748,-2.916 L -1.819,-2.873 L -1.889,-2.827 L -1.958,-2.780 L -2.025,-2.731 L -2.092,-2.680 L -2.157,-2.628 L -2.221,-2.575 L -2.283,-2.519 L -2.344,-2.462 L -2.404,-2.404 L -2.462,-2.344 L -2.519,-2.283 L -2.575,-2.221 L -2.628,-2.157 L -2.680,-2.092 L -2.731,-2.025 L -2.780,-1.958 L -2.827,-1.889 L -2.873,-1.819 L -2.916,-1.748 L -2.958,-1.676 L -2.999,-1.603 L -3.037,-1.529 L -3.074,-1.454 L -3.108,-1.378 L -3.141,-1.301 L -3.172,-1.224 L -3.201,-1.145 L -3.228,-1.067 L -3.254,-0.987 L -3.277,-0.907 L -3.298,-0.826 L -3.317,-0.745 L -3.335,-0.663 L -3.350,-0.581 L -3.363,-0.499 L -3.374,-0.416 L -3.384,-0.333 L -3.391,-0.250 L -3.396,-0.167 L -3.399,-0.083 L -3.400,0.000 L -3.399,0.083 L -3.396,0.167 L -3.391,0.250 L -3.384,0.333 L -3.374,0.416 L -3.363,0.499 L -3.350,0.581 L -3.335,0.663 L -3.317,0.745 L -3.298,0.826 L -3.277,0.907 L -3.254,0.987 L -3.228,1.067 L -3.201,1.145 L -3.172,1.224 L -3.141,1.301 L -3.108,1.378 L -3.074,1.454 L -3.037,1.529 L -2.999,1.603 L -2.958,1.676 L -2.916,1.748 L -2.873,1.819 L -2.827,1.889 L -2.780,1.958 L -2.731,2.025 L -2.680,2.092 L -2.628,2.157 L -2.575,2.221 L -2.519,2.283 L -2.462,2.344 L -2.404,2.404 L -2.344,2.462 L -2.283,2.519 L -2.221,2.575 L -2.157,2.628 L -2.092,2.680 L -2.025,2.731 L -1.958,2.780 L -1.889,2.827 L -1.819,2.873 L -1.748,2.916 L -1.676,2.958 L -1.603,2.999 L -1.529,3.037 L -1.454,3.074 L -1.378,3.108 L -1.301,3.141 L -1.224,3.172 L -1.145,3.201 L -1.067,3.228 L -0.987,3.254 L -0.907,3.277 L -0.826,3.298 L -0.745,3.317 L -0.663,3.335 L -0.581,3.350 L -0.499,3.363 L -0.416,3.374 L -0.333,3.384 L -0.250,3.391 L -0.167,3.396 L -0.083,3.399 L 0.000,3.400 L 0.083,3.399 L 0.167,3.396 L 0.250,3.391 L 0.333,3.384 L 0.416,3.374 L 0.499,3.363 L 0.581,3.350 L 0.663,3.335 L 0.745,3.317 L 0.826,3.298 L 0.907,3.277 L 0.987,3.254 L 1.067,3.228 L 1.145,3.201 L 1.224,3.172 L 1.301,3.141 L 1.378,3.108 L 1.454,3.074 L 1.529,3.037 L 1.603,2.999 L 1.676,2.958 L 1.748,2.916 L 1.819,2.873 L 1.889,2.827 L 1.958,2.780 L 2.025,2.731 L 2.092,2.680 L 2.157,2.628 L 2.221,2.575 L 2.283,2.519 L 2.344,2.462 L 2.404,2.404 L 2.462,2.344 L 2.519,2.283 L 2.575,2.221 L 2.628,2.157 L 2.680,2.092 L 2.731,2.025 L 2.780,1.958 L 2.827,1.889 L 2.873,1.819 L 2.916,1.748 L 2.958,1.676 L 2.999,1.603 L 3.037,1.529 L 3.074,1.454 L 3.108,1.378 L 3.141,1.301 L 3.172,1.224 L 3.201,1.145 L 3.228,1.067 L 3.254,0.987 L 3.277,0.907 L 3.298,0.826 L 3.317,0.745 L 3.335,0.663 L 3.350,0.581 L 3.363,0.499 L 3.374,0.416 L 3.384,0.333 L 3.391,0.250 L 3.396,0.167 L 3.399,0.083 L 3.400,-0.000 L 3.399,-0.083 L 3.396,-0.167 L 3.391,-0.250 L 3.384,-0.333 L 3.374,-0.416 Z M 18.000,-16.000 L 17.990,-16.196 L 17.962,-16.390 L 17.914,-16.581 L 17.848,-16.765 L 17.764,-16.943 L 17.663,-17.111 L 17.546,-17.269 L 17.414,-17.414 L 17.269,-17.546 L 17.111,-17.663 L 16.943,-17.764 L 16.765,-17.848 L 16.581,-17.914 L 16.390,-17.962 L 16.196,-17.990 L 16.000,-18.000 L 14.750,-18.000 L 12.000,-18.000 L 11.951,-17.998 L 11.902,-17.990 L 11.855,-17.978 L 11.809,-17.962 L 11.764,-17.941 L 11.722,-17.916 L 11.683,-17.887 L 11.646,-17.854 L 11.613,-17.817 L 11.584,-17.778 L 11.559,-17.736 L 11.538,-17.691 L 11.522,-17.645 L 11.510,-17.598 L 11.502,-17.549 L 11.500,-17.500 L 11.500,-12.000 L 11.502,-11.951 L 11.510,-11.902 L 11.522,-11.855 L 11.538,-11.809 L 11.559,-11.764 L 11.584,-11.722 L 11.613,-11.683 L 11.646,-11.646 L 11.683,-11.613 L 11.722,-11.584 L 11.764,-11.559 L 11.809,-11.538 L 11.855,-11.522 L 11.902,-11.510 L 11.951,-11.502 L 12.000,-11.500 L 17.500,-11.500 L 17.549,-11.502 L 17.598,-11.510 L 17.645,-11.522 L 17.691,-11.538 L 17.736,-11.559 L 17.778,-11.584 L 17.817,-11.613 L 17.854,-11.646 L 17.887,-11.683 L 17.916,-11.722 L 17.941,-11.764 L 17.962,-11.809 L 17.978,-11.855 L 17.990,-11.902 L 17.998,-11.951 L 18.000,-12.000 L 18.000,-14.750 L 18.000,-16.000 Z M 16.000,18.000 L 16.196,17.990 L 16.390,17.962 L 16.581,17.914 L 16.765,17.848 L 16.943,17.764 L 17.111,17.663 L 17.269,17.546 L 17.414,17.414 L 17.546,17.269 L 17.663,17.111 L 17.764,16.943 L 17.848,16.765 L 17.914,16.581 L 17.962,16.390 L 17.990,16.196 L 18.000,16.000 L 18.000,14.750 L 18.000,12.000 L 17.998,11.951 L 17.990,11.902 L 17.978,11.855 L 17.962,11.809 L 17.941,11.764 L 17.916,11.722 L 17.887,11.683 L 17.854,11.646 L 17.817,11.613 L 17.778,11.584 L 17.736,11.559 L 17.691,11.538 L 17.645,11.522 L 17.598,11.510 L 17.549,11.502 L 17.500,11.500 L 12.000,11.500 L 11.951,11.502 L 11.902,11.510 L 11.855,11.522 L 11.809,11.538 L 11.764,11.559 L 11.722,11.584 L 11.683,11.613 L 11.646,11.646 L 11.613,11.683 L 11.584,11.722 L 11.559,11.764 L 11.538,11.809 L 11.522,11.855 L 11.510,11.902 L 11.502,11.951 L 11.500,12.000 L 11.500,17.500 L 11.502,17.549 L 11.510,17.598 L 11.522,17.645 L 11.538,17.691 L 11.559,17.736 L 11.584,17.778 L 11.613,17.817 L 11.646,17.854 L 11.683,17.887 L 11.722,17.916 L 11.764,17.941 L 11.809,17.962 L 11.855,17.978 L 11.902,17.990 L 11.951,17.998 L 12.000,18.000 L 14.750,18.000 L 16.000,18.000 Z M -11.500,-12.000 L -11.500,-17.500 L -11.502,-17.549 L -11.510,-17.598 L -11.522,-17.645 L -11.538,-17.691 L -11.559,-17.736 L -11.584,-17.778 L -11.613,-17.817 L -11.646,-17.854 L -11.683,-17.887 L -11.722,-17.916 L -11.764,-17.941 L -11.809,-17.962 L -11.855,-17.978 L -11.902,-17.990 L -11.951,-17.998 L -12.000,-18.000 L -14.750,-18.000 L -16.000,-18.000 L -16.196,-17.990 L -16.390,-17.962 L -16.581,-17.914 L -16.765,-17.848 L -16.943,-17.764 L -17.111,-17.663 L -17.269,-17.546 L -17.414,-17.414 L -17.546,-17.269 L -17.663,-17.111 L -17.764,-16.943 L -17.848,-16.765 L -17.914,-16.581 L -17.962,-16.390 L -17.990,-16.196 L -18.000,-16.000 L -18.000,-14.750 L -18.000,-12.000 L -17.998,-11.951 L -17.990,-11.902 L -17.978,-11.855 L -17.962,-11.809 L -17.941,-11.764 L -17.916,-11.722 L -17.887,-11.683 L -17.854,-11.646 L -17.817,-11.613 L -17.778,-11.584 L -17.736,-11.559 L -17.691,-11.538 L -17.645,-11.522 L -17.598,-11.510 L -17.549,-11.502 L -17.500,-11.500 L -12.000,-11.500 L -11.951,-11.502 L -11.902,-11.510 L -11.855,-11.522 L -11.809,-11.538 L -11.764,-11.559 L -11.722,-11.584 L -11.683,-11.613 L -11.646,-11.646 L -11.613,-11.683 L -11.584,-11.722 L -11.559,-11.764 L -11.538,-11.809 L -11.522,-11.855 L -11.510,-11.902 L -11.502,-11.951 L -11.500,-12.000 Z M -11.502,17.549 L -11.500,17.500 L -11.500,12.000 L -11.502,11.951 L -11.510,11.902 L -11.522,11.855 L -11.538,11.809 L -11.559,11.764 L -11.584,11.722 L -11.613,11.683 L -11.646,11.646 L -11.683,11.613 L -11.722,11.584 L -11.764,11.559 L -11.809,11.538 L -11.855,11.522 L -11.902,11.510 L -11.951,11.502 L -12.000,11.500 L -17.500,11.500 L -17.549,11.502 L -17.598,11.510 L -17.645,11.522 L -17.691,11.538 L -17.736,11.559 L -17.778,11.584 L -17.817,11.613 L -17.854,11.646 L -17.887,11.683 L -17.916,11.722 L -17.941,11.764 L -17.962,11.809 L -17.978,11.855 L -17.990,11.902 L -17.998,11.951 L -18.000,12.000 L -18.000,14.750 L -18.000,16.000 L -17.990,16.196 L -17.962,16.390 L -17.914,16.581 L -17.848,16.765 L -17.764,16.943 L -17.663,17.111 L -17.546,17.269 L -17.414,17.414 L -17.269,17.546 L -17.111,17.663 L -16.943,17.764 L -16.765,17.848 L -16.581,17.914 L -16.390,17.962 L -16.196,17.990 L -16.000,18.000 L -14.750,18.000 L -12.000,18.000 L -11.951,17.998 L -11.902,17.990 L -11.855,17.978 L -11.809,17.962 L -11.764,17.941 L -11.722,17.916 L -11.683,17.887 L -11.646,17.854 L -11.613,17.817 L -11.584,17.778 L -11.559,17.736 L -11.538,17.691 L -11.522,17.645 L -11.510,17.598 L -11.502,17.549 Z"
        fill="none" stroke="red" stroke-width="0.2"
        fill-rule="evenodd"/>
</svg>