<?xml version="1.0" encoding="UTF-8"?>
<svg xmlns="http://www.w3.org/2000/svg" viewBox="0 0 297 210" width="297mm" height="210mm"
     font-family="Arial, Helvetica, sans-serif">
  <defs>
    <style>
      .construction { stroke: #aaa; stroke-width: 0.15; fill: none; }
      .result { stroke: #000; stroke-width: 0.5; fill: none; }
      .result-fill { stroke: #000; stroke-width: 0.5; }
      .hidden { stroke: #000; stroke-width: 0.4; fill: none; stroke-dasharray: 2,1; }
      .center { stroke: #d00; stroke-width: 0.2; fill: none; stroke-dasharray: 4,1,1,1; }
      .dim { stroke: #00a; stroke-width: 0.15; fill: none; }
      .label { font-size: 3px; fill: #000; }
      .label-sm { font-size: 2.2px; fill: #444; }
      .title { font-size: 3.5px; fill: #000; font-weight: bold; }
      .frame { stroke: #000; stroke-width: 0.5; fill: none; }
      .titleblock { stroke: #000; stroke-width: 0.3; fill: none; }
      .axis { stroke: #d00; stroke-width: 0.25; fill: none; stroke-dasharray: 6,1,1,1; }
      .ground { stroke: #070; stroke-width: 0.3; fill: none; }
      .shadow-fill { fill: #ccc; stroke: none; opacity: 0.5; }
      .shadow-line { stroke: #555; stroke-width: 0.4; fill: none; }
      .blue { stroke: #0055cc; stroke-width: 0.4; fill: none; }
      .red { stroke: #cc0000; stroke-width: 0.4; fill: none; }
      .green { stroke: #007700; stroke-width: 0.4; fill: none; }
    </style>
  </defs>
  <!-- Drawing frame: left 20mm, others 10mm -->
  <rect x="20" y="10" width="267" height="190" class="frame"/>
  <!-- Title block -->
  <rect x="197" y="185" width="90" height="15" class="titleblock"/>
  <line x1="197" y1="192" x2="287" y2="192" class="titleblock"/>
  <line x1="242" y1="185" x2="242" y2="200" class="titleblock"/>
  <text x="199" y="190" class="label-sm">CAD-AI / DG-05</text>
  <text x="244" y="190" class="label-sm">Schatten - Quader</text>
  <text x="199" y="198" class="label-sm">Darstellende Geometrie</text>
  <text x="244" y="198" class="label-sm">A4 quer | 1:1</text>
<line x1="20" y1="100.00" x2="287" y2="100.00" stroke="#C00" stroke-width="0.3"/>
<text x="26" y="98.50" class="label-sm">x₁,₂</text>
<text x="75.00" y="52.00" class="label">Aufriss (π₂)</text>
<line x1="80.00" y1="100.00" x2="116.00" y2="100.00" class="result"/>
<line x1="116.00" y1="100.00" x2="116.00" y2="55.00" class="result"/>
<line x1="116.00" y1="55.00" x2="80.00" y2="55.00" class="result"/>
<line x1="80.00" y1="55.00" x2="80.00" y2="100.00" class="result"/>
<line x1="80.00" y1="100.00" x2="80.00" y2="100.00" class="hidden"/>
<line x1="116.00" y1="100.00" x2="116.00" y2="100.00" class="hidden"/>
<line x1="116.00" y1="55.00" x2="116.00" y2="55.00" class="hidden"/>
<line x1="80.00" y1="55.00" x2="80.00" y2="55.00" class="hidden"/>
<text x="75.00" y="105.00" class="label">Grundriss (π₁)</text>
<line x1="80.00" y1="100.00" x2="116.00" y2="100.00" class="result"/>
<line x1="116.00" y1="100.00" x2="116.00" y2="127.00" class="result"/>
<line x1="116.00" y1="127.00" x2="80.00" y2="127.00" class="result"/>
<line x1="80.00" y1="127.00" x2="80.00" y2="100.00" class="result"/>
<line x1="80.00" y1="100.00" x2="80.00" y2="100.00" stroke="#888" stroke-width="0.1"/>
<line x1="116.00" y1="100.00" x2="116.00" y2="100.00" stroke="#888" stroke-width="0.1"/>
<line x1="116.00" y1="100.00" x2="116.00" y2="127.00" stroke="#888" stroke-width="0.1"/>
<line x1="80.00" y1="100.00" x2="80.00" y2="127.00" stroke="#888" stroke-width="0.1"/>
<line x1="131.00" y1="50.00" x2="143.73" y2="62.73" stroke="#D80" stroke-width="0.4"/>
<polygon points="143.73,62.73 141.23,61.73 142.73,60.23" fill="#D80"/>
<text x="130.00" y="48.00" class="label-sm" fill="#D80">l″ (45°)</text>
<line x1="131.00" y1="103.00" x2="143.73" y2="115.73" stroke="#D80" stroke-width="0.4"/>
<polygon points="143.73,115.73 141.23,114.73 142.73,113.23" fill="#D80"/>
<text x="130.00" y="101.00" class="label-sm" fill="#D80">l′ (45°)</text>
<polygon points="80.00,100.00 116.00,100.00 161.00,145.00 161.00,172.00 125.00,172.00 125.00,145.00" fill="#bbb" stroke="none" opacity="0.45"/>
<line x1="80.00" y1="100.00" x2="116.00" y2="100.00" class="shadow-line"/>
<line x1="116.00" y1="100.00" x2="161.00" y2="145.00" class="shadow-line"/>
<line x1="161.00" y1="145.00" x2="161.00" y2="172.00" class="shadow-line"/>
<line x1="161.00" y1="172.00" x2="125.00" y2="172.00" class="shadow-line"/>
<line x1="125.00" y1="172.00" x2="125.00" y2="145.00" class="shadow-line"/>
<line x1="125.00" y1="145.00" x2="80.00" y2="100.00" class="shadow-line"/>
<line x1="80.00" y1="100.00" x2="125.00" y2="145.00" stroke="#D80" stroke-width="0.15" stroke-dasharray="1,1"/>
<line x1="116.00" y1="100.00" x2="161.00" y2="145.00" stroke="#D80" stroke-width="0.15" stroke-dasharray="1,1"/>
<line x1="116.00" y1="127.00" x2="161.00" y2="172.00" stroke="#D80" stroke-width="0.15" stroke-dasharray="1,1"/>
<line x1="80.00" y1="127.00" x2="125.00" y2="172.00" stroke="#D80" stroke-width="0.15" stroke-dasharray="1,1"/>
<line x1="116.00" y1="55.00" x2="116.00" y2="55.00" stroke="#900" stroke-width="0.6"/>
<line x1="116.00" y1="100.00" x2="116.00" y2="100.00" stroke="#900" stroke-width="0.6"/>
<line x1="116.00" y1="55.00" x2="116.00" y2="100.00" stroke="#900" stroke-width="0.6"/>
<text x="118.00" y="55.00" class="label-sm" fill="#900">Eigenschatten-</text>
<text x="118.00" y="58.00" class="label-sm" fill="#900">grenze</text>
<rect x="193.00" y="135.00" width="75" height="28" fill="white" stroke="#ccc" stroke-width="0.2" rx="1"/>
<text x="195.00" y="140.00" class="label" font-weight="bold">Legende:</text>
<rect x="195.00" y="143.00" width="6" height="3" fill="#bbb" opacity="0.45"/>
<text x="203.00" y="146.00" class="label-sm">Schlagschatten (Grundriss)</text>
<line x1="195.00" y1="151.00" x2="201.00" y2="151.00" stroke="#900" stroke-width="0.6"/>
<text x="203.00" y="152.50" class="label-sm">Eigenschattengrenze (Aufriss)</text>
<line x1="195.00" y1="157.00" x2="201.00" y2="157.00" stroke="#D80" stroke-width="0.4"/>
<text x="203.00" y="158.50" class="label-sm">Lichtrichtung l=(1,1,−1)</text>
<text x="30" y="20" class="title">Aufgabe 5: Schattenkonstruktion – Quader im Parallellicht</text>
<text x="30" y="25" class="label-sm">Quader 40×30×50, Lichtrichtung l=(1,1,−1), 45° von links-oben-vorn</text>
</svg>
