<?xml version="1.0" encoding="UTF-8"?>
<svg xmlns="http://www.w3.org/2000/svg" viewBox="0 0 297 210" width="297mm" height="210mm"
     font-family="Arial, Helvetica, sans-serif">
  <defs>
    <style>
      .construction { stroke: #aaa; stroke-width: 0.15; fill: none; }
      .result { stroke: #000; stroke-width: 0.5; fill: none; }
      .result-fill { stroke: #000; stroke-width: 0.5; }
      .hidden { stroke: #000; stroke-width: 0.4; fill: none; stroke-dasharray: 2,1; }
      .center { stroke: #d00; stroke-width: 0.2; fill: none; stroke-dasharray: 4,1,1,1; }
      .dim { stroke: #00a; stroke-width: 0.15; fill: none; }
      .label { font-size: 3px; fill: #000; }
      .label-sm { font-size: 2.2px; fill: #444; }
      .title { font-size: 3.5px; fill: #000; font-weight: bold; }
      .frame { stroke: #000; stroke-width: 0.5; fill: none; }
      .titleblock { stroke: #000; stroke-width: 0.3; fill: none; }
      .axis { stroke: #d00; stroke-width: 0.25; fill: none; stroke-dasharray: 6,1,1,1; }
      .ground { stroke: #070; stroke-width: 0.3; fill: none; }
      .shadow-fill { fill: #ccc; stroke: none; opacity: 0.5; }
      .shadow-line { stroke: #555; stroke-width: 0.4; fill: none; }
      .blue { stroke: #0055cc; stroke-width: 0.4; fill: none; }
      .red { stroke: #cc0000; stroke-width: 0.4; fill: none; }
      .green { stroke: #007700; stroke-width: 0.4; fill: none; }
    </style>
  </defs>
  <!-- Drawing frame: left 20mm, others 10mm -->
  <rect x="20" y="10" width="267" height="190" class="frame"/>
  <!-- Title block -->
  <rect x="197" y="185" width="90" height="15" class="titleblock"/>
  <line x1="197" y1="192" x2="287" y2="192" class="titleblock"/>
  <line x1="242" y1="185" x2="242" y2="200" class="titleblock"/>
  <text x="199" y="190" class="label-sm">CAD-AI / DG-06</text>
  <text x="244" y="190" class="label-sm">Zylinder-Durchdringung</text>
  <text x="199" y="198" class="label-sm">Darstellende Geometrie</text>
  <text x="244" y="198" class="label-sm">A4 quer | 1:1</text>
<line x1="20" y1="105.00" x2="120.00" y2="105.00" stroke="#C00" stroke-width="0.3"/>
<text x="24" y="103.50" class="label-sm" fill="#C00">x₁,₂</text>
<line x1="120.00" y1="10" x2="120.00" y2="105.00" stroke="#C00" stroke-width="0.3"/>
<text x="121.50" y="16" class="label-sm" fill="#C00">x₁,₃</text>
<line x1="120.00" y1="105.00" x2="287" y2="105.00" stroke="#C00" stroke-width="0.3"/>
<line x1="120.00" y1="105.00" x2="120.00" y2="200" stroke="#C00" stroke-width="0.3"/>
<text x="63.00" y="18" class="label">Aufriss</text>
<line x1="55.00" y1="-5.00" x2="55.00" y2="135.00" class="result"/>
<line x1="95.00" y1="-5.00" x2="95.00" y2="135.00" class="result"/>
<line x1="75.00" y1="-8.00" x2="75.00" y2="138.00" class="center"/>
<circle cx="75.00" cy="65.00" r="20.00" class="result"/>
<line x1="73.00" y1="65.00" x2="77.00" y2="65.00" class="center"/>
<circle cx="75.00" cy="65.00" r="20.00" stroke="#0055cc" stroke-width="0.7" fill="none"/>
<text x="63.00" y="111.00" class="label">Grundriss</text>
<line x1="55.00" y1="80.00" x2="55.00" y2="220.00" class="result"/>
<line x1="95.00" y1="80.00" x2="95.00" y2="220.00" class="result"/>
<line x1="75.00" y1="77.00" x2="75.00" y2="223.00" class="center"/>
<circle cx="75.00" cy="150.00" r="20.00" class="result"/>
<line x1="73.00" y1="150.00" x2="77.00" y2="150.00" class="center"/>
<line x1="75.00" y1="148.00" x2="75.00" y2="152.00" class="center"/>
<circle cx="75.00" cy="150.00" r="20.00" stroke="#0055cc" stroke-width="0.7" fill="none"/>
<text x="183.00" y="18" class="label">Seitenriss</text>
<line x1="175.00" y1="-5.00" x2="175.00" y2="135.00" class="result"/>
<line x1="215.00" y1="-5.00" x2="215.00" y2="135.00" class="result"/>
<line x1="125.00" y1="45.00" x2="265.00" y2="45.00" class="result"/>
<line x1="125.00" y1="85.00" x2="265.00" y2="85.00" class="result"/>
<line x1="122.00" y1="65.00" x2="268.00" y2="65.00" class="center"/>
<line x1="175.00" y1="-5.00" x2="175.00" y2="135.00" class="result"/>
<line x1="215.00" y1="-5.00" x2="215.00" y2="135.00" class="result"/>
<line x1="195.00" y1="-8.00" x2="195.00" y2="138.00" class="center"/>
<line x1="175.00" y1="45.00" x2="215.00" y2="85.00" stroke="#0055cc" stroke-width="0.7" fill="none"/>
<line x1="175.00" y1="85.00" x2="215.00" y2="45.00" stroke="#0055cc" stroke-width="0.7" fill="none"/>
<text x="217.00" y="45.00" class="label-sm" fill="#0055cc">Durchdr.-Kurve</text>
<line x1="55.00" y1="135.00" x2="55.00" y2="80.00" stroke="#888" stroke-width="0.1"/>
<line x1="75.00" y1="135.00" x2="75.00" y2="80.00" stroke="#888" stroke-width="0.1"/>
<line x1="95.00" y1="135.00" x2="95.00" y2="80.00" stroke="#888" stroke-width="0.1"/>
<line x1="95.00" y1="45.00" x2="125.00" y2="45.00" stroke="#888" stroke-width="0.1"/>
<line x1="95.00" y1="65.00" x2="125.00" y2="65.00" stroke="#888" stroke-width="0.1"/>
<line x1="95.00" y1="85.00" x2="125.00" y2="85.00" stroke="#888" stroke-width="0.1"/>
<path d="M 120.00 130.00 A 25.00 25.00 0 0 0 145.00 105.00" stroke="#888" stroke-width="0.1" fill="none"/>
<line x1="55.00" y1="80.00" x2="55.00" y2="130.00" stroke="#888" stroke-width="0.1"/>
<line x1="55.00" y1="130.00" x2="120.00" y2="130.00" stroke="#888" stroke-width="0.1"/>
<path d="M 120.00 150.00 A 45.00 45.00 0 0 0 165.00 105.00" stroke="#888" stroke-width="0.1" fill="none"/>
<line x1="75.00" y1="80.00" x2="75.00" y2="150.00" stroke="#888" stroke-width="0.1"/>
<line x1="75.00" y1="150.00" x2="120.00" y2="150.00" stroke="#888" stroke-width="0.1"/>
<path d="M 120.00 170.00 A 65.00 65.00 0 0 0 185.00 105.00" stroke="#888" stroke-width="0.1" fill="none"/>
<line x1="95.00" y1="80.00" x2="95.00" y2="170.00" stroke="#888" stroke-width="0.1"/>
<line x1="95.00" y1="170.00" x2="120.00" y2="170.00" stroke="#888" stroke-width="0.1"/>
<text x="30" y="20" class="title">Aufgabe 6: Durchdringung Zylinder–Zylinder</text>
<text x="30" y="25" class="label-sm">Gleicher Durchmesser d=40, rechtwinklige Achsen</text>
<text x="30" y="29" class="label-sm">Sonderfall: Durchdringungskurve = zwei Ellipsen (im Seitenriss: Geradenkreuz)</text>
</svg>
