<?xml version="1.0" encoding="UTF-8"?>
<svg xmlns="http://www.w3.org/2000/svg" viewBox="0 0 297 210" width="297mm" height="210mm"
     font-family="Arial, Helvetica, sans-serif">
  <defs>
    <style>
      .construction { stroke: #aaa; stroke-width: 0.15; fill: none; }
      .result { stroke: #000; stroke-width: 0.5; fill: none; }
      .result-fill { stroke: #000; stroke-width: 0.5; }
      .hidden { stroke: #000; stroke-width: 0.4; fill: none; stroke-dasharray: 2,1; }
      .center { stroke: #d00; stroke-width: 0.2; fill: none; stroke-dasharray: 4,1,1,1; }
      .dim { stroke: #00a; stroke-width: 0.15; fill: none; }
      .label { font-size: 3px; fill: #000; }
      .label-sm { font-size: 2.2px; fill: #444; }
      .title { font-size: 3.5px; fill: #000; font-weight: bold; }
      .frame { stroke: #000; stroke-width: 0.5; fill: none; }
      .titleblock { stroke: #000; stroke-width: 0.3; fill: none; }
      .axis { stroke: #d00; stroke-width: 0.25; fill: none; stroke-dasharray: 6,1,1,1; }
      .ground { stroke: #070; stroke-width: 0.3; fill: none; }
      .shadow-fill { fill: #ccc; stroke: none; opacity: 0.5; }
      .shadow-line { stroke: #555; stroke-width: 0.4; fill: none; }
      .blue { stroke: #0055cc; stroke-width: 0.4; fill: none; }
      .red { stroke: #cc0000; stroke-width: 0.4; fill: none; }
      .green { stroke: #007700; stroke-width: 0.4; fill: none; }
    </style>
  </defs>
  <!-- Drawing frame: left 20mm, others 10mm -->
  <rect x="20" y="10" width="267" height="190" class="frame"/>
  <!-- Title block -->
  <rect x="197" y="185" width="90" height="15" class="titleblock"/>
  <line x1="197" y1="192" x2="287" y2="192" class="titleblock"/>
  <line x1="242" y1="185" x2="242" y2="200" class="titleblock"/>
  <text x="199" y="190" class="label-sm">CAD-AI / DG-02</text>
  <text x="244" y="190" class="label-sm">Ebene - Spurgeraden</text>
  <text x="199" y="198" class="label-sm">Darstellende Geometrie</text>
  <text x="244" y="198" class="label-sm">A4 quer | 1:1</text>
<line x1="20" y1="105.00" x2="287" y2="105.00" stroke="#C00" stroke-width="0.3"/>
<text x="26" y="103.50" class="label-sm">x₁,₂</text>
<polygon points="60.00,145.00 110.00,115.00 100.00,155.00" class="result" fill="rgba(100,150,255,0.1)"/>
<circle cx="60.00" cy="145.00" r="0.6" fill="#000"/>
<text x="61.50" y="148.00" class="label">P'</text>
<circle cx="110.00" cy="115.00" r="0.6" fill="#000"/>
<text x="111.50" y="118.00" class="label">Q'</text>
<circle cx="100.00" cy="155.00" r="0.6" fill="#000"/>
<text x="101.50" y="158.00" class="label">R'</text>
<polygon points="60.00,85.00 110.00,55.00 100.00,95.00" class="result" fill="rgba(100,150,255,0.1)"/>
<circle cx="60.00" cy="85.00" r="0.6" fill="#000"/>
<text x="61.50" y="83.50" class="label">P"</text>
<circle cx="110.00" cy="55.00" r="0.6" fill="#000"/>
<text x="111.50" y="53.50" class="label">Q"</text>
<circle cx="100.00" cy="95.00" r="0.6" fill="#000"/>
<text x="101.50" y="93.50" class="label">R"</text>
<line x1="60.00" y1="145.00" x2="60.00" y2="85.00" class="construction"/>
<line x1="110.00" y1="115.00" x2="110.00" y2="55.00" class="construction"/>
<line x1="100.00" y1="155.00" x2="100.00" y2="95.00" class="construction"/>
<line x1="155.00" y1="45.00" x2="84.17" y2="45.00" class="blue"/>
<text x="128.67" y="43.00" class="label" fill="#0055cc">s₂</text>
<text x="30" y="20" class="title">Aufgabe 2: Ebene durch 3 Punkte – Spurgeraden</text>
<text x="30" y="25" class="label-sm">P(10,40,20)  Q(60,10,50)  R(50,50,10)</text>
<text x="30" y="29" class="label-sm">s₁ = Erste Spurgerade (π₁), s₂ = Zweite Spurgerade (π₂)</text>
</svg>
