<?xml version="1.0" encoding="UTF-8"?>
<svg xmlns="http://www.w3.org/2000/svg" viewBox="0 0 297 210" width="297mm" height="210mm"
     font-family="Arial, Helvetica, sans-serif">
  <defs>
    <style>
      .construction { stroke: #aaa; stroke-width: 0.15; fill: none; }
      .result { stroke: #000; stroke-width: 0.5; fill: none; }
      .result-fill { stroke: #000; stroke-width: 0.5; }
      .hidden { stroke: #000; stroke-width: 0.4; fill: none; stroke-dasharray: 2,1; }
      .center { stroke: #d00; stroke-width: 0.2; fill: none; stroke-dasharray: 4,1,1,1; }
      .dim { stroke: #00a; stroke-width: 0.15; fill: none; }
      .label { font-size: 3px; fill: #000; }
      .label-sm { font-size: 2.2px; fill: #444; }
      .title { font-size: 3.5px; fill: #000; font-weight: bold; }
      .frame { stroke: #000; stroke-width: 0.5; fill: none; }
      .titleblock { stroke: #000; stroke-width: 0.3; fill: none; }
      .axis { stroke: #d00; stroke-width: 0.25; fill: none; stroke-dasharray: 6,1,1,1; }
      .ground { stroke: #070; stroke-width: 0.3; fill: none; }
      .shadow-fill { fill: #ccc; stroke: none; opacity: 0.5; }
      .shadow-line { stroke: #555; stroke-width: 0.4; fill: none; }
      .blue { stroke: #0055cc; stroke-width: 0.4; fill: none; }
      .red { stroke: #cc0000; stroke-width: 0.4; fill: none; }
      .green { stroke: #007700; stroke-width: 0.4; fill: none; }
    </style>
  </defs>
  <!-- Drawing frame: left 20mm, others 10mm -->
  <rect x="20" y="10" width="267" height="190" class="frame"/>
  <!-- Title block -->
  <rect x="197" y="185" width="90" height="15" class="titleblock"/>
  <line x1="197" y1="192" x2="287" y2="192" class="titleblock"/>
  <line x1="242" y1="185" x2="242" y2="200" class="titleblock"/>
  <text x="199" y="190" class="label-sm">CAD-AI / DG-04</text>
  <text x="244" y="190" class="label-sm">Parabel - Kegelschnitt</text>
  <text x="199" y="198" class="label-sm">Darstellende Geometrie</text>
  <text x="244" y="198" class="label-sm">A4 quer | 1:1</text>
<line x1="90.00" y1="30.00" x2="32.26" y2="130.00" class="result"/>
<line x1="90.00" y1="30.00" x2="147.74" y2="130.00" class="result"/>
<line x1="32.26" y1="130.00" x2="147.74" y2="130.00" class="result"/>
<line x1="90.00" y1="25.00" x2="90.00" y2="135.00" class="center"/>
<line x1="92.00" y1="27.00" x2="34.26" y2="133.00" class="blue"/>
<text x="95.00" y="30.00" class="label" fill="#0055cc">Schnittebene</text>
<text x="205.00" y="35.00" class="title">Wahre Gestalt: Parabel</text>
<polyline points="221.22,44.06 222.12,45.04 222.85,46.03 223.53,47.02 224.17,48.01 224.80,49.00 225.41,49.99 226.01,50.98 226.61,51.97 227.21,52.96 227.80,53.94 228.39,54.93 228.97,55.92 229.56,56.91 230.14,57.90 230.72,58.89 231.30,59.88 231.88,60.87 232.46,61.86 233.04,62.84 233.61,63.83 234.19,64.82 234.77,65.81 235.34,66.80 235.92,67.79 236.49,68.78 237.07,69.77 237.64,70.76 238.22,71.74 238.79,72.73 239.37,73.72 239.94,74.71 240.51,75.70 241.09,76.69 241.66,77.68 242.23,78.67 242.81,79.66 243.38,80.64 243.95,81.63 244.53,82.62 245.10,83.61 245.67,84.60 246.24,85.59 246.82,86.58 247.39,87.57 247.96,88.56 248.53,89.54 249.11,90.53 249.68,91.52 250.25,92.51 250.82,93.50 251.40,94.49 251.97,95.48 252.54,96.47 253.11,97.46 253.68,98.44 254.26,99.43 254.83,100.42 255.40,101.41 255.97,102.40 256.54,103.39 257.11,104.38 257.69,105.37 258.26,106.36 258.83,107.34 259.40,108.33 259.97,109.32 260.54,110.31 261.12,111.30 261.69,112.29 262.26,113.28 262.83,114.27 263.40,115.26 263.97,116.24 264.55,117.23 265.12,118.22 265.69,119.21 266.26,120.20 266.83,121.19 267.40,122.18 267.97,123.17 268.55,124.16 269.12,125.14 269.69,126.13 270.26,127.12 270.83,128.11 271.40,129.10 271.97,130.09 272.55,131.08 273.12,132.07 273.69,133.06 274.26,134.04 274.83,135.03 275.40,136.02 275.97,137.01 276.54,138.00" class="result"/>
<polyline points="218.78,44.06 217.88,45.04 217.15,46.03 216.47,47.02 215.83,48.01 215.20,49.00 214.59,49.99 213.99,50.98 213.39,51.97 212.79,52.96 212.20,53.94 211.61,54.93 211.03,55.92 210.44,56.91 209.86,57.90 209.28,58.89 208.70,59.88 208.12,60.87 207.54,61.86 206.96,62.84 206.39,63.83 205.81,64.82 205.23,65.81 204.66,66.80 204.08,67.79 203.51,68.78 202.93,69.77 202.36,70.76 201.78,71.74 201.21,72.73 200.63,73.72 200.06,74.71 199.49,75.70 198.91,76.69 198.34,77.68 197.77,78.67 197.19,79.66 196.62,80.64 196.05,81.63 195.47,82.62 194.90,83.61 194.33,84.60 193.76,85.59 193.18,86.58 192.61,87.57 192.04,88.56 191.47,89.54 190.89,90.53 190.32,91.52 189.75,92.51 189.18,93.50 188.60,94.49 188.03,95.48 187.46,96.47 186.89,97.46 186.32,98.44 185.74,99.43 185.17,100.42 184.60,101.41 184.03,102.40 183.46,103.39 182.89,104.38 182.31,105.37 181.74,106.36 181.17,107.34 180.60,108.33 180.03,109.32 179.46,110.31 178.88,111.30 178.31,112.29 177.74,113.28 177.17,114.27 176.60,115.26 176.03,116.24 175.45,117.23 174.88,118.22 174.31,119.21 173.74,120.20 173.17,121.19 172.60,122.18 172.03,123.17 171.45,124.16 170.88,125.14 170.31,126.13 169.74,127.12 169.17,128.11 168.60,129.10 168.03,130.09 167.45,131.08 166.88,132.07 166.31,133.06 165.74,134.04 165.17,135.03 164.60,136.02 164.03,137.01 163.46,138.00" class="result"/>
<line x1="220.00" y1="41.06" x2="220.00" y2="141.00" class="center"/>
<text x="30" y="20" class="title">Aufgabe 4: Parabel als Kegelschnitt</text>
<text x="30" y="25" class="label-sm">Kegelwinkel 60° (Halbwinkel 30°), Schnittebene parallel zur Mantellinie</text>
<text x="87.00" y="27.00" class="label">S (Spitze)</text>
<text x="70.00" y="40.00" class="label-sm">α = 30°</text>
</svg>
