<?xml version="1.0" encoding="UTF-8"?>
<svg xmlns="http://www.w3.org/2000/svg" viewBox="0 0 297 210" width="297mm" height="210mm"
     font-family="Arial, Helvetica, sans-serif">
  <defs>
    <style>
      .construction { stroke: #aaa; stroke-width: 0.15; fill: none; }
      .result { stroke: #000; stroke-width: 0.5; fill: none; }
      .result-fill { stroke: #000; stroke-width: 0.5; }
      .hidden { stroke: #000; stroke-width: 0.4; fill: none; stroke-dasharray: 2,1; }
      .center { stroke: #d00; stroke-width: 0.2; fill: none; stroke-dasharray: 4,1,1,1; }
      .dim { stroke: #00a; stroke-width: 0.15; fill: none; }
      .label { font-size: 3px; fill: #000; }
      .label-sm { font-size: 2.2px; fill: #444; }
      .title { font-size: 3.5px; fill: #000; font-weight: bold; }
      .frame { stroke: #000; stroke-width: 0.5; fill: none; }
      .titleblock { stroke: #000; stroke-width: 0.3; fill: none; }
      .axis { stroke: #d00; stroke-width: 0.25; fill: none; stroke-dasharray: 6,1,1,1; }
      .ground { stroke: #070; stroke-width: 0.3; fill: none; }
      .shadow-fill { fill: #ccc; stroke: none; opacity: 0.5; }
      .shadow-line { stroke: #555; stroke-width: 0.4; fill: none; }
      .blue { stroke: #0055cc; stroke-width: 0.4; fill: none; }
      .red { stroke: #cc0000; stroke-width: 0.4; fill: none; }
      .green { stroke: #007700; stroke-width: 0.4; fill: none; }
    </style>
  </defs>
  <!-- Drawing frame: left 20mm, others 10mm -->
  <rect x="20" y="10" width="267" height="190" class="frame"/>
  <!-- Title block -->
  <rect x="197" y="185" width="90" height="15" class="titleblock"/>
  <line x1="197" y1="192" x2="287" y2="192" class="titleblock"/>
  <line x1="242" y1="185" x2="242" y2="200" class="titleblock"/>
  <text x="199" y="190" class="label-sm">CAD-AI / DG-10</text>
  <text x="244" y="190" class="label-sm">Schraublinie</text>
  <text x="199" y="198" class="label-sm">Darstellende Geometrie</text>
  <text x="244" y="198" class="label-sm">A4 quer | 1:1</text>
<line x1="60.00" y1="170.00" x2="60.00" y2="50.00" class="result"/>
<line x1="100.00" y1="170.00" x2="100.00" y2="50.00" class="result"/>
<line x1="60.00" y1="170.00" x2="100.00" y2="170.00" class="result"/>
<line x1="60.00" y1="50.00" x2="100.00" y2="50.00" class="result"/>
<line x1="80.00" y1="175.00" x2="80.00" y2="45.00" class="center"/>
<polyline points="100.00,170.00 99.99,169.70 99.96,169.40 99.91,169.10 99.84,168.80 99.75,168.50 99.65,168.20 99.52,167.90 99.37,167.60 99.21,167.30 99.02,167.00 98.82,166.70 98.60,166.40 98.36,166.10 98.10,165.80 97.82,165.50 97.53,165.20 97.21,164.90 96.89,164.60 96.54,164.30 96.18,164.00 95.80,163.70 95.41,163.40 95.00,163.10 94.58,162.80 94.14,162.50 93.69,162.20 93.23,161.90 92.75,161.60 92.26,161.30 91.76,161.00 91.24,160.70 90.72,160.40 90.18,160.10 89.64,159.80 89.08,159.50 88.52,159.20 87.94,158.90 87.36,158.60 86.77,158.30 86.18,158.00 85.58,157.70 84.97,157.40 84.36,157.10 83.75,156.80 83.13,156.50 82.51,156.20 81.88,155.90 81.26,155.60 80.63,155.30 80.00,155.00 79.37,154.70 78.74,154.40 78.12,154.10 77.49,153.80 76.87,153.50 76.25,153.20 75.64,152.90 75.03,152.60 74.42,152.30 73.82,152.00 73.23,151.70 72.64,151.40 72.06,151.10 71.48,150.80 70.92,150.50 70.36,150.20 69.82,149.90 69.28,149.60 68.76,149.30 68.24,149.00 67.74,148.70 67.25,148.40 66.77,148.10 66.31,147.80 65.86,147.50 65.42,147.20 65.00,146.90 64.59,146.60 64.20,146.30 63.82,146.00 63.46,145.70 63.11,145.40 62.79,145.10 62.47,144.80 62.18,144.50 61.90,144.20 61.64,143.90 61.40,143.60 61.18,143.30 60.98,143.00 60.79,142.70 60.63,142.40 60.48,142.10 60.35,141.80 60.25,141.50 60.16,141.20 60.09,140.90 60.04,140.60 60.01,140.30 60.00,140.00" class="result" stroke="#0055cc" stroke-width="0.5"/>
<polyline points="60.01,139.70 60.04,139.40 60.09,139.10 60.16,138.80 60.25,138.50 60.35,138.20 60.48,137.90 60.63,137.60 60.79,137.30 60.98,137.00 61.18,136.70 61.40,136.40 61.64,136.10 61.90,135.80 62.18,135.50 62.47,135.20 62.79,134.90 63.11,134.60 63.46,134.30 63.82,134.00 64.20,133.70 64.59,133.40 65.00,133.10 65.42,132.80 65.86,132.50 66.31,132.20 66.77,131.90 67.25,131.60 67.74,131.30 68.24,131.00 68.76,130.70 69.28,130.40 69.82,130.10 70.36,129.80 70.92,129.50 71.48,129.20 72.06,128.90 72.64,128.60 73.23,128.30 73.82,128.00 74.42,127.70 75.03,127.40 75.64,127.10 76.25,126.80 76.87,126.50 77.49,126.20 78.12,125.90 78.74,125.60 79.37,125.30 80.00,125.00 80.63,124.70 81.26,124.40 81.88,124.10 82.51,123.80 83.13,123.50 83.75,123.20 84.36,122.90 84.97,122.60 85.58,122.30 86.18,122.00 86.77,121.70 87.36,121.40 87.94,121.10 88.52,120.80 89.08,120.50 89.64,120.20 90.18,119.90 90.72,119.60 91.24,119.30 91.76,119.00 92.26,118.70 92.75,118.40 93.23,118.10 93.69,117.80 94.14,117.50 94.58,117.20 95.00,116.90 95.41,116.60 95.80,116.30 96.18,116.00 96.54,115.70 96.89,115.40 97.21,115.10 97.53,114.80 97.82,114.50 98.10,114.20 98.36,113.90 98.60,113.60 98.82,113.30 99.02,113.00 99.21,112.70 99.37,112.40 99.52,112.10 99.65,111.80 99.75,111.50 99.84,111.20 99.91,110.90 99.96,110.60 99.99,110.30 100.00,110.00" class="hidden"/>
<polyline points="99.99,109.70 99.96,109.40 99.91,109.10 99.84,108.80 99.75,108.50 99.65,108.20 99.52,107.90 99.37,107.60 99.21,107.30 99.02,107.00 98.82,106.70 98.60,106.40 98.36,106.10 98.10,105.80 97.82,105.50 97.53,105.20 97.21,104.90 96.89,104.60 96.54,104.30 96.18,104.00 95.80,103.70 95.41,103.40 95.00,103.10 94.58,102.80 94.14,102.50 93.69,102.20 93.23,101.90 92.75,101.60 92.26,101.30 91.76,101.00 91.24,100.70 90.72,100.40 90.18,100.10 89.64,99.80 89.08,99.50 88.52,99.20 87.94,98.90 87.36,98.60 86.77,98.30 86.18,98.00 85.58,97.70 84.97,97.40 84.36,97.10 83.75,96.80 83.13,96.50 82.51,96.20 81.88,95.90 81.26,95.60 80.63,95.30 80.00,95.00 79.37,94.70 78.74,94.40 78.12,94.10 77.49,93.80 76.87,93.50 76.25,93.20 75.64,92.90 75.03,92.60 74.42,92.30 73.82,92.00 73.23,91.70 72.64,91.40 72.06,91.10 71.48,90.80 70.92,90.50 70.36,90.20 69.82,89.90 69.28,89.60 68.76,89.30 68.24,89.00 67.74,88.70 67.25,88.40 66.77,88.10 66.31,87.80 65.86,87.50 65.42,87.20 65.00,86.90 64.59,86.60 64.20,86.30 63.82,86.00 63.46,85.70 63.11,85.40 62.79,85.10 62.47,84.80 62.18,84.50 61.90,84.20 61.64,83.90 61.40,83.60 61.18,83.30 60.98,83.00 60.79,82.70 60.63,82.40 60.48,82.10 60.35,81.80 60.25,81.50 60.16,81.20 60.09,80.90 60.04,80.60 60.01,80.30 60.00,80.00" class="result" stroke="#0055cc" stroke-width="0.5"/>
<polyline points="60.01,79.70 60.04,79.40 60.09,79.10 60.16,78.80 60.25,78.50 60.35,78.20 60.48,77.90 60.63,77.60 60.79,77.30 60.98,77.00 61.18,76.70 61.40,76.40 61.64,76.10 61.90,75.80 62.18,75.50 62.47,75.20 62.79,74.90 63.11,74.60 63.46,74.30 63.82,74.00 64.20,73.70 64.59,73.40 65.00,73.10 65.42,72.80 65.86,72.50 66.31,72.20 66.77,71.90 67.25,71.60 67.74,71.30 68.24,71.00 68.76,70.70 69.28,70.40 69.82,70.10 70.36,69.80 70.92,69.50 71.48,69.20 72.06,68.90 72.64,68.60 73.23,68.30 73.82,68.00 74.42,67.70 75.03,67.40 75.64,67.10 76.25,66.80 76.87,66.50 77.49,66.20 78.12,65.90 78.74,65.60 79.37,65.30 80.00,65.00 80.63,64.70 81.26,64.40 81.88,64.10 82.51,63.80 83.13,63.50 83.75,63.20 84.36,62.90 84.97,62.60 85.58,62.30 86.18,62.00 86.77,61.70 87.36,61.40 87.94,61.10 88.52,60.80 89.08,60.50 89.64,60.20 90.18,59.90 90.72,59.60 91.24,59.30 91.76,59.00 92.26,58.70 92.75,58.40 93.23,58.10 93.69,57.80 94.14,57.50 94.58,57.20 95.00,56.90 95.41,56.60 95.80,56.30 96.18,56.00 96.54,55.70 96.89,55.40 97.21,55.10 97.53,54.80 97.82,54.50 98.10,54.20 98.36,53.90 98.60,53.60 98.82,53.30 99.02,53.00 99.21,52.70 99.37,52.40 99.52,52.10 99.65,51.80 99.75,51.50 99.84,51.20 99.91,50.90 99.96,50.60 99.99,50.30 100.00,50.00" class="hidden"/>
<line x1="105.00" y1="170.00" x2="105.00" y2="110.00" class="dim"/>
<text x="107.00" y="140.00" class="label-sm" fill="#00a">h = 60</text>
<circle cx="200.00" cy="140.00" r="20.00" class="result"/>
<line x1="175.00" y1="140.00" x2="225.00" y2="140.00" class="center"/>
<line x1="200.00" y1="115.00" x2="200.00" y2="165.00" class="center"/>
<text x="190.00" y="112.00" class="label">Grundriss</text>
<circle cx="220.00" cy="140.00" r="0.6" fill="#000"/>
<text x="222.00" y="138.00" class="label">Start</text>
<circle cx="220.00" cy="140.00" r="0.4" fill="#0055cc"/>
<circle cx="214.14" cy="125.86" r="0.4" fill="#0055cc"/>
<circle cx="200.00" cy="120.00" r="0.4" fill="#0055cc"/>
<circle cx="185.86" cy="125.86" r="0.4" fill="#0055cc"/>
<circle cx="180.00" cy="140.00" r="0.4" fill="#0055cc"/>
<circle cx="185.86" cy="154.14" r="0.4" fill="#0055cc"/>
<circle cx="200.00" cy="160.00" r="0.4" fill="#0055cc"/>
<circle cx="214.14" cy="154.14" r="0.4" fill="#0055cc"/>
<text x="170.00" y="30.00" class="title">Abwicklung</text>
<rect x="170.00" y="33.00" width="37.70" height="36.00" class="result" fill="none"/>
<line x1="170.00" y1="33.00" x2="207.70" y2="51.00" class="blue"/>
<line x1="170.00" y1="51.00" x2="207.70" y2="69.00" class="blue"/>
<text x="170.00" y="74.00" class="label-sm">Steigungswinkel α = arctan(h/U) = 25.5°</text>
<text x="30" y="20" class="title">Aufgabe 10: Schraublinie auf einem Zylinder</text>
<text x="30" y="25" class="label-sm">d=40, Steigung h=60, 2 Umgänge</text>
<text x="30" y="29" class="label-sm">Aufriss: Sinuskurve, Grundriss: Kreis</text>
</svg>
