<?xml version="1.0" encoding="UTF-8"?>
<svg xmlns="http://www.w3.org/2000/svg"
     width="297mm" height="210mm"
     viewBox="0 0 297 210">
  <defs>
    <style>
      .visible { stroke: black; stroke-width: 0.3; fill: none; stroke-linecap: round; }
      .hidden  { stroke: black; stroke-width: 0.15; fill: none;
                  stroke-dasharray: 2,1; stroke-linecap: round; }
      .axis    { stroke: red; stroke-width: 0.15; fill: none; }
      .section { fill: #dde; stroke: black; stroke-width: 0.3; }
      text { font-family: Arial, sans-serif; }
    </style>
  </defs>
  <rect width="297" height="210" fill="white"/>
  <rect x="20" y="10" width="267" height="190"
        stroke="black" stroke-width="0.5" fill="none"/>
  <rect x="197" y="185" width="90" height="15"
        stroke="black" stroke-width="0.35" fill="white"/>
  <text x="200" y="192" font-size="3.5" fill="black">Aufgabe 2: Schraegriss Quader 80x50x30</text>
  <text x="200" y="197" font-size="2.5" fill="black">GZ Sek I | CadQuery + HLR</text>
  <path d="M195.14,90.16 L195.14,118.89" class="visible"/>
  <path d="M195.14,118.89 L170.14,131.34" class="visible"/>
  <path d="M125.86,78.66 L125.86,107.40" class="visible"/>
  <path d="M125.86,107.40 L100.86,119.84" class="visible"/>
  <path d="M100.86,91.11 L100.86,119.84" class="visible"/>
  <path d="M125.86,78.66 L100.86,91.11" class="visible"/>
  <path d="M195.14,90.16 L125.86,78.66" class="visible"/>
  <path d="M195.14,118.89 L125.86,107.40" class="visible"/>
  <path d="M170.14,131.34 L100.86,119.84" class="visible"/>
  <path d="M170.14,102.60 L170.14,131.34" class="hidden"/>
  <path d="M195.14,90.16 L170.14,102.60" class="hidden"/>
  <path d="M170.14,102.60 L100.86,91.11" class="hidden"/>
  <line x1="40.0" y1="180.0" x2="55.0" y2="180.0" class="axis" marker-end="none"/>
  <line x1="40.0" y1="180.0" x2="40.0" y2="165.0" class="axis"/>
  <text x="56.0" y="181.0" font-size="2.5" fill="red">x</text>
  <text x="41.0" y="164.0" font-size="2.5" fill="red">z</text>
</svg>
