<?xml version="1.0" encoding="UTF-8"?>
<svg xmlns="http://www.w3.org/2000/svg"
     width="297mm" height="210mm"
     viewBox="0 0 297 210">
  <defs>
    <style>
      .visible { stroke: black; stroke-width: 0.3; fill: none; stroke-linecap: round; }
      .hidden  { stroke: black; stroke-width: 0.15; fill: none;
                  stroke-dasharray: 2,1; stroke-linecap: round; }
      .axis    { stroke: red; stroke-width: 0.15; fill: none; }
      .section { fill: #dde; stroke: black; stroke-width: 0.3; }
      text { font-family: Arial, sans-serif; }
    </style>
  </defs>
  <rect width="297" height="210" fill="white"/>
  <rect x="20" y="10" width="267" height="190"
        stroke="black" stroke-width="0.5" fill="none"/>
  <rect x="197" y="185" width="90" height="15"
        stroke="black" stroke-width="0.35" fill="white"/>
  <text x="200" y="192" font-size="3.5" fill="black">Aufgabe 9: Kreis im Schraegriss (Zylinder)</text>
  <text x="200" y="197" font-size="2.5" fill="black">GZ Sek I | CadQuery + HLR</text>
  <path d="M126.35,100.36 L126.19,100.46 L126.03,100.57 L125.88,100.68 L125.72,100.78 L125.58,100.89 L125.44,101.00 L125.30,101.11 L125.16,101.22 L125.03,101.33 L124.90,101.45 L124.78,101.56 L124.66,101.67 L124.55,101.79 L124.43,101.90 L124.33,102.02 L124.22,102.13 L124.12,102.25 L124.03,102.36 L123.94,102.48 L123.85,102.60 L123.77,102.71 L123.69,102.83 L123.62,102.95 L123.55,103.07 L123.48,103.19 L123.42,103.31 L123.36,103.43 L123.31,103.55 L123.26,103.67 L123.21,103.79 L123.17,103.91 L123.14,104.03 L123.10,104.15 L123.08,104.27 L123.05,104.39 L123.03,104.51 L123.02,104.64 L123.01,104.76 L123.00,104.88 L123.00,105.00" class="visible"/>
  <path d="M173.00,105.00 L172.95,104.39 L172.79,103.79 L172.52,103.19 L172.15,102.60 L171.67,102.02 L171.10,101.45 L170.42,100.89 L169.65,100.36 L168.79,99.84 L167.83,99.35 L166.80,98.88 L165.68,98.43 L164.48,98.02 L163.22,97.63 L161.89,97.28 L160.50,96.96 L159.06,96.67 L157.57,96.42 L156.04,96.21 L154.47,96.03 L152.88,95.89 L151.26,95.79 L149.64,95.74 L148.00,95.72 L146.36,95.74 L144.74,95.79 L143.12,95.89 L141.53,96.03 L139.96,96.21 L138.43,96.42 L136.94,96.67 L135.50,96.96 L134.11,97.28 L132.78,97.63 L131.52,98.02 L130.32,98.43 L129.20,98.88 L128.17,99.35 L127.21,99.84 L126.35,100.36" class="visible"/>
  <path d="M126.35,146.78 L126.19,146.89 L126.03,146.99 L125.88,147.10 L125.72,147.21 L125.58,147.32 L125.44,147.43 L125.30,147.54 L125.16,147.65 L125.03,147.76 L124.90,147.87 L124.78,147.98 L124.66,148.10 L124.55,148.21 L124.43,148.32 L124.33,148.44 L124.22,148.55 L124.12,148.67 L124.03,148.79 L123.94,148.90 L123.85,149.02 L123.77,149.14 L123.69,149.26 L123.62,149.37 L123.55,149.49 L123.48,149.61 L123.42,149.73 L123.36,149.85 L123.31,149.97 L123.26,150.09 L123.21,150.21 L123.17,150.33 L123.14,150.45 L123.10,150.57 L123.08,150.70 L123.05,150.82 L123.03,150.94 L123.02,151.06 L123.01,151.18 L123.00,151.30 L123.00,151.42" class="visible"/>
  <path d="M123.00,151.42 L123.08,152.15 L123.31,152.88 L123.69,153.59 L124.22,154.29 L124.90,154.98 L125.72,155.64 L126.68,156.28 L127.77,156.88 L128.99,157.45 L130.32,157.99 L131.76,158.48 L133.31,158.94 L134.94,159.34 L136.65,159.70 L138.43,160.00 L140.27,160.25 L142.16,160.45 L144.09,160.59 L146.04,160.68 L148.00,160.71 L149.96,160.68 L151.91,160.59 L153.84,160.45 L155.73,160.25 L157.57,160.00 L159.35,159.70 L161.06,159.34 L162.69,158.94 L164.24,158.48 L165.68,157.99 L167.01,157.45 L168.23,156.88 L169.32,156.28 L170.28,155.64 L171.10,154.98 L171.78,154.29 L172.31,153.59 L172.69,152.88 L172.92,152.15 L173.00,151.42" class="visible"/>
  <path d="M173.00,151.42 L172.95,150.82 L172.79,150.21 L172.52,149.61 L172.15,149.02 L171.67,148.44 L171.10,147.87 L170.42,147.32 L169.65,146.78 L168.79,146.27 L167.83,145.77 L166.80,145.30 L165.68,144.86 L164.48,144.44 L163.22,144.06 L161.89,143.70 L160.50,143.38 L159.06,143.10 L157.57,142.85 L156.04,142.63 L154.47,142.46 L152.88,142.32 L151.26,142.22 L149.64,142.16 L148.00,142.14 L146.36,142.16 L144.74,142.22 L143.12,142.32 L141.53,142.46 L139.96,142.63 L138.43,142.85 L136.94,143.10 L135.50,143.38 L134.11,143.70 L132.78,144.06 L131.52,144.44 L130.32,144.86 L129.20,145.30 L128.17,145.77 L127.21,146.27 L126.35,146.78" class="visible"/>
  <path d="M173.00,151.42 L173.00,105.00" class="visible"/>
  <path d="M123.00,151.42 L123.00,105.00" class="visible"/>
  <path d="M123.00,105.00 L123.08,105.73 L123.31,106.45 L123.69,107.17 L124.22,107.87 L124.90,108.55 L125.72,109.22 L126.68,109.85 L127.77,110.46 L128.99,111.03 L130.32,111.57 L131.76,112.06 L133.31,112.51 L134.94,112.92 L136.65,113.27 L138.43,113.58 L140.27,113.83 L142.16,114.03 L144.09,114.17 L146.04,114.26 L148.00,114.28 L149.96,114.26 L151.91,114.17 L153.84,114.03 L155.73,113.83 L157.57,113.58 L159.35,113.27 L161.06,112.92 L162.69,112.51 L164.24,112.06 L165.68,111.57 L167.01,111.03 L168.23,110.46 L169.32,109.85 L170.28,109.22 L171.10,108.55 L171.78,107.87 L172.31,107.17 L172.69,106.45 L172.92,105.73 L173.00,105.00" class="hidden"/>
  <line x1="40.0" y1="180.0" x2="55.0" y2="180.0" class="axis" marker-end="none"/>
  <line x1="40.0" y1="180.0" x2="40.0" y2="165.0" class="axis"/>
  <text x="56.0" y="181.0" font-size="2.5" fill="red">x</text>
  <text x="41.0" y="164.0" font-size="2.5" fill="red">z</text>
</svg>
