<?xml version="1.0" encoding="UTF-8"?>
<svg xmlns="http://www.w3.org/2000/svg"
     width="297mm" height="210mm"
     viewBox="0 0 297 210">
  <defs>
    <style>
      .visible { stroke: black; stroke-width: 0.3; fill: none; stroke-linecap: round; }
      .hidden  { stroke: black; stroke-width: 0.15; fill: none;
                  stroke-dasharray: 2,1; stroke-linecap: round; }
      .axis    { stroke: red; stroke-width: 0.15; fill: none; }
      .section { fill: #dde; stroke: black; stroke-width: 0.3; }
      text { font-family: Arial, sans-serif; }
    </style>
  </defs>
  <rect width="297" height="210" fill="white"/>
  <rect x="20" y="10" width="267" height="190"
        stroke="black" stroke-width="0.5" fill="none"/>
  <rect x="197" y="185" width="90" height="15"
        stroke="black" stroke-width="0.35" fill="white"/>
  <text x="200" y="192" font-size="3.5" fill="black">Aufgabe 10: Zusammengesetzter Koerper (Quader + Pyramide)</text>
  <text x="200" y="197" font-size="2.5" fill="black">GZ Sek I | CadQuery + HLR</text>
  <path d="M182.83,95.87 L182.83,127.96" class="visible"/>
  <path d="M182.83,95.87 L138.67,87.45" class="visible"/>
  <path d="M138.67,87.45 L138.67,119.54" class="visible"/>
  <path d="M182.83,127.96 L138.67,119.54" class="visible"/>
  <path d="M182.83,127.96 L181.96,129.04 L181.09,130.12 L180.22,131.20 L179.35,132.28 L178.48,133.36 L177.61,134.44 L176.74,135.52 L175.87,136.60 L175.00,137.68 L174.13,138.76 L173.26,139.84 L172.39,140.92 L171.52,142.00 L170.65,143.08 L169.78,144.16 L168.90,145.24 L168.03,146.32 L167.16,147.40 L166.29,148.48 L165.42,149.56 L164.55,150.64 L163.68,151.72 L162.81,152.80 L161.94,153.88 L161.07,154.96 L160.20,156.04 L159.33,157.12 L158.46,158.20 L157.59,159.28 L156.72,160.36 L155.85,161.44 L154.98,162.52 L154.11,163.60 L153.23,164.68 L152.36,165.76 L151.49,166.84 L150.62,167.92 L149.75,169.00 L148.88,170.08 L148.01,171.16" class="visible"/>
  <path d="M148.00,171.16 L148.01,171.16" class="visible"/>
  <path d="M113.17,102.04 L113.17,134.13" class="visible"/>
  <path d="M138.67,87.45 L113.17,102.04" class="visible"/>
  <path d="M138.67,119.54 L113.17,134.13" class="visible"/>
  <path d="M138.67,119.54 L138.90,120.83 L139.13,122.12 L139.37,123.41 L139.60,124.70 L139.83,125.99 L140.07,127.28 L140.30,128.57 L140.53,129.86 L140.77,131.15 L141.00,132.44 L141.23,133.73 L141.47,135.02 L141.70,136.31 L141.93,137.60 L142.17,138.89 L142.40,140.19 L142.63,141.48 L142.87,142.77 L143.10,144.06 L143.33,145.35 L143.56,146.64 L143.80,147.93 L144.03,149.22 L144.26,150.51 L144.50,151.80 L144.73,153.09 L144.96,154.38 L145.20,155.67 L145.43,156.96 L145.66,158.25 L145.90,159.54 L146.13,160.83 L146.36,162.12 L146.60,163.41 L146.83,164.70 L147.06,165.99 L147.30,167.28 L147.53,168.57 L147.76,169.87 L148.00,171.16" class="visible"/>
  <path d="M148.01,171.16 L148.00,171.16" class="visible"/>
  <path d="M148.00,171.16 L147.99,171.16" class="visible"/>
  <path d="M147.99,171.16 L148.00,171.16" class="visible"/>
  <path d="M113.17,134.13 L114.04,135.05 L114.91,135.98 L115.78,136.91 L116.65,137.83 L117.52,138.76 L118.39,139.68 L119.26,140.61 L120.13,141.54 L121.00,142.46 L121.87,143.39 L122.74,144.31 L123.61,145.24 L124.48,146.16 L125.35,147.09 L126.22,148.02 L127.10,148.94 L127.97,149.87 L128.84,150.79 L129.71,151.72 L130.58,152.64 L131.45,153.57 L132.32,154.50 L133.19,155.42 L134.06,156.35 L134.93,157.27 L135.80,158.20 L136.67,159.13 L137.54,160.05 L138.41,160.98 L139.28,161.90 L140.15,162.83 L141.02,163.75 L141.89,164.68 L142.77,165.61 L143.64,166.53 L144.51,167.46 L145.38,168.38 L146.25,169.31 L147.12,170.23 L147.99,171.16" class="visible"/>
  <path d="M182.83,127.96 L157.33,142.55" class="hidden"/>
  <path d="M157.33,110.46 L157.33,142.55" class="hidden"/>
  <path d="M182.83,95.87 L157.33,110.46" class="hidden"/>
  <path d="M157.33,142.55 L157.10,143.27 L156.87,143.98 L156.63,144.70 L156.40,145.41 L156.17,146.13 L155.93,146.84 L155.70,147.56 L155.47,148.28 L155.23,148.99 L155.00,149.71 L154.77,150.42 L154.53,151.14 L154.30,151.85 L154.07,152.57 L153.83,153.28 L153.60,154.00 L153.37,154.71 L153.13,155.43 L152.90,156.14 L152.67,156.86 L152.44,157.57 L152.20,158.29 L151.97,159.00 L151.74,159.72 L151.50,160.43 L151.27,161.15 L151.04,161.86 L150.80,162.58 L150.57,163.30 L150.34,164.01 L150.10,164.73 L149.87,165.44 L149.64,166.16 L149.40,166.87 L149.17,167.59 L148.94,168.30 L148.70,169.02 L148.47,169.73 L148.24,170.45 L148.00,171.16" class="hidden"/>
  <path d="M157.33,110.46 L113.17,102.04" class="hidden"/>
  <path d="M157.33,142.55 L113.17,134.13" class="hidden"/>
  <line x1="40.0" y1="185.0" x2="55.0" y2="185.0" class="axis" marker-end="none"/>
  <line x1="40.0" y1="185.0" x2="40.0" y2="170.0" class="axis"/>
  <text x="56.0" y="186.0" font-size="2.5" fill="red">x</text>
  <text x="41.0" y="169.0" font-size="2.5" fill="red">z</text>
</svg>
