<?xml version="1.0" encoding="UTF-8"?>
<svg xmlns="http://www.w3.org/2000/svg"
     width="297mm" height="210mm"
     viewBox="0 0 297 210">
  <defs>
    <style>
      .visible { stroke: black; stroke-width: 0.3; fill: none; stroke-linecap: round; }
      .hidden  { stroke: black; stroke-width: 0.15; fill: none;
                  stroke-dasharray: 2,1; stroke-linecap: round; }
      .axis    { stroke: red; stroke-width: 0.15; fill: none; }
      .section { fill: #dde; stroke: black; stroke-width: 0.3; }
      text { font-family: Arial, sans-serif; }
    </style>
  </defs>
  <rect width="297" height="210" fill="white"/>
  <rect x="20" y="10" width="267" height="190"
        stroke="black" stroke-width="0.5" fill="none"/>
  <rect x="197" y="185" width="90" height="15"
        stroke="black" stroke-width="0.35" fill="white"/>
  <text x="200" y="192" font-size="3.5" fill="black">Aufgabe 7: Durchdringung Quader-Quader</text>
  <text x="200" y="197" font-size="2.5" fill="black">GZ Sek I | CadQuery + HLR</text>
  <text x="90" y="25" font-size="3.5" text-anchor="middle">Aufriss</text>
  <text x="90" y="120" font-size="3.5" text-anchor="middle">Grundriss</text>
  <text x="210" y="25" font-size="3.5" text-anchor="middle">Kreuzriss</text>
  <path d="M76.00,96.00 L76.00,54.00" class="visible"/>
  <path d="M76.00,96.00 L104.00,96.00" class="visible"/>
  <path d="M104.00,96.00 L104.00,54.00" class="visible"/>
  <path d="M76.00,54.00 L104.00,54.00" class="visible"/>
  <path d="M79.50,64.50 L100.50,64.50" class="visible"/>
  <path d="M100.50,85.50 L100.50,64.50" class="visible"/>
  <path d="M79.50,85.50 L100.50,85.50" class="visible"/>
  <path d="M79.50,85.50 L79.50,64.50" class="visible"/>
  <path d="M76.00,96.00 L76.00,54.00" class="hidden"/>
  <path d="M79.50,64.50 L100.50,64.50" class="hidden"/>
  <path d="M100.50,64.50 L100.50,85.50" class="hidden"/>
  <path d="M79.50,85.50 L100.50,85.50" class="hidden"/>
  <path d="M79.50,64.50 L79.50,85.50" class="hidden"/>
  <path d="M76.00,54.00 L104.00,54.00" class="hidden"/>
  <path d="M76.00,96.00 L104.00,96.00" class="hidden"/>
  <path d="M104.00,96.00 L104.00,54.00" class="hidden"/>
  <path d="M79.50,64.50 L100.50,64.50" class="hidden"/>
  <path d="M100.50,64.50 L100.50,85.50" class="hidden"/>
  <path d="M79.50,85.50 L100.50,85.50" class="hidden"/>
  <path d="M79.50,64.50 L79.50,85.50" class="hidden"/>
  <path d="M79.50,64.50 L100.50,64.50" class="hidden"/>
  <path d="M100.50,85.50 L100.50,64.50" class="hidden"/>
  <path d="M79.50,85.50 L100.50,85.50" class="hidden"/>
  <path d="M79.50,85.50 L79.50,64.50" class="hidden"/>
  <path d="M76.00,141.00 L76.00,169.00" class="visible"/>
  <path d="M76.00,141.00 L104.00,141.00" class="visible"/>
  <path d="M76.00,169.00 L104.00,169.00" class="visible"/>
  <path d="M104.00,141.00 L104.00,169.00" class="visible"/>
  <path d="M100.50,141.00 L100.50,127.00" class="visible"/>
  <path d="M79.50,127.00 L100.50,127.00" class="visible"/>
  <path d="M79.50,141.00 L79.50,127.00" class="visible"/>
  <path d="M100.50,183.00 L100.50,169.00" class="visible"/>
  <path d="M79.50,183.00 L79.50,169.00" class="visible"/>
  <path d="M79.50,183.00 L100.50,183.00" class="visible"/>
  <path d="M76.00,141.00 L76.00,169.00" class="hidden"/>
  <path d="M76.00,141.00 L104.00,141.00" class="hidden"/>
  <path d="M79.50,141.00 L100.50,141.00" class="hidden"/>
  <path d="M79.50,141.00 L100.50,141.00" class="hidden"/>
  <path d="M76.00,169.00 L104.00,169.00" class="hidden"/>
  <path d="M104.00,141.00 L104.00,169.00" class="hidden"/>
  <path d="M79.50,169.00 L100.50,169.00" class="hidden"/>
  <path d="M79.50,169.00 L100.50,169.00" class="hidden"/>
  <path d="M100.50,141.00 L100.50,127.00" class="hidden"/>
  <path d="M79.50,127.00 L100.50,127.00" class="hidden"/>
  <path d="M79.50,141.00 L79.50,127.00" class="hidden"/>
  <path d="M100.50,183.00 L100.50,169.00" class="hidden"/>
  <path d="M79.50,183.00 L79.50,169.00" class="hidden"/>
  <path d="M79.50,183.00 L100.50,183.00" class="hidden"/>
  <path d="M224.00,54.00 L224.00,96.00" class="visible"/>
  <path d="M224.00,96.00 L196.00,96.00" class="visible"/>
  <path d="M196.00,54.00 L196.00,96.00" class="visible"/>
  <path d="M224.00,54.00 L196.00,54.00" class="visible"/>
  <path d="M224.00,85.50 L238.00,85.50" class="visible"/>
  <path d="M224.00,64.50 L238.00,64.50" class="visible"/>
  <path d="M238.00,64.50 L238.00,85.50" class="visible"/>
  <path d="M182.00,85.50 L196.00,85.50" class="visible"/>
  <path d="M182.00,64.50 L196.00,64.50" class="visible"/>
  <path d="M182.00,64.50 L182.00,85.50" class="visible"/>
  <path d="M224.00,54.00 L224.00,96.00" class="hidden"/>
  <path d="M224.00,96.00 L196.00,96.00" class="hidden"/>
  <path d="M196.00,54.00 L196.00,96.00" class="hidden"/>
  <path d="M224.00,54.00 L196.00,54.00" class="hidden"/>
  <path d="M224.00,85.50 L224.00,64.50" class="hidden"/>
  <path d="M224.00,85.50 L224.00,64.50" class="hidden"/>
  <path d="M196.00,85.50 L196.00,64.50" class="hidden"/>
  <path d="M196.00,85.50 L196.00,64.50" class="hidden"/>
  <path d="M224.00,85.50 L238.00,85.50" class="hidden"/>
  <path d="M224.00,64.50 L238.00,64.50" class="hidden"/>
  <path d="M238.00,64.50 L238.00,85.50" class="hidden"/>
  <path d="M182.00,85.50 L196.00,85.50" class="hidden"/>
  <path d="M182.00,64.50 L196.00,64.50" class="hidden"/>
  <path d="M182.00,64.50 L182.00,85.50" class="hidden"/>
  <line x1="30" y1="113" x2="260" y2="113" stroke="#ccc" stroke-width="0.15" stroke-dasharray="4,2"/>
  <line x1="155" y1="20" x2="155" y2="200" stroke="#ccc" stroke-width="0.15" stroke-dasharray="4,2"/>
  <line x1="35.0" y1="105.0" x2="50.0" y2="105.0" class="axis" marker-end="none"/>
  <line x1="35.0" y1="105.0" x2="35.0" y2="90.0" class="axis"/>
  <text x="51.0" y="106.0" font-size="2.5" fill="red">x</text>
  <text x="36.0" y="89.0" font-size="2.5" fill="red">z</text>
</svg>
