<?xml version="1.0" encoding="UTF-8"?>
<svg xmlns="http://www.w3.org/2000/svg"
     width="297mm" height="210mm"
     viewBox="0 0 297 210">
  <defs>
    <style>
      .visible { stroke: black; stroke-width: 0.3; fill: none; stroke-linecap: round; }
      .hidden  { stroke: black; stroke-width: 0.15; fill: none;
                  stroke-dasharray: 2,1; stroke-linecap: round; }
      .axis    { stroke: red; stroke-width: 0.15; fill: none; }
      .section { fill: #dde; stroke: black; stroke-width: 0.3; }
      text { font-family: Arial, sans-serif; }
    </style>
  </defs>
  <rect width="297" height="210" fill="white"/>
  <rect x="20" y="10" width="267" height="190"
        stroke="black" stroke-width="0.5" fill="none"/>
  <rect x="197" y="185" width="90" height="15"
        stroke="black" stroke-width="0.35" fill="white"/>
  <text x="200" y="192" font-size="3.5" fill="black">Aufgabe 3: Normalriss Pyramide 60x60 h=80</text>
  <text x="200" y="197" font-size="2.5" fill="black">GZ Sek I | CadQuery + HLR</text>
  <text x="90" y="25" font-size="3.5" text-anchor="middle" fill="black">Aufriss</text>
  <text x="90" y="125" font-size="3.5" text-anchor="middle" fill="black">Grundriss</text>
  <text x="200" y="25" font-size="3.5" text-anchor="middle" fill="black">Kreuzriss</text>
  <path d="M70.50,85.00 L109.50,85.00" class="visible"/>
  <path d="M109.50,85.00 L109.01,83.70 L108.53,82.40 L108.04,81.10 L107.55,79.80 L107.06,78.50 L106.58,77.20 L106.09,75.90 L105.60,74.60 L105.11,73.30 L104.63,72.00 L104.14,70.70 L103.65,69.40 L103.16,68.10 L102.68,66.80 L102.19,65.50 L101.70,64.20 L101.22,62.90 L100.73,61.60 L100.24,60.30 L99.75,59.00 L99.27,57.70 L98.78,56.40 L98.29,55.10 L97.80,53.80 L97.32,52.50 L96.83,51.20 L96.34,49.90 L95.85,48.60 L95.37,47.30 L94.88,46.00 L94.39,44.70 L93.91,43.40 L93.42,42.10 L92.93,40.80 L92.44,39.50 L91.96,38.20 L91.47,36.90 L90.98,35.60 L90.49,34.30 L90.01,33.00" class="visible"/>
  <path d="M89.99,33.00 L90.01,33.00" class="visible"/>
  <path d="M70.50,85.00 L70.99,83.70 L71.47,82.40 L71.96,81.10 L72.45,79.80 L72.94,78.50 L73.42,77.20 L73.91,75.90 L74.40,74.60 L74.89,73.30 L75.37,72.00 L75.86,70.70 L76.35,69.40 L76.84,68.10 L77.32,66.80 L77.81,65.50 L78.30,64.20 L78.78,62.90 L79.27,61.60 L79.76,60.30 L80.25,59.00 L80.73,57.70 L81.22,56.40 L81.71,55.10 L82.20,53.80 L82.68,52.50 L83.17,51.20 L83.66,49.90 L84.15,48.60 L84.63,47.30 L85.12,46.00 L85.61,44.70 L86.09,43.40 L86.58,42.10 L87.07,40.80 L87.56,39.50 L88.04,38.20 L88.53,36.90 L89.02,35.60 L89.51,34.30 L89.99,33.00" class="visible"/>
  <path d="M109.50,85.00 L109.01,83.70 L108.53,82.40 L108.04,81.10 L107.55,79.80 L107.06,78.50 L106.58,77.20 L106.09,75.90 L105.60,74.60 L105.11,73.30 L104.63,72.00 L104.14,70.70 L103.65,69.40 L103.16,68.10 L102.68,66.80 L102.19,65.50 L101.70,64.20 L101.22,62.90 L100.73,61.60 L100.24,60.30 L99.75,59.00 L99.27,57.70 L98.78,56.40 L98.29,55.10 L97.80,53.80 L97.32,52.50 L96.83,51.20 L96.34,49.90 L95.85,48.60 L95.37,47.30 L94.88,46.00 L94.39,44.70 L93.91,43.40 L93.42,42.10 L92.93,40.80 L92.44,39.50 L91.96,38.20 L91.47,36.90 L90.98,35.60 L90.49,34.30 L90.01,33.00" class="hidden"/>
  <path d="M109.50,85.00 L70.50,85.00" class="hidden"/>
  <path d="M70.50,85.00 L70.99,83.70 L71.47,82.40 L71.96,81.10 L72.45,79.80 L72.94,78.50 L73.42,77.20 L73.91,75.90 L74.40,74.60 L74.89,73.30 L75.37,72.00 L75.86,70.70 L76.35,69.40 L76.84,68.10 L77.32,66.80 L77.81,65.50 L78.30,64.20 L78.78,62.90 L79.27,61.60 L79.76,60.30 L80.25,59.00 L80.73,57.70 L81.22,56.40 L81.71,55.10 L82.20,53.80 L82.68,52.50 L83.17,51.20 L83.66,49.90 L84.15,48.60 L84.63,47.30 L85.12,46.00 L85.61,44.70 L86.09,43.40 L86.58,42.10 L87.07,40.80 L87.56,39.50 L88.04,38.20 L88.53,36.90 L89.02,35.60 L89.51,34.30 L89.99,33.00" class="hidden"/>
  <path d="M90.01,33.00 L89.99,33.00" class="hidden"/>
  <path d="M70.50,140.50 L109.50,140.50" class="visible"/>
  <path d="M109.50,140.50 L109.50,179.50" class="visible"/>
  <path d="M109.50,179.50 L70.50,179.50" class="visible"/>
  <path d="M70.50,179.50 L70.50,140.50" class="visible"/>
  <path d="M109.50,140.50 L109.01,140.99 L108.53,141.47 L108.04,141.96 L107.55,142.45 L107.06,142.94 L106.58,143.42 L106.09,143.91 L105.60,144.40 L105.11,144.89 L104.63,145.37 L104.14,145.86 L103.65,146.35 L103.16,146.84 L102.68,147.32 L102.19,147.81 L101.70,148.30 L101.22,148.78 L100.73,149.27 L100.24,149.76 L99.75,150.25 L99.27,150.73 L98.78,151.22 L98.29,151.71 L97.80,152.20 L97.32,152.68 L96.83,153.17 L96.34,153.66 L95.85,154.15 L95.37,154.63 L94.88,155.12 L94.39,155.61 L93.91,156.09 L93.42,156.58 L92.93,157.07 L92.44,157.56 L91.96,158.04 L91.47,158.53 L90.98,159.02 L90.49,159.51 L90.01,159.99" class="hidden"/>
  <path d="M89.99,159.99 L90.01,159.99" class="hidden"/>
  <path d="M70.50,140.50 L70.99,140.99 L71.47,141.47 L71.96,141.96 L72.45,142.45 L72.94,142.94 L73.42,143.42 L73.91,143.91 L74.40,144.40 L74.89,144.89 L75.37,145.37 L75.86,145.86 L76.35,146.35 L76.84,146.84 L77.32,147.32 L77.81,147.81 L78.30,148.30 L78.78,148.78 L79.27,149.27 L79.76,149.76 L80.25,150.25 L80.73,150.73 L81.22,151.22 L81.71,151.71 L82.20,152.20 L82.68,152.68 L83.17,153.17 L83.66,153.66 L84.15,154.15 L84.63,154.63 L85.12,155.12 L85.61,155.61 L86.09,156.09 L86.58,156.58 L87.07,157.07 L87.56,157.56 L88.04,158.04 L88.53,158.53 L89.02,159.02 L89.51,159.51 L89.99,159.99" class="hidden"/>
  <path d="M109.50,179.50 L109.01,179.01 L108.53,178.53 L108.04,178.04 L107.55,177.55 L107.06,177.06 L106.58,176.58 L106.09,176.09 L105.60,175.60 L105.11,175.11 L104.63,174.63 L104.14,174.14 L103.65,173.65 L103.16,173.16 L102.68,172.68 L102.19,172.19 L101.70,171.70 L101.22,171.22 L100.73,170.73 L100.24,170.24 L99.75,169.75 L99.27,169.27 L98.78,168.78 L98.29,168.29 L97.80,167.80 L97.32,167.32 L96.83,166.83 L96.34,166.34 L95.85,165.85 L95.37,165.37 L94.88,164.88 L94.39,164.39 L93.91,163.91 L93.42,163.42 L92.93,162.93 L92.44,162.44 L91.96,161.96 L91.47,161.47 L90.98,160.98 L90.49,160.49 L90.01,160.01" class="hidden"/>
  <path d="M90.01,159.99 L90.01,160.01" class="hidden"/>
  <path d="M70.50,179.50 L70.99,179.01 L71.47,178.53 L71.96,178.04 L72.45,177.55 L72.94,177.06 L73.42,176.58 L73.91,176.09 L74.40,175.60 L74.89,175.11 L75.37,174.63 L75.86,174.14 L76.35,173.65 L76.84,173.16 L77.32,172.68 L77.81,172.19 L78.30,171.70 L78.78,171.22 L79.27,170.73 L79.76,170.24 L80.25,169.75 L80.73,169.27 L81.22,168.78 L81.71,168.29 L82.20,167.80 L82.68,167.32 L83.17,166.83 L83.66,166.34 L84.15,165.85 L84.63,165.37 L85.12,164.88 L85.61,164.39 L86.09,163.91 L86.58,163.42 L87.07,162.93 L87.56,162.44 L88.04,161.96 L88.53,161.47 L89.02,160.98 L89.51,160.49 L89.99,160.01" class="hidden"/>
  <path d="M90.01,160.01 L89.99,160.01" class="hidden"/>
  <path d="M89.99,160.01 L89.99,159.99" class="hidden"/>
  <path d="M219.50,85.00 L219.01,86.30 L218.53,87.60 L218.04,88.90 L217.55,90.20 L217.06,91.50 L216.58,92.80 L216.09,94.10 L215.60,95.40 L215.11,96.70 L214.63,98.00 L214.14,99.30 L213.65,100.60 L213.16,101.90 L212.68,103.20 L212.19,104.50 L211.70,105.80 L211.22,107.10 L210.73,108.40 L210.24,109.70 L209.75,111.00 L209.27,112.30 L208.78,113.60 L208.29,114.90 L207.80,116.20 L207.32,117.50 L206.83,118.80 L206.34,120.10 L205.85,121.40 L205.37,122.70 L204.88,124.00 L204.39,125.30 L203.91,126.60 L203.42,127.90 L202.93,129.20 L202.44,130.50 L201.96,131.80 L201.47,133.10 L200.98,134.40 L200.49,135.70 L200.01,137.00" class="visible"/>
  <path d="M219.50,85.00 L180.50,85.00" class="visible"/>
  <path d="M180.50,85.00 L180.99,86.30 L181.47,87.60 L181.96,88.90 L182.45,90.20 L182.94,91.50 L183.42,92.80 L183.91,94.10 L184.40,95.40 L184.89,96.70 L185.37,98.00 L185.86,99.30 L186.35,100.60 L186.84,101.90 L187.32,103.20 L187.81,104.50 L188.30,105.80 L188.78,107.10 L189.27,108.40 L189.76,109.70 L190.25,111.00 L190.73,112.30 L191.22,113.60 L191.71,114.90 L192.20,116.20 L192.68,117.50 L193.17,118.80 L193.66,120.10 L194.15,121.40 L194.63,122.70 L195.12,124.00 L195.61,125.30 L196.09,126.60 L196.58,127.90 L197.07,129.20 L197.56,130.50 L198.04,131.80 L198.53,133.10 L199.02,134.40 L199.51,135.70 L199.99,137.00" class="visible"/>
  <path d="M200.01,137.00 L199.99,137.00" class="visible"/>
  <path d="M219.50,85.00 L219.01,86.30 L218.53,87.60 L218.04,88.90 L217.55,90.20 L217.06,91.50 L216.58,92.80 L216.09,94.10 L215.60,95.40 L215.11,96.70 L214.63,98.00 L214.14,99.30 L213.65,100.60 L213.16,101.90 L212.68,103.20 L212.19,104.50 L211.70,105.80 L211.22,107.10 L210.73,108.40 L210.24,109.70 L209.75,111.00 L209.27,112.30 L208.78,113.60 L208.29,114.90 L207.80,116.20 L207.32,117.50 L206.83,118.80 L206.34,120.10 L205.85,121.40 L205.37,122.70 L204.88,124.00 L204.39,125.30 L203.91,126.60 L203.42,127.90 L202.93,129.20 L202.44,130.50 L201.96,131.80 L201.47,133.10 L200.98,134.40 L200.49,135.70 L200.01,137.00" class="hidden"/>
  <path d="M180.50,85.00 L180.99,86.30 L181.47,87.60 L181.96,88.90 L182.45,90.20 L182.94,91.50 L183.42,92.80 L183.91,94.10 L184.40,95.40 L184.89,96.70 L185.37,98.00 L185.86,99.30 L186.35,100.60 L186.84,101.90 L187.32,103.20 L187.81,104.50 L188.30,105.80 L188.78,107.10 L189.27,108.40 L189.76,109.70 L190.25,111.00 L190.73,112.30 L191.22,113.60 L191.71,114.90 L192.20,116.20 L192.68,117.50 L193.17,118.80 L193.66,120.10 L194.15,121.40 L194.63,122.70 L195.12,124.00 L195.61,125.30 L196.09,126.60 L196.58,127.90 L197.07,129.20 L197.56,130.50 L198.04,131.80 L198.53,133.10 L199.02,134.40 L199.51,135.70 L199.99,137.00" class="hidden"/>
  <path d="M180.50,85.00 L219.50,85.00" class="hidden"/>
  <path d="M199.99,137.00 L200.01,137.00" class="hidden"/>
  <line x1="30" y1="118" x2="260" y2="118" stroke="#ccc" stroke-width="0.15" stroke-dasharray="4,2"/>
  <line x1="148" y1="20" x2="148" y2="200" stroke="#ccc" stroke-width="0.15" stroke-dasharray="4,2"/>
  <line x1="35.0" y1="110.0" x2="50.0" y2="110.0" class="axis" marker-end="none"/>
  <line x1="35.0" y1="110.0" x2="35.0" y2="95.0" class="axis"/>
  <text x="51.0" y="111.0" font-size="2.5" fill="red">x</text>
  <text x="36.0" y="94.0" font-size="2.5" fill="red">z</text>
</svg>
