<?xml version="1.0" encoding="UTF-8"?>
<svg xmlns="http://www.w3.org/2000/svg"
     width="297mm" height="210mm"
     viewBox="0 0 297 210">
  <defs>
    <style>
      .visible { stroke: black; stroke-width: 0.3; fill: none; stroke-linecap: round; }
      .hidden  { stroke: black; stroke-width: 0.15; fill: none;
                  stroke-dasharray: 2,1; stroke-linecap: round; }
      .axis    { stroke: red; stroke-width: 0.15; fill: none; }
      .section { fill: #dde; stroke: black; stroke-width: 0.3; }
      text { font-family: Arial, sans-serif; }
    </style>
  </defs>
  <rect width="297" height="210" fill="white"/>
  <rect x="20" y="10" width="267" height="190"
        stroke="black" stroke-width="0.5" fill="none"/>
  <rect x="197" y="185" width="90" height="15"
        stroke="black" stroke-width="0.35" fill="white"/>
  <text x="200" y="192" font-size="3.5" fill="black">Aufgabe 1: Dreitafelprojektion Quader 80x50x30</text>
  <text x="200" y="197" font-size="2.5" fill="black">GZ Sek I | CadQuery + HLR</text>
  <text x="100" y="30" font-size="3.5" text-anchor="middle" fill="black">Aufriss (Vorderansicht)</text>
  <text x="100" y="115" font-size="3.5" text-anchor="middle" fill="black">Grundriss (Draufsicht)</text>
  <text x="200" y="30" font-size="3.5" text-anchor="middle" fill="black">Kreuzriss (Seitenansicht)</text>
  <path d="M68.00,77.00 L68.00,53.00" class="visible"/>
  <path d="M132.00,77.00 L132.00,53.00" class="visible"/>
  <path d="M68.00,77.00 L132.00,77.00" class="visible"/>
  <path d="M68.00,53.00 L132.00,53.00" class="visible"/>
  <path d="M68.00,77.00 L68.00,53.00" class="hidden"/>
  <path d="M132.00,77.00 L132.00,53.00" class="hidden"/>
  <path d="M68.00,77.00 L132.00,77.00" class="hidden"/>
  <path d="M68.00,53.00 L132.00,53.00" class="hidden"/>
  <path d="M68.00,125.00 L68.00,165.00" class="visible"/>
  <path d="M132.00,125.00 L132.00,165.00" class="visible"/>
  <path d="M68.00,125.00 L132.00,125.00" class="visible"/>
  <path d="M68.00,165.00 L132.00,165.00" class="visible"/>
  <path d="M68.00,125.00 L68.00,165.00" class="hidden"/>
  <path d="M132.00,125.00 L132.00,165.00" class="hidden"/>
  <path d="M68.00,125.00 L132.00,125.00" class="hidden"/>
  <path d="M68.00,165.00 L132.00,165.00" class="hidden"/>
  <path d="M220.00,53.00 L220.00,77.00" class="visible"/>
  <path d="M220.00,77.00 L180.00,77.00" class="visible"/>
  <path d="M180.00,53.00 L180.00,77.00" class="visible"/>
  <path d="M220.00,53.00 L180.00,53.00" class="visible"/>
  <path d="M220.00,53.00 L220.00,77.00" class="hidden"/>
  <path d="M220.00,77.00 L180.00,77.00" class="hidden"/>
  <path d="M180.00,53.00 L180.00,77.00" class="hidden"/>
  <path d="M220.00,53.00 L180.00,53.00" class="hidden"/>
  <line x1="35.0" y1="100.0" x2="50.0" y2="100.0" class="axis" marker-end="none"/>
  <line x1="35.0" y1="100.0" x2="35.0" y2="85.0" class="axis"/>
  <text x="51.0" y="101.0" font-size="2.5" fill="red">x</text>
  <text x="36.0" y="84.0" font-size="2.5" fill="red">z</text>
  <line x1="30" y1="108" x2="260" y2="108" stroke="#ccc" stroke-width="0.15" stroke-dasharray="4,2"/>
  <line x1="155" y1="20" x2="155" y2="200" stroke="#ccc" stroke-width="0.15" stroke-dasharray="4,2"/>
</svg>
